<mxfile host="65bd71144e">
    <diagram id="C3x9KFAz_dhpqgYpBoHR" name="Page-1">
        <mxGraphModel dx="922" dy="779" grid="1" gridSize="10" guides="1" tooltips="1" connect="1" arrows="1" fold="1" page="1" pageScale="1" pageWidth="850" pageHeight="1100" math="0" shadow="0">
            <root>
                <mxCell id="0"/>
                <mxCell id="1" parent="0"/>
                <mxCell id="3" value="" style="shape=image;verticalLabelPosition=bottom;labelBackgroundColor=default;verticalAlign=top;aspect=fixed;imageAspect=0;image=data:image/jpeg,/9j/4AAQSkZJRgABAQEAlgCWAAD/4QAsRXhpZgAASUkqAAgAAAABADwBAgAJAAAAGgAAAAAAAABpbWFnZXJ5NAAA/+ICKElDQ19QUk9GSUxFAAEBAAACGAAAAAAEMAAAbW50clJHQiBYWVogAAAAAAAAAAAAAAAAYWNzcAAAAAAAAAAAAAAAAAAAAAAAAAAAAAAAAAAAAAEAAPbWAAEAAAAA0y0AAAAAAAAAAAAAAAAAAAAAAAAAAAAAAAAAAAAAAAAAAAAAAAAAAAAAAAAAAAAAAAAAAAAJZGVzYwAAAPAAAAB0clhZWgAAAWQAAAAUZ1hZWgAAAXgAAAAUYlhZWgAAAYwAAAAUclRSQwAAAaAAAAAoZ1RSQwAAAaAAAAAoYlRSQwAAAaAAAAAod3RwdAAAAcgAAAAUY3BydAAAAdwAAAA8bWx1YwAAAAAAAAABAAAADGVuVVMAAABYAAAAHABzAFIARwBCAAAAAAAAAAAAAAAAAAAAAAAAAAAAAAAAAAAAAAAAAAAAAAAAAAAAAAAAAAAAAAAAAAAAAAAAAAAAAAAAAAAAAAAAAAAAAAAAAAAAAAAAAABYWVogAAAAAAAAb6IAADj1AAADkFhZWiAAAAAAAABimQAAt4UAABjaWFlaIAAAAAAAACSgAAAPhAAAts9wYXJhAAAAAAAEAAAAAmZmAADypwAADVkAABPQAAAKWwAAAAAAAAAAWFlaIAAAAAAAAPbWAAEAAAAA0y1tbHVjAAAAAAAAAAEAAAAMZW5VUwAAACAAAAAcAEcAbwBvAGcAbABlACAASQBuAGMALgAgADIAMAAxADb/2wBDABgREhUSDxgVFBUbGhgdJDwnJCEhJEo1OCw8WE1cW1ZNVVNhbYt2YWeDaFNVeaV6g4+UnJ2cXnSrt6mXtYuZnJX/2wBDARobGyQgJEcnJ0eVZFVklZWVlZWVlZWVlZWVlZWVlZWVlZWVlZWVlZWVlZWVlZWVlZWVlZWVlZWVlZWVlZWVlZX/wAARCAMMBAADASIAAhEBAxEB/8QAGgAAAwEBAQEAAAAAAAAAAAAAAgMEAQUABv/EAD4QAAICAQMDAwMCBQMEAQQABwECABEDEiExBEFREyJhBTJxgZEUI0KhsVLB0TNi4fDxFSRyggZDFpI0U6L/xAAZAQADAQEBAAAAAAAAAAAAAAAAAQIDBAX/xAAlEQACAgIDAAMAAwEBAQAAAAAAAQIRAyESMUETIlEEMmFxQhT/2gAMAwEAAhEDEQA/AOqo9tAcQiO9mq3ExWXkEWdrnmpQd7MYhbIW3BHcTFUMnN1tUwuGX2cXzPemVACmv94wFOgVSi7qRFDUNRC2eIzJidTYokHiCzBALBUnY7QAJBSknfb9oBzUdIJAPEEZms6TfaiOYOMXeobiAD9JNXye5njiVBTGyZj5RspHHE8vvOk8f4gBqBVBAAu5rgg3Vzy0jm96hFlo1vEB4NRFxqpuCWFcxKXe457zELF6Pc7GAFGUnT2qSKxXLpXcHfeWZCAlEbyLIx9RSn3DtACpAK3XSxHIi8ntQ0wJ5E8c1ptzFnIjbEX+IALyZgMa2AfyI7G4ZtVAbRORGyHVzXEepGncG+8YHtwxpYzHVn2zyimWjzHONLeLkjBVhuDc8yqd/jibtVg7TCfbQAuACCVCsSASO8Zh040ArkXJOqssooWx7R4xMQoDVYgA86iSQxI8AzC+lNTe0LztJseLJjcsS1HtGsxfUrGwRtAAhmFbNqFbGuYHqeo22TQfiF6YJX271X4gNjCkVe3IjsVFGPXq+4OKuzB6k2FB1Lvdr2i8TN2FGMO+9QsZPkZ1UAOLvvJMqZXcFnUEcToA6PvFgnYwXCMLBBJ8wERem59xZXfgpFqxXGyDGFLc3KcgU5udJGwnghv/AKZ25uOwFrkZbsAluJ0cGM5it2K5kowKzDSt7/tOthxDElDk8zObKihg/sIl21NZh5Wr2iKnPJ+G0V6eJueUWdX7QfuNRlVtIRTPcCAZpnqiY0ZAO5hOe0yu0ljPQ1Wh/mCotr7CGdhGv0TBJswuBMHmY28AMO5ueE8eanohnu8w7zZkAPVcM+J5RQno6ECTBqbPcSSjxiyahGCNz8CJgags78mEGtqgudCk12mYgQgZtjD2g/0LJsa/WCZpNm4J8RvY0ag3hE6R5mgVBrU3xDroQSDvXM0mpo2EC4+kI27MBjNJoVMG534EBhJYX5M8R/aaDtcFztKvRIuqLMBRgvq00CD5MMGvcfE8FsXGpDoU1qCCLB8QQ1nipVpWjY/Mlyqxy2GNDtXMtOyAgxsVQvmYxBWiKPm4Dh3UMpqjsDNIPBWr7mDQJm6hstjYXPFd6B3ghSpO135jFAG/iZMtBjbiC7UD5M3VcSxGq7isaNT5h2SauZe2xmqtDfvGhG7DgTGPzNOwg7DmAAk71ME8f8zRQFGIZhNd4k4vUazxGv4EJRpG8LASmvA5Os6fHMPF16tkCsrKT2hMATE5cKsdXBHBm8MrWmZSxp9FwcsRpuvmYTudiakI6jNjOlveo7yrpeoGdKve50xkn0YOLXY3CxOIe3fuJvqEjdJq+2/iFtyOJQiZsgVtoo9S+vT28x5xocpbgzy6N+IxEgALklvwJViye3c8cRStjKkigbh43xkbDeAGu6u1XW3iLOQYz923baEzU1/pE5lZ11DtAB6uMpOkmvxDqwaJEThLKK00T8xociwVFfmABs4CjgnxJM6HXrIFngXGPTCitEcROTM1gEg/JgBisXYC94rPlXG5O1pwZPl6h9dDavEAKc9AmhfEAOpiYFQVItuRH2VKhhZPec7p8vpNpUbDzLceRmPJ3+IANyAbWQLk+XpHA1IaHaMyBcgA1e4Q1cqoWyTADlPjORD3a6nPOFyaDbXvOh1C5FysdJ3PMVprGdgTGArFjOqhdeZaqBVCsOZJjbSQPmXtTIGbkQABsaqtpyJ5WULqc7nv4mnEMg8C5rj00CgWPBgB4Opokn4jwEIskkyGhlYUSp/xHpjONQ2vUO8ACdMZYWYWlQlLkNDxAXPh0n2wFygClSABMMTHd6auYACUVDXMykLTstE7VBxvqzABRUAPMBponbvtJWRBRRybPE7D4S+MbgCuakLY8WEgA6muACvT9wblfEcuMudtIWDerUwAW9oWPG+oMx9viAHQIddLaS2/EZ67EEKn7xurbbbbaCMdWxG5k2AtCQOBfeH77JLACEwUAawaPxAdECkg34EADLgtxYI5kuUtd6Lmgs1b0B/UJ5mJa2FfPmAycKVJKtViBrr2kFT+8dkQHJatt2hrhU1ZOxuv+DAAMONnYEk7nxKGT0TW1neviKyZHF6CdI7955Tq3Y+6AHmbax+0AMbA4HmGBqO8EtV0KPiIBy/bZ7x2PdNRIsRCAkAVzGpi3uth2viAGszOdl54uDjwaGJLAk/2h6QH9psQ/wCrdRACbLhUqTYBvsYnAVII7iWZFUttUiJ9LqTwQYAV3jqjt3hasbqSrDfxBRlZbIENdO4ofgDmAA4Svq2Dve+8ozMD3ijgTJVqAPg1BbAOVZv3gAQfUQDW08zpdE1I8+F8dFcp3kuQOXpcpsRDKOqcNnxhDe1mMyPlXEqggm+B4nNIzBiwcXxHYTmU3otu5uMR0MeU5RRB53EMkLvp47yRM7qd1MNupKOC3Yb7QAqDhwCp3maCTQb3eDBx5kyrS6bPEnyB0JZXquxMAHlMqv8A4qaljdmreSYeqXV78gr8xz58TPXqCj8xDDGJc+T3Mw8CL6jogn26i3beMXLi0gLlT8XvG7MDeRSK2owAg9G0V32s1uY7GSXVXb4jdKspsrV3RPE3p1xnPpxkNZ3FQsKKumwgt6hFVwJWTS3MVQqhVFAQHNmhwJhKXppFAnc/ME/bNM8BZ/ExNTyLQvvNM24PJjbA9BJqFxAO5ksaMHNmFR4nhNQdzFQM0ChB5aEx7CeAoRiPQbmmCd4hnqofM9Pdr7ieHmIZ6poFme+IY2EaEzxEBj4hE8mBBgjJ4me4EBjftEko8xsbd4QGkbTEG9/tNJ7/ALQAFzZrsBBB2nrs1E9R1KdOttZPYCJJt6DpDzsJqDe5x/8A65j9XTlxFVv7gbnWx5UfGHRgykbES+Dj2JNPoJz2ENQAICCzcZEv0GYx7QZ7k1BJ3qDBGc/mb8CYP7mENhAZpNRRJZt4TnsIINbxDPEXtGAVxwICd2/aHx+kaEzznahyYtlsgCH8mYoq7jsVGEAEbbf5mhdq5uCx3mrar+spSBoxsYY0CYJUjYxybD57z3tIOraGmLaJXYgV3i1q498WxMXpINGviQ00UmjVBJvsIZJueHtEwwA8f7CCTU9dGY25gBgHeeNgXN4HeplWa7QA8L5M0naeJqDyeIgPXPA1PVPDcxgYUHYcxL4yDaWG8iPmqO5lJtPQmrFYusKtpziv+6WqyOtqQQfBkmVFZSCJCceXCdWJiN+L2nRHN+mMsf4dfJjxnc/5gkY1QmwAPmSYOrx5G0ZRob57xzY/VpFK6e5nQmn0YtNA41wlQysKPaeKgNYO0amD0gadfxUnembc7/AjEFloAENweIGXMumt6nsmINjtjv8AiRZC/tIZjACsZFFbsY1aKn2n9TIKYDUGO8cxYKDqJbxcYB5NQoFD8bxYIT713/MEsattz+Y1siKg9tmAAHSDbr32M30XLg4wB+BMZyy2SFPiPw9QqYqOTt4iAV6Hvt30kdhHJ91M7bxgOJxQIN94nLj9NrUkC/MAGV6ZLtx2E1eoAcPYEE5QF03d95LkDEiyCBxACrO5yj20Re1STIi4RsPu8wsWOl1KCaMzqGQ6dRIB8xgJTSAGqzfEtdA4DfHIkqYwQCTtfMoyZ8WPCFQ6vmAG5HVMR0+Isn1goJs+IshsmMsBzEszpVg3ADoekwRtVfFQRiCtx7fmLwdUNDepYvYR50Nw17cQAIdPiK+yjfMXlxhKKqQR4mopxjk3FZXe6DGACsinI4Lk0x7xgwpjYFTvJs2QgqLsxmPK4FXACt1JWgSRW4uSkhNnUfiVYDYJ3iMunUbW2gBqh3NKigc7w8LFibK7drm4LyAnYCNTp001p/WIB9h2DGhXEcCa34iwtA1ZvsY1QNrB+RJGeYUADZEW6gstcCPVdt/0i3BQhjRHxAAGSgaA03JHtX02fiWPbLQiHT21yRv+YALxjSpDC2JuP1jTQAHaLRCd9O357wmGm+IAbp1dxUUcJVmKmvzCQEbkULns7mwo/UxgIGStxf5HaFiZsjDx3nlVWogEHtH4yikWuk8xAaS6DbcxmJ9VnceZrgsZ4KVsNuO8BjQQFO0DUNO3H+IxFGne5jJ4/aAiV8nx3/eS5Q2V9SpUuGMeoFP5jHxqBxz4gM5r5cuJAun7to3D6xFgr+Lj8mAnngG4aJpYVEAtM7+pQAPneE3UHRfpkfg3Bz9OuRwTYPkbT2QqqBKPFaowJD1e5ViQCe4ifUQLanWx7Q8igIbNxePCGyhU4u4AZRv37CNVMiqG20xgWnOq99qqaoa6P2A8d4gNR3q9F1AyZXAv0SxPEfjYBarnbaU49N0ooiMQhcmMrq0qjVvtxF5RjKfcDfxKcmRUO4+OIp0GRtgPgVACJMfTvsQobyZ5OmwsTpcAg8gy4YsaN7k4HYRIwHKG0rQJ7CAA+kMZBtSB8Q3JBrSATwYS4VVCNJPkme9BC1FqFbQAnTNkJK+mrEcEzs9BhKYg7oqufAkXSdLr6iw1ovP58Tr8CZzfhcUY7UNuYqaTZuZOeTs1SMMIChBXyYRiGYZ4Tw8zDEMxjBAr8zx3N9hN7X5kjPcmozgTAtCYTK6EeG5mmYON+Z47CAGGZPT0gZ4c/E8dpo2EznaAHhuYXzM4uA2Wht28xgG2wqCBCxNqIJ7x3sHNbSlG9sTdEps9j+08uNzuVO8qDqbo8ROfP6aahuY3CK3YKTekgfTauOZjYnOwA/eZ/F0DqAHzJuu630cLZAfaPDbyfo9IdSGZB6SEsRfi5yOtbKqMzC1a7I3j+l6zHnQsCSF3puYfXHHkwBVGzD8VN8cVEzm2z5nObevB2/E6f0Hq2XN/DO3sfdb8zm9QCGrwauKRiGBBojvNJR5KiIunZ92NhNJnD+n/AFTKyhc1P/3d52FZMi3ZE5eO6N7PXRuYTZ/zD9PVVMDU8MDjbY38xcWPkgVmsaHzC9Nx/TAKNe6mLiwtA8D5mUSdN7Tzar+0/tNAIEVMdhj/AOJ481+8zcC6O08VYDg2Y6A8dzMc1sP1hBWAvSYBR73U/tFTC0eE2t5n2izzNXiABdrinNgCEzbRY/vABg4Kncd5oAezxBPGkcmbvwI06FQLqym+QYFmo/V2gMovaFJ9BYmaO1zKJNVVd54Gr3Bi6GeJrxPVQ37zw3NibAATMI2qb3ue3gBnb5niaE98mCxs1RiA0C+IzgVAUUtmGSALu4wF5NxUDR2qaDqMMiMCbL0yuN6uTh83Rn2HUvidAj4i3QE0ZcZuJMopi8fXHK3IB8GGbJLWOO0Rm6YMLWI15cZCkkqOT3nVHKn2YSxtdHU0WnPaRldq4mN1SuBpckjbxBOogEOP3mpkayqFHet54KCLX9Z7KTpux4/MWjKCFL6fMAAygk7jYd57Hl7HiblYFgAwK9oplBO0YFhVMq968wsahWrYVwTJkOpa3H4mkb2rNx3gBUqUb2vyJtgZFvcDci+ZH6lCtyRDxIzmxt+YgHqiuSCaHYx74lOMgDiI/hNbbCj4viPTViQqQFY8RgAmPQhuxtIeuOtgt2Kl2XIy4zakmcrJmZmNg/pAEH0+dsaaSoZDsQZuTGCbwkn/ALT2k+PI24AhKXUWAQfiAHR6I/yzrYAwMih03YDtF9Mi5Fogh/8AMYceolG9pHEAGYtAUArZqeOXStbAzMSUKJ/aBlx++wdS/MAA9TIcuptWgynEEL2QTfmKwjHkQFL/AFlY6ewKaj5gAjNgT+lf7cQ/TxAAsRuOBGZQETckxI9PKRYqoAMw5kDadNL5humE+4EWYDY100NO/wAwQPTIIQsboAQAI9OWUaQR5qJxdUOnytiZmYf0/EtyZGQAAbGKZcTgDhj3qAFIcmh42uPANV/eKRRtbRm9gdpAzd9gDRniCEbV42mKtmyPxCYbae0AIznbX/2jmEjW22yxJVUzGjsdqM0lbIRq/MYhttqA2I+IWT7KNbcSUnItEcniuJ5shIIP+e8BluAg7Oe0RkxhiQp5iMnUBKG5JEJM1gA8gQoA8eEirJ2jsiacd3dciL9bU1b7+IYdnNqwHkHvAAMOb3gOOdhKXZdNA8xePEQDdMZ4K4Nadu0QB62Okg7CO1kJ9t3Jt8Yt1rfvPMXLa12A4WAD0UqoJq54qC4uTDNmF+2z4mr1DsN8bfkdoUFlLBTtfHMS7KR7PuiM3WLelTve8WerQEbf2hQWFlLM4Buj3EMhQRbDjvM/i8ZxFQBt+8ky5lRh7TpO8AHPjBc+L3qAbx5bQWKgL1SFdlbnmDhyhuqJo1XeLoZWLddVEea3ntZx2N6O/EA5grMAwFdobH1FBsA8cwAzG2UknTan95SrnRYdbHZhU8iaV3B/M9pUsCyWPMABL62oorV3hkaWBVRPFF10ErxUXR1gAkX5gAZZ9/YOPMViy8qDpa410LY6Vhfz3iPSIaiqiviAB6CWssDR3qO9HFk2Dm+QK4ikcofSJNfA2Es6XCwcs1VWwEG62NDumwDDjCj8kwsjdhCJoGJuzc55s0SNMz4njzN7TOiz0w7zTBMGB67mGaaAg/Mjoo98TVFm+0weIwbCo0DZlzAL/E8Zo8RiPQbuax7TDsJLBGGe+Zm/AhjG57UPmHFvoekBcYqEjxCXEo3O8x8lqQvHEppQ3Im76E53GNdjZHaR2+RgGsC72G0eVtga44nmUIoutt7mLyX0apJHk9oU7DzBOQNbI4JPEi6nNky5CuPcLwB/UfEbk048XuAC8BRDg+h67KcWdUJ1N+kX1GQMHKk+3x5nGbMx1an0tttfjsZT0/Ua6VmJ22+ZpLG0hRab0Oyq5Qqj0e9mczqOuDA4eox2OAwMt63IoYY1IYbkzlP03qZSSbGra5rCMa2TJyvRSjYkTTjBAHJ7tvGHJWFnahXkXtBxY9OMg1anSDfHz+8RlL7orVftNnn9P0lRYpoj6g+o2peOwiUxszH45lS4zp0qfYCOYZxBcaVy5O3gTRyozjBthdMKx+1tyaAHedHFnyqN2J0jxE4Om0vjYqBq4F/tH41cZBjKnyJyzkdSiqLE+oMDTqADwROnjcMoI4PE5g6LUwJNipXk14caKmwAkrLSM5QTeiyC3YntJTnZcfNEmKbqSRs/A3j+dPwlY2dAEeJt0LqSYepDYgSKnn6tQCautvzLWVfonBlByFgaH6zxJveSp1RJogUSBUdr3FjmCnYcaDLV5gPk8GCxNGjt4iWejx+DE5DUTz5mA+38RI6jJqCvjCqTyO35h6hwW43inyW2la1nye0m/wBKoa7dhvBBMnOf0y1djVmCnVrqCn9TK430K6LB5hg0LiUyBvxCLC6k0MK9rnr2uAWng3eIBoqqIuLdQMgoftPFwN57GbNxpioxqB8GCx3jXCsN9j5iijAE8jzBr8H/ANPatxPWSdjB3qeH7RWBpM8o1GYeYwLSgXcFsDP0i8h2qMJAW6i6J4H7wA8gAO00nfniegmx4gBt/M8BBG5/zD5AjAw7QMmMMKIEPljzQnjuYCOfm6YAih+0nKPhUsxsA/vOsFBO8VlwhuJrDK0RKCZEpy5gKTYTURtYtdyeTCIyYRaE34nhnOVvcSpHb5nVGal0c8oNC3xNZ45g6G5FGUMzDvdxDMyt9x/SWSOxNl+yqP4gvjyarJPE9u1EO35veKZspFhv7wA8VbTu5/aP6cW495/UyVXNVRJjUG5NbxgdD+IAzhcaavJ7Ryhsr6mABHac4F9ANkb7gxoytjQ6W/W4gKOockMtaR5nLyuQSKG8oyZXcAA6geZK2Ny2kkgRgK2DWt/NR2wxlmY34goujgHfmEQ2j3XEAKZCriiY9sjOu9je6ikUH+mtu0aqEAEg8xgZrcgBWPyKlA1BAXuu0LQpQttf+ICYwy6mbY8CABBmCqq0o7yzGXoWRXmRZghxinANR/TsfSClrrvAAswzlW018Gc/1M+OyG377TqhiF7AQBhXI+qtzABGE5sigkj/APtlCJk1WH/So1FKA2APxBdTiJykkjwIAGSQLNtJy+QtqVaHe43Dm1AEqRe9Gblb2kFdjABrAjcNajtPDI5PxcwDQlk7c7xYy473b9jJGUg0CKO3gz2RiEIH6kyc9RvWrbsYL5gB2NxAJyF2fSTQJ3IEI4gRtYPxFjLWQm/7xy57H28d4wFBAALZhRqM0AMLHejPFjYuhcaNh7haiAgGwro4FniYAp3KUw7VzH0p3BFdoAQLkF3Y88GAwNvuAoxqe5rraZSgkEUD2uHsi1wO8QD1ZEQtx8zLGRfaAe9xaoW3JGk7x6qACR/aAEr4ibOUlh8QCpQ2CSv9xKqNH4i2VgpNg38QA0dqI37zdSht9vmLYsKOkkfEEsb1VYrYeYhh4sKZMms8/gVBfCimyqlfxxDxNpJ0ow+Ki3zE6l0Mfio7FQD4Fx6qrSdvb4iWwBjuG0j8Q2yqo05LUjixDXqsbChvtFY6JcnSqFZsbDSJOnTPkFhqU/Mr1hwxUgXtvDUIDsw9oqubjEc9ukdast+hhLhyAH7gQNrnRUYyQWsfAHeORQSQoAvm4WBzR1XUogV11LXImr1WfTXuXfvOlkRQmkLfnaRZ9OHRSAgHeAArnzqxawT5uUYurVgfUBDDuN4hnGlfZ+886oyKVBV1+75jEV/xaJWxN83PfxeN8gKoPm5znBPBO08FJBFHbkxUM62DLizZdKY7P5nRACrQkX03pvSw62+9v7CWOaFTKUjSKAc2amdp4TZh2aGCbPTIDMmfM3vMJEljMPiZW08PMJRckZqit54zTAdq/WU9IXYQFz17TcaFl2/eNCBed5UYNkuSTEKjNvwJ7K+Hp015WJ+IzLk0KT+04nWnJkLMxrfb5EG4xdFRTkP6j67hxK/pYyWUcNtZ8RfT/W26koDiZdVznL0LubZa35PJluDpcaXVUJOTJGqRUce9luHrBkc4wTqG28eiszjfaSJoDWoseZZ0zXe85ovlKmVJUtG5sZCbSXKDsu1S3IWGw3BkOa11soJYDYXzLaSloUOiXGnpElgADsb3P5mOxJZyy0D7bG1wepX+YQTqQbmu0nyAOUolips+DOiC+1ikrRzutyhzQAvGa27xnS3TDc2DuIrrVTB1GheGonaqlK0OnZdwRvfibSMoLZrMHxhmYX3vmpqZLCYwSVJtvMnV0HtYbD7R8R2I3Xck71MpaR0w2VDHRa12okdhxY/xIcTOcmR29p07Dx/7vOqio+QqBewq5P1OA4VYrsoG488zKGTdDlHZGUXHi9qliwobWQTx/wC/MHIze31NiF08x+LEwRMjWdHYcxDr/PonSDySOJqnY+NFau7YRputqvzOn0Q1Lqbdqqc/GNgbsefM6fTUFFVZnLPegl0Ow3rAO1ypwBV1Qi8S22r4mdVqC2CP+Y0nGBg9yIesyoysFFkbACcs5XRaW9xsP/f1lXUEKpB1Hv7e85+PU2UKByRV8995rjiuOy3d0djpnrGNfJ2r5mvmQWhNUbNSV1YEOx3LWRzwBF49mVXBBYWB8TPh6jQofLoKPZbT3+J1ceTHlQETgPlDORQ1DbbYGU9J1NNoJ3HfzKpxVkSXI6rGkMlyDTk2sCufE1nLgEGyPPeMVCMI4qt7kc+TFVELsQDyPJEDGyhizWBqoHvH9RjIxsRtQvaT6fUGhjpB352EpDNbHr93Fmwa3vvIM51sCNRNc3OljSqxtZ7/APvxBGAW9KKqr+JomSRY8mVas1XBMqxdR6i3e/eLyY1YNpAobD8wMaqhIIph4ldklfqDiGryRgU35B7z3rACS4lJlWrW1CPBr9JJhahZ5Mdqk1QDLs1+8INtuNh2ix4EZVAfESAx0sAHY1xFMhUfpGA21mFs3O99o9MXQlFJe4wkWRCKaRtFvYve/wAwaoLsFzZGwoT1jtYggaWO89uTViKx0GDztAYVvPE0Np6r5A2gBqCh+ZrHabQPImAdxxADBYAE8Zh5hKL90ANAocXAO5qETXmZtGIVkUHtzI8vTkgjt5lrH9DPadq5jjKugaOaSyppyE//AJRiJ05wucmVg1Wtd47NjsVyDIWBxMFO63t8Trx5eWmc84VtDj6JXSodjUzEyJV42IPIuOTGQg06bPaJKXkK8G/0mxkaQE30Cj8zcfU6QRoW/BgtgKgHzMGNWN2breAFON2dgzaKM8/ADgV/TXeIACOuLVs3JHaP9IO4XUQBw0YB4NQUv424iszWboftKeBoXISo+IpkXVTMSfiAEgJBNWI1n1gKx2+IWTGhB0vv8wEx3yy/m4AT6mUkWb7S1G14wX5EV/DkZGth+ZgXIt1vAAsjYhlBFjyJuR0sBSNI4i9FkE73PKK2K/qRAAhtTUDG4Vc5hbUpgBSgvkQ1yFRrXnuIAdIIqJZOoSXJ1y4WNAEHiosdRkfGRvE40yEkAg/pADo4ep9ZRwGjiNYII2nMwpkGTSzlfxLRQti5AHG8AHLhAOw3EIpq2IuRZXzLZxvqbwTPdN6hF5Mp1H52iAV1PUMwI7RK6CoLGie9x2VFYUBEDGRWoUDwYhh401A+66PeUKjFboMKgYEDHSHAN3xKGZsZFBdI7iICTG6+odSURtzDA0sRZ33nuqXTm1gAht9oaGxdc9yIwB0+L335j0dTqVidol2C2DzXEYiYygO+/PxABpBXYcfEZVgV57xbKG0023aeXjc8XEB7N9vHfkRROV/aBsIzQp5Jq5g1Y2azseN4AUjYADxNdgbr9xMUlhZXeCBZvejzAA1Y3QO08p0E73vYkzLlGS1JodqjAzHhdxAB7P7aHJgqo02B+REO2VCG07eDNGZ1UnTzwIUAwuqcftCORnUUm57gSTLnDIG9MhgdiIODr2TIy5Md/iIZR1NjEdiT8yMupABG/mozN1+PLiIZGU3Obkzbgo1/mAFejCrgljR7CSMri9GQlb7xxZNSAMD2uZkXGLog38xgYnUMqaST+Ia9dlA06iZ7CmDPiIoAryfMpT6cGAZT7YrAX/G5WqiDQ3BEw9QX9pQEnuJfh6LFo1KxPxAyYEwcGtXlbjsVEydUqHTlxMR2BNQ8efGXNDQD5FxmTEzLtlDqOxHED+Gx0NRKt5AsGMRnphx7XUHxXMb0HT5H6ghxpVefmLXpMmoaMob8jednpsPo4gvLdz5MibpFRVjeBFH3HeE5s1MO205pOzZI9PTOZ7kxFG9pnE8ZnJuJgerb8wTuYRmHaSxowcwxsJiiGBZ+I4qxNgUWNCMXCvL7mafbxzPf07maqKXZLbYWoDYROXOEu4hshUsfnaAGVjbNQnNP+Q3pFxx+s87HIbJ28GA/puhUXdcjtBzOqke6r4kWLC2J8mbXqU8bzBK9t7N0h7/ysZ021bAcmSjMVBTKuxsWJubK5AKG6qxJuoOhQ2jWWNA8UJpCP6VRSiHFlJQnQQBVy/ocllgJGrLpXftAx9UcGQmt+N4K+VsHG1R2cmpRYs/E5/UNdU9b3KB1a5un3PukxxF3A06h3vsItKREI62DkalbGlqTtXj/ANuR6WB/mKV32vuJa4XHj06TqIJ25kQ9UMgc2vA3/XebKetD42R9Woz9TiyjgjcHtHYcZOzt7SSAfM6I6YMotR3qMODGhVf7SZZ7BRijl9ZgTFj1AbggAVtE9Mj5HFXpredPKqNlIcbQFZMZIVa37R/I+NFJejOkwFcha/3lmb03x6WHIG0iXqCHAv8ASezu7kkTLdiabZjIE2Ugqf7SXLgTJk1WYxVyNz+0HLePUrAyo2mWkeVhYAnT6OtB4JPE5TadA0nfmdDomIAJG0H+kyWjqL7FHgTHYZsdVvW1xYze+iK2uebPXABuOUl+mHF2Q5sGsUVoXvJh0YxvqAogUCe87CvrsEUPmJzBSoIaiPEz5Nemil+nNykKygG6FAAbnvt+xmFQciHVVJWo7kCEuD38e8bA88w+rcYFTQAzH+mpry8RdIk9JTn1gEqwqhvR8yjFgrGaG5HjvG9NkxvjDKh2PuB5Blie3HdX3MiWR9A6QtBpClu2x+YZygXv7R2iMpLEqvJHMmxqxybEhUHtJHMSVqxNWOyW+SiQAeQYjrA1OMdWRsbjWdjrAUkk/ijOd/Es7VR2BojY99prGLYmXdC5fFbtTAH95RY0Fr77znJkYIcq0PwO8pxZRkUkmtv3lXRMkF6a7kXYNxeTHpf3C7rfyY8gM3tsN8xhXUvb8Hm5aM2JwKzbuAR4nsvRYWbUGKH+0oClbO1c7w17kLyaqNuhJEo6TIosFWHx3gkOhJdSI3JkYEW3tG+0T6zUVv3stjftItMqmNxk8wy/ac5eupyjje+RKFyAi7g1Q0x9+OIeM/1HtJ1azQjieFH6yaAaWveKLDIxU/vPO1LXeCvtW4WwoxkokDf5EG9iRuYa+3eapDsa2uGmG0KJ3rgmGBp27TxQg7nYTRwQTCmgs8TQqxsZ41xM1bm6PiCWuKwNbc1C42gKQNzNJ7wA0neBq3ozTx8xbE0AYAENzZnr8z3C0IJ32gB6rNyfqcIYEyjiA28pMTOYcj4jTH29jNOVgdzYPiVZ8QZdpzwTiyEHe+868c70c84VspOc0KMbiawSe/HzI31EqbBPgRoDg7EgzYyKFxuG9Q8DsRHeoKAQEk+RFY/clFiSO8PJlFbEkDxADzZsmI7ou81M+oglViMwL17jXazBxDfSN4AX6iFN6P2k5cq1WP2hAA1pG4jcmNsz6goBriMCbo30oxb3En+qMJ1Ee7Sp7CZ6Jtq28wFRqUA7HgwAo06D5H94rO6lhSEEf3jyv8sHfXVb8GR5FZ2LMb09oACvUMhKmU9PVWxCj5kDU+QA7GdTEqrjokftEAR6jFQAo7zM+RcY/lqLMlzkoTdBexEBy2RQdWquPiAFqMoHuVrPaoWE5LOpLQ8AyNc2RASWtxt5lIyE4gV3f4gBuRMrMXGOj+Z5XPBSm8Eylzowjc3JnRqBX7vJMYGE66AND/MEK/HaYGphsSJr5cjcCQMbixnEp/tNDEvvQo9zFh3YDcgLzBxhS51DV+sAKM59gLpqAPI8T2RMPpr6eTnkXAPsHwdjFi0azRELAL0gXJBuuYQZkqlLKNjFF/cSNt4w5fT+5bDQA1Mpqh5jQ50sSLrxFgDJv7QfIP8AaAxIU6WBAO/mAFGrXsAdv2jG9wv7a3syVGfRZJAHxGpec1q2WADceYZBaimG35hY8hNjcEeYqveRQJHiKDt6rrqbTseYAVowAYFpp3+0UOSZMjPjO45P5jTkXTd89jAB2TMugBqHz5kuZiTYIII5uR5XZNgpA7XPY8t0AYhlOoDGIgp6htTMfI52bfxFjIwvaoAUrjIX3IWo8mBlwDJpOlbPiBg6whu5Pi5SuV3sb2eKGwgBLk6NsYsbEcbRbLrUnIlEDsJ0cik4xqOo9+1SUtXIW+8AEdPhIAfGN73EvfqcuLD7lsHYdor1MZKImzDewZ589EepbgHgiAFHS51x4iSu45jP4jHkzhg3tUcCKbLhZRekavIiUZBkOlR4BHBjAuOZNOwG8UjMXIWzQgIq5CPZxzvHp0hOQBTs3J8RCKulxbeoxvxKmNC55VCKFHAEWx1NQ4EwkzWKPDyZhmmYfiZss9PcCerebBDMnp6eMTAwzANTbTaoWxAEDHlGSwgpf7mS2l2H/ChVA53M8OSYhXAahvMbIw9olfNFIXFjsuTSu25kpZ2ILcQMrlSqncnaGxAA337zmnNydmijQjKmTPnCqdOMbk+YrrclNoSuKMoyZ2VKC3Uh6rGz4nOMW58HuYotPRqk+wMjrn6bT3C6qJ/tE9B/EMzB2JrYCM6bAnqlcgNrx/tLVtiRWkcA/EuUklxG+7B9IgABbNWPiI/h9ZcG/P4nRxnQAvA437xNrrIXeplbXQlJ2c5lKe7tI8rncnedjrAi47A54E4+fSUvvc3x77NYbCwdZobSe/BlY6txwZxi1GHjfJZKkiaSxJ7KdM7XrPlWzVeZhZiRQBkWBiocHZuIsdVkx5CAQd5n8X4HD8Oo2R12JowC7k7vckbKzDRjFuASTcXjzsRuRt+5i+JgoFmVgq3/AJiMLnIWCgmuYGXI2ZAEUkd+8FVy9OSv9R24lxhrZXDWh+LfIAeSanWx4UGMgmfPqMwcv/p5luL6iQmnIDtvtGooynjkyzqNCC1nNbLqzBWN7/vM6jrFy2Vv8SfAMj5wyLZHkwUPWCi0i/ImkFiNjDwdTQVdSi/MlzdWSaKbDkXJcodveQADxtBQK+PR08nWhcoGoEkyr1hpBJqfOgksB3lKDMUemICc3FLCgUV4doZiQCLjkrINz+05eHqtCquXhu4nYwBdIoTH43ZE/qhuLCiLexMmzhSDpGwsfJlyoCLMAoij7ZpLG6TRzqezk4UTAbAKMTup3uVBmofO8Dq01gFa1KefmNxoHYFTQ7TCW3Zs+rE4fUKEutNqr9IDuFVdgBv23nRyYtVb8Tk5DeZsRJexam+DLUXexRfI0AtjFgUQCfzI/wCGOJdS0787cGdA41Km70wtASiw9p4AManRRFk1JiU6+Vs0KJs1Uzp7GYYWJIQbEiD1CuXRQCQgHHbee6YOvVDJw176u011QmtF6rvS3Q4J8xyLpB8xXTsNbam3bcAypFDEEcxxd9GMtE5yMcgtaWPU8CAR7iWoiEQKFE0I7CheUDUL3I3kXUqVYsg7XOg9EAXvBbEuQgbbVYkjONlQsMbhaAB28zMT0KU3/tOjk6YemRVUDUlx4WCj27zRMTNTJpHzHY3AFkxPo+of5fI/vBdMyEBkYCDiKynUSYd6tvEmRmI4NxWXrVw+1QXbvUhRb6KtItLXsIQGlfkyHD9S6dq1EofmWI2oBrvxE4tdhaY5dxpPExkrdZi8TGY9jGnQmrBJBO+xqA1k0J5m1E7bCYdWPci1PiVSkLaCAI43gk8CuDzc3UGXb9zAP3bn2/ElxoaYV7CxuZgFm5hbtPDYVJGb+sweZhsmhvC42gB5qqyIuax3mX5jAFuKkfU9OpFyvlr3mOI1JroTVnMxJ7gjtXgyr2tio5KK/wB57P04ZN+8UjY0rG/t7XU7cc+RzTjTHYAgWtQH5nmfH6ZAcarqotG0g3X7QBltw1UfxNDMqQY6rUdh4hJhV7Ka9vAg4WcDUXI/SUY2ZgKNfjvAAsagLWl9j4jD6qAlF3A/q7wkGhTrO54Bi3Yn7SbEYGtnLIQcPbfeJDPjUEYhp7WYWMvqOoAE+Z7MWHGmoALfqMmVKCASRs2QE+0cx1NqIDAbcQchIK2QfMAFIchs/wAuz5E82fPjf71/bYTzDWfaeOZmRVKhdRMQHnyZilO6kcww4KD02IPcVMHS6cOsNcaF9TDS+2oDROoy3Yc7mdHD0/qY9RzsL5EX0+JOMgqhtvLMWPCq6QfcN+YIGIy4lXSoyOSeIXTYkW9Zex5jvSIytk17DgEbCeLepYJoDvGI565gR9pvzcPE5LEGRHWrHe5VjOwJO4mZRSTWx38zysFYGxFB0IUgm+CQJ52a6NHwIAHkysrewBvgzxctdimBijkojYbRgZSfsF/mAAJqNjaNCkH3iqiTerggeY9cnso/3gB4uAB2rxMUrZ53mZDZuthBLfFbRDKtRC0rcChQjsFBqIF1zIkbajd9qMbZx6feSf8AEokdnvcq9RaqCxOqywmm8qHtX94gB1O6kldwYhlq4wBuPcRsIvL9mna73uYMjBdm3+Yn+JZi1jjmAGZkfRzZ4kqLkUgVtLaJVmbGwb8xegi20sxPFRAArWxWia5h+hrxF771CGnTZQhvxM1FsWkB6FnYRgCuAEWg9w5lPSaiCBz8yItkIsK3O20p6fqfRNaHAPJqAHQd1ZTj0jV3+ZDlxACytf3Jh5OtGMBiDR2NzUZMoDoV/WAE2nA+UMcb7AbCHk6TGzGi69wD2jWC6yhHC+Y8BGxAlWJ/xGAr+BxrRGUgAb2J4dMjppx5wSNza0JrKgAF6h2Jmpj0qasjuYADh6c48jacyHauZ1OkwnFjtzbGQ9L0oy5tZGynedXgTOT8KigXNUO8Fdh/mZepr7TbmN3s0qjD3mDzNbciekvsaPT09PUTtADL8fpAzZF6dQX57CONYh2LSdkDvqbcyJy46XY1t/4RP6vVg6jS3HYz7tCmgI/Kh0Uu0hfqsXS7ZByas+Zzyts2TtaLSwUBgCRPMvi6PaTvnT0wF3vfaFjylsm321JYuL7MyY2bQeADMo6tVd/7RxIVQOAOYo511aRbRyQ02T9a2aycY9oWzY5MzpOpXICpSmXkdoxs+slARtCAVMQC0LMG1VF1S2Ccas5yA03eNxuD22iGanAJoXGYyusjiTTYPoPNbsu9DsJ7CqKxJPfvEZ3IJN2JE/VvelTQlxTsFFtUi3rcyEUexnH6sd1Ioi5Q2U5NuT8yDM5Zq3+ZvBO7NIxomJ3lXTt6Js72PEkbmVllfAr3bgUd50PoUf7bCbKGd3ey54gKFbUWNE8ARdP2Vv2m+4DcSTW76KQVwaLFPs1xeZl9Usotb2uLHvO5/Jj1wo+Bitlhv+Iuii7p9SYFdTZI2A7SR8zO2skAruIlM7IaJJA7EzMmXUv4k1scUl2W5erGXCq4l05L3HmI6onGoQMp23rzJsbsVO4AG/zMyZNS7kkxqNEJpbQAJ1bcmMLnGxCMaPO8SDRups0ITKiMaOmolgN2I/wIOTNaaB9oNyYsaE1VDEWSBfiKh8zcblMysBdG5aMqeo9WA3+ZOMVDQqEve8PHi9wDEqAfcfAilTHBVtlnoeomkEEA2CJd0PVhKwOaYDY+Ygq2FLxE1zUjz5GZw42aYq7KcfkVH0qZR5i8uXe/HM4ODrzjv1LuVjqlyDVZoDkwk3VHL8LTGHLqyEHcXDzZjhw3iSj4uQr1QDtaltrqKzfUHzFRiUqP9Rmccbs0ap00dTpeu9QU5onkGMfo8JynKn3EcTn4mU0WrV3la9SqJQ4kyfgpxp2gsgpdIogdoWHBrx03Ak4zBn34uXY8gK1cmMf0mVpaJio3AFb8xbYgGLc0d5UWVWOwMWQ2RStVcVhZN1BZc2N8VldhRnTQgCzwe/mJTpRqGvtxH7KPgTSMmlZnKnoDItKeADx8QVRtOw2lGhHA4Im1X4m9Xsjl4QvlGNwDe+1RlAW2rcwcuD1GFbgGyPMzGD6hVh22mfJLRdWExVq1fpAfGHO4jvTGrzXMHS2tq2HiWmSLVAiB9PuPcTNf3Ane75jW3UaTvcmY6CQRWrv4ibsaVAdbkvDpTYsakT9FtfjkibkyiwTyD+0zP1q6NKvvXIE6capGOTsg67Hjxrd++9qi+j698DBSScZ5EX1WQubvYSU8zRpPszto+tTKGQMpsEWCJjPtQnL+l9QGw+mTuvH4loybXOSUadHTF2hygQy1nT2iQ1D5mhqF9zJ6GEyAtt+sxRoskAHvCB/aeILLvsTvLUvCWhYWt7sdp64eQewCLO5oSGqY0au2/eaSKngwrbmATZqAz0wnaFV7d4HBjoDdgJlamrtMPmMUUPzEALLcg6vEDtX4M6LbLJHpjvKi6dktWiTEwrRk+4cDzG4MQbkwXw72ORxH9L1DDIF9qnjidsJ8kc0oOIYJBIqwPEIO+EK2x3sKY91Z00lhQ8CT6CKbWL4qpZA1M5JLOBZloC6A9iz2nP16SQxF+al/SqPSAc6u4gBIU95LaubgNkQ3XmWsrFiLnOzYm1tpbaMAqxgMVJJrf4iHx6m0r34jMJKLp5Yne57FkRMjNkH4EAAw48ikj+qE2E6rrfvU1s64s2oAUfMf/G4FWxuTyAIgFaTQJ+2BiF5xjAofMb66ZWG1Ld1DfJj16gf7RgFjwBMhLAk9zH43CnUQPEHqciY8aA2CR+8mt2NAaU7CIDoawBt3iBlFMpNNfJEzGr6Ct0Oxhrj1UpXiMDkOLAJN1tcPFoL/AM3Uykf0xRsGvMs+njI+R1xgH2HYzNFMXqVWKhS47E7GeV7ayar9IRxem1A71v8ABninbtADx3Ykbi43G1GtooY63UkGauvc8mADwrEf8zN0NEbV+8WucjmwR/eGr6z77qABOmlA4FC5hewSBt2ELYgruT2gDZgWG3H6wAJRqUUPdzGkJoBc35MWGAsHi+QY1Ex6TpFA783vAAwpZ9KrS1/UajKyBxSqQOaaYlbFvcfJ5mkWpUfcd6gAJS7IQ/gxLdMhWyGB72DHIG3s/oYwLlCKxHfeAEPpBsZA7dhzMOJ8bDRqqvM6T4wwooNogKA2zmwPt8QAQpat7H5icOU+pp3B4/MrXLYCunuugDPNj02xUc7QAU7Ft22Hn5gP6oXTrJBPadHGhA+1Sa29ojBjRRbohJP+mAHLZWZNLke3cbTwTSFKAAHY/wDMvyegSdSiq5UxG7MNBXTVAGNCEjEfU3YAkd+8fpz48Z0HUO4+JoVaosdQ8jia7Vh9rmyaquYABqyC7xkjsfEagIIX0t22X3QNGZ1BFKv95d0fTsrepks0KUHtE3SsaVlWFBjxgd+/5mZG7CMYhRFd7nPJmsUeAoTeeJ69pqxIbPHbeCIR+IQCottCr/4F0CFvc7Cb6ioNqic2Yk0p2kuZjpILVcxnmUXUSlBy7KGyqzDaEpB3u5Fi9iKseMoX8Cc/yb2aOFdC82d/UIXgTndf049M5X/oG2ozoadTOVPOwk/U9OuVFx53JN8xwlTtmipdEuEjqETIzFaHYcSrpyqUq3+piiNGEqW0k7ftJ0yFWsk8GNrkXtlXVdV6dq3PxOd/GOWNtV8CTdVnOTIT27ReMjWL4m8cSS2aRSXZ1sDIoBAsmNzdQUUA7UJJ/EJhUemLIEh6nqHztqYnbapCxcnbE1u2dBc+pwgNk77Rj9QUfSzaSPM5vS9QcZYUCDzNyuWYngeJTxqy4wUtnSYllBHBFg+ZLnAACswXe6AsxQ6jIVHuNAVAYlhqJ3jjCiowoa74UU6BbHu3MjZvf5j8fTZM59gv5nU6f6dhx0XGppaaRnkmo6OVh6PJ1DilIXzO10v0vEi2Vs/Mvw9OqgaRQlATSJatnFPK29Eo6VNOkoKkPW/SsbKWxjSfjvOuWraeA1RuK8JjOSPj3x5GzBMh0dt+0p6xceFca4faa91d53uq6DHnU7e7zOJ1vS5MLC+AJm21pnbinGfRCVtSxYXdVB08eDCckmLLb1KRtKkVY+lTLqCkkgXZ4mAIMPp7WTdntPYHyHG2PGpJbkiL3Ji2EYoDJRQACq7+Y7pOm9ZXJIFA1Fk+2q4nlZ8YJG2oV+RHeiZR3YK4teQKK/Jhqo9QLd3ttNw4TnyBbock+BKlwonVYWUfytQAP+oiFi0mxwwHBh1ZFt2+4g7kHtEdXh0MCDV8j5lnXOcjVhG4N3fiS5SmTGDe4Ft8mQ2PHfbG4uo04RbUBsSd7gnrEYHUoPYECpEWI2B28TzY8h92g1zxFxRo4pbGZlw+kCCTkJ38ARWLN6OQNz8GCTY2EXpZm2BP4lpEzpFnS5L6jV/SAe/aJYHvFID6lb/MeX0e1X1C/EGgi7CbVjxAsws9rjsWV26ZmVbPffiRZHLsSeT3leQ4sHSquBwzk2T5i4r0ibfgpeoZX3ax5qU4/qR06SanNZWO5gG7g4RZMv8Ah3un6iz93M6WDQ24M+V6fKyONzXefSdMwGPxMJw4OyJpVopamvSaImgak0k35gKEonUZjZtDgXa1vMk6ezGvEHRUgLsI4bgGJDK3uHfiMxgjkmVjbTJZjrsTxUAqm1RxKdzOT1bdVizFltkJ7dhKcbKgnJ0WBjq8b1+YWVwF4/8AMRh/moAfaTzD6lNPsvfz8SFJxQ3FXQSqGHt5uT9SoK+8mroERuMBBbcH7ZprIDp5B4mkZJoTWzhdThdCbP5PmRZUyaAQNvM7/UdOAwrsOa/vIsuENSqCAN6qrm8Z0TJJnEa6r5imE6PVdNSKwH5kDpTECdEZJmEotDehv+IFfrOqjW3wJz+nUY0v+ppSr6V2mc9s0hpFesloWu+PwJL6lCu5jcTd5m0WWA8KP1jE3NmTq20euyiQxh5AKFycjSNQMY1s1DvCZdGKiP1g3YkIZrFg7mYB/iCSQL3m794hmnaCTYmbk3+08SeSN4xGKNTfEbPBQq/JnmIAuAwMreIg/iaWtoSjURADQoK7yfNiKnWhph3ltVxAZdW0qMuLJaTEYs+L0i2ViWB47mOwY/Wt60geZH1HTjVqK3U6P058WTGVHtPi52QmpI5pRoavTJYYHUfmUWVUBAB5mEe4BUFebjgFXex8yyBGYoqWWq+8hyY7Hs7b3OllUZPtI28znOcrZfTLqEPeMCR32O2/FxDVW5OqXtix6dnFj4mLixmryD9oAc8Ma0st+DDXGzL7cdy18aXsTY8CFoKkkglT4NGIBWPpcoC2oAuzUtwYseT2PbWdu0QmPGBRVt+5Ms6cJjZSoBjARm6bqddsV0Lxc3GC17C50XfXY0gmpIo0kLQEABdgPaFN+YeNj3G5nhsxWrEIt2FfMQHCLDe/u8R/T5fQIONqduduIDKLvT/aaSjsnpIV7He95BQ7LkbKxZgmrz5gqbNFu0BSSxh41BveAHiSdxv5hp7udphxhRd/pGY01KQK4uAA6wf6AT22h2RtzfA7zCoViLsXCKhACFuowoxCfVrcHyRGaQxLCwfMAqGpr/UR4VkX2g0dxRgAh1013vm4eEqptjW8HMhVtRNlotVNm+0AKsgBXUpBF8+J7CSyb+dvxEEksO1yr09OID7f1iAYSinSdxGLkD4gu+4O4kXpHK9KfdzAKZk9u1DejAC5WxhtLjf5/wBoWZBovGKbsQIrGMuVQwC2O/iGrZTjv7iOwFQAwIV0AkEmzZ7GMXHkY6iFKxC5nfSNKqwbz/mM/iXXbRRHAgA1bBNqQB8wRn1exVYkHxFN1itjOtWv8d4npMiMXU3Z33gAebC+7AAb8XFKX1m8fvHxOgtclgVMUQupmXLQJgAjHidntjve5veUNjVKayW+YwIKDah+ZjhS+51Aj94xBYkGXJtYrfiXjYRPTYtGMXyY12oTKUjRIBjZ+IPeemzC7NDDufiGu+0EAsaEaxXEtncyl+sTfhtBBZ5kefKzVW0I5WyHfYRDEhyWYAdpz5cnJVEuEa2wRe98nvFZgWBCt921+I4gHSbB/EXmZcSF773U512bJi8ThEAsVx+Yo9Smt8QuwYORgFsGgR7VHmSYq9Uu2xN2JagnbNEvTopnCEEm/wDaPdsedg4PE4ufJ7zp4gJ1JBoE1LWPQnC3ot6txkel4P8AeTtkVTkSgSFu/mMynTh1nntObkYAnSTvzLhE1jDVi8tajR2gKb4mNvG9JhOTKFBoDckzp8JcvsPPT5ExB279pidPrFmdbKtnHiYCwN64ue/hxsJzyyU6LjO1shwdCt2Zcv0vFkO4IP5lmDptI3WVKqruIouTdswnlrUTmP8ASFCgYiR5uZh+ioGvIWPxOvjbXuBtGhZqo27MHmnVEWPpExrSrQjMfT02ojiVVMmnBGXJvszTBc6RcMyfqHoVG9ISWyZ83vqXYV/lgnmchFbL1Bq6E7SAjEAeRIxO7bNMiS6MMmzYlyAhhYlBNRdXKlTIi6dnz3W/THxkvjNr4nN9OiRPsHQMKqcrqvplsWQWPEzdxO7FnUtSOX0+Q4cljg7GLOlSeSvb5jnwsGrTxMZFRxfuHccRKR2cV4D6bDFRWj936Qci436ZKHvViCbjc2V8jXRVWFV8ROj45lJkcG1sFBQq52Om1uA2kA6PaD2E5Sqb443n0PTIr4kYb6VoRPZGb6xRENS4chYamo8eJzcn3HczrMmgt42Fzk9SKyt+ZnB2y8b7FDUx2Fzp9Liysg1k78fiJ6LArbknedJMRJAs0JOSfhnOQGXpbS1UE1W0l6S/p+RmzoaIFCp2hgcYhR/aJbAXyk5FBXTR+YQ5Ls5/ktNHD6gg9U+X0yqZFNV5khIBtZb1WN16cYNPtDWCBvUhGJmsrwJummXibSph5chcAHsIoarsdpvBIq/BlqdMT0qOmzG7jujUiOVjyYBon5hOhszAsYmmyjp2XGHDpqBr9DLcPW6nVNlWq/EgdAlAE8C/zBMiUVLstJUdwZqbSjah3IjlZGAJN/rOVjU9MoyHILYWAIPT9RWUnIxozB4vwlwT2juI5NgbAbxhJyY9jvI8fUVitdxNOUmiGr48zHoxcHY7JjynHW1TFZzj0ueOLix1DCqNgTcuQOh7XD/gcX6Ej6WuPI9RRf7yHp9QBD7+DLsGk7Xv2hW6FkVGBA3I4uKTImNwte4/2lSqFG/nmT5cC+oW+bj/AK7ZCd6NddVbAitpH1WNiCbIvuO06KHSPdx+InJQW612eJtGSaF6c/P0vqICDpA2o95y+o6FgupeB/7c76FXfQx0sO3iB1GHcDc9uJvFkM+aIKEfiEHnT6n6e2QEKKInJyK2NyjiiOZqtkDlYsbMqRhtIUaUYzZEiSKTL8XzHM9LJ0YVCFu/wJkyirCL3Pbcz2ZrIAngwTHFKSx1/oJIwttGk94hgUJUx6izcxqyAj9o7ASaAm4wGP45gttsRGIulfzGgYfyZPl3JA4jsjUpk1+YMQAG53lGJaFmLCWw7XHnjmIZhNCYBBveHdwEBkUFakhDYX1oa8jzKybMW66tpUZcWJqzodJ1IyIB7d+0PPkA2CE0eZxyMnTnVj/USkdQMg3feuLnZCakcso0VFjuqcHc3JNQOUhqsTVyMSPdt+IDopcvZ/aWSebDbDRkAB5mviAX76PmYraT7WJBjlWzVE3/AGgB7BjbI3ucBh8cygYdG5IaCUTTpUH8wUXfctUYCuqYhtv7Q+nzMFVWS4TY1NWDse8L1FRhSbwAoDnawLJhsoYbj9olci5HBC6a5+ZQF2LXUQCG2oAWYt8TOedK967yllDb77dhAJLgoBUAObkxlRZYbeTJW9q183HZdxd8ybJdiQWEuSrox2PJQAuToPneUY0LL232gA1GBcaTUoFBQAOOYhV0Cqv5mqrKpddj4PeAh2jUDXJnvSIJUmu/MTjzkN4NcRyuxA8HY3AD1gLp0i/MoVgikHx2iWCAUp/M16UAqb23sQAHKxzkgEX2s1BUMB58wS2n+ZQI8R9E/aos7keIwAy+5QbFjb5hYspZFGQ7D4me7VpA35G00s6uLA2EQDkGO/a677zMnve1IuoaNrFqoBUbg8wNNNZxihzcBBDWUs+1O+9GOQ7gKAAR+8RkZShHpgHsQJ5fTCANjv54uAzculke047iUPkAXahXe+ZE2XEoYKpD8Ve283I6gDQSa/tABh02SHNE3Qqew4b5NE9wIrEEZgFLA871Usxq1afUHxtGI1enZV3OreF/DoymwKu9xMHq6CNSEDwJjuzY6A52qIYZx4724PaF0/TgZi9bVE48WT7CbN9p0UTQgXxFJjSC43iSbNwsjdoAI8znk/DWKPVCVSx42ngydt4nN12PEDqYeBvEqXY9sqsINonI5azyBOc31Au7aSKHzDGU+sa4I3BMyyZb1RaxtbKiaXiT9UmtPu0iUI4YUYGXCMi7bEnvMnF9oadPYjbBiXk0Oe9yY5lz5MmIb1V13nQdQuIKATUg0+lkIChQRqsd/iRW2jWLsnyZVGoqKA24k60hsmwRLgQyMAvO8ky4mbKdQPG1S4tFpkOViAAIoll33E6XVdL6LB9mrepzerytlyFiK+J0wdlpqrCOZmTck/rFMfmL1GqmczRRoTyN6ParnS+kKpzuz/aE/wBxIFWdT6TgXJmIN0N6HeJsni6bZ0eoYZMyldhQMu6fAKUmRHHq6lidu06uKggnPBKc3ZlkfGKSC0iaFE2rhDidNI5bMAA7TZ4TZSEzJhmz0YGEbTk9e7qbANDmdkSLrcWpSfiZZU3HRpiavYH0/D/LDnvvLW2NTl/TspTG2N2+00J0R7jZ/SODXGkE4vls9Vz1ATe0FjQlUQZtPGqgFu8wP5MnkkUos5n1PEA40iid9ogdHWFXJv4lPV3ky0phBG0hewnHKez0IyagtkvUdPbKtAqBtJXw6SW4A2nWGM3ulxWXpizGhsYRmyoZa0cvBgyZsyhFNXvU72IaUbbdaF+YHSdIcZsbS0YRpPzN48pbRjnzKTo5nUDTk2J0tvOdn6UlvaDzO5kwLe/aLONXsCZbixxy10TdH01YTv7gO86SopxjbeSUcWx4lWHMGQKOY4STe+zLI29ofY0gDaCygioREEA6p07OclzY9GFwEDk+RPnc2Q4SyMtCfYFROH9X6ZHolBIlFRdm2KTekcfo2XJmVmAIuisY2QnEUDHSpNAd4lWGJlxt/Td12lHS9PmzZCmIdtz2jaOrHLVsndSpozUVa35udFegyYcgLrqBBF81JDgyFzxtvJ5eGylGRidO2V9I/wAwMmN8GSmFMJX0QyfxCqygCjztG/UsdsSCTRk8qYr+/Eiy5my1q5ocxWko9MN/BgPYMdiCZCfUcjbYyyrp0P6N2dygoCrlOj7WB2Eh6TKuHMXIJFEbd43J1OTJjJoBQa2mcoX0Km2UHKC+laFwxkt9A3nMOobk0eR5lHSPybAP95MoUhuKR2MGIaiQ2/iPGMlw2oqPEiRio1KwJ7GM/jGUb0TMrXqOSUJPoqC8rqO3FyVv4hMxLLqUnsZg6saudz/aWdNlXJ8EbUZSUXozacNs1cYdQaNHtF5XKqQi/iWCl5Mly5ERSbseYTjx6M4u2TriAp39paLzZ1wvQIptxfJjMudXBx2Nhch6qrVStgLd+DFF7Nq9YzH1JKjWPu3FzM/S4+pX+Yux/qHaRkMcgyEEBm+0RTdTT5lQMQRpU3xOmLZnKKE9T0GTp/ctunnvF42qU4upzUVe9u4ns/TWAUUgnxwZpd6ZnRqNcqxbASBCVNHapSmTaTJFlLtq27TL3oQEMNK3Y8TIYZNLXcwRtB1WdU27pR3iYxi4xk+7gTCrLsYQFACHl0nF7vuPEpMTIcj70TF0fM1133u55F1EC4WMbjFL7uY4KWBrmBW19pqMddbfmCZLBK1YMEtQ2jGBUXe91EE2bgxhczEW2uZcamyxCBYahuJHkwtjYuvHcS4m9p5k9suMnFkyjZKmQtjvWb/Ez1rIPv253i82Ipk1ISB3ELFlxlSTc7IzUkc0o0x4ygm1B/eNXJq2CkfNxIUcoLFd5T0+MswDEV2EskqV09tLyIavjsrQv8wDh0sdJFkUJmLAlacv/UY7GAB7HGxbsYl1KHZdRPcx2FPTVkbcE7XGKVXZvO0YCkyCxrQiOYk7Dg+Ynq8jY91Fk+IGLLlc2xsV3EQFAL4iygWCNt4Ctp77zMo40v7onHhcNbPZ/wAQAkxqHckihW0VnHtG24E96rKfTvnkGedQ3ez3kFE9nXwDcpw2LIBi/T8bb8xqggEE8DnzABgPN+O8Nj7aDXf7RR1HewZ5cZZqJNeIAeGE+pepefMabAAU1535m+loxNZo8TBpKDffzAASSb9pFd4QdmUhbHmvEpw4wEsqeNz5hHCoogUO4gBNVoAFNmexO2N223OxENiUyHc12i2zoaVgdt7gA9QSSuTZjvdzxYs1qCQPB2MnHW4y5JQfFjiEvU0xVas7WBxHQDR1JVxqQp5NXKFy61rUG72eZKrFsNsQd9rjAyWG1EmuIgHo41Ef09pp0jJd7eAZMXZd1sj/ABPHMS5J3P42jEFmdSCdA9u4r8z2TIobS1qSBwbuDkyaUIxgDzEqpdrBoEeIAV4ynp+1rPI2jGykOCpFnssm9ELupfT5hoMbEE7EbXcAKNwdQv3dhGIgAJ3J8E8Ra41ZwQSQI9MJOXbYd4N0A7pkOkOxNkcHtGZ8ow4yxhgUK8T57611ZfIcCMNR9oHeZds0Wik/UBldtPuANeKiW6vK+Q40K1xRjOgwLiwaTvRNkjkzndU4w9Q/pC8jmlB7DezD44hzYXU9bm9MfzPTO+3G0m/icrJQbGzncEk3UFsIRdeYFidyzd9u0LH1obKuNsYKkg2RuJSSXRLbfZ7Bn9bIyZl0sP8AT5lDdQ3TlXJJRhs0R1eg5/XwZAFx7Ot9u8r0q6gOWKadRUePiTLHGS2VCbiyvpuq1IG+OJWnUBtM+aXK2EF0IK1xKen+oF0I0izONwlDro69SO0+cEMSdr4inxHMQwYKVGxnMPUGhRskzo4abGLG9c3MmmnZfHigcHSgNu2onkmb1QCtQsG6hjKuMHsBFZcgNFSCfPeNIndkHUZ3YDUQWXYzmZfcTLeuX0yuk+bkLGdONUbJUhPeGog94xZqyILYaidX6ThLZ1B7b7SDD075HVRXu7+J3uiwP0uIMaYmZt7NMjqNDM6FOpscHeW4WUoB3nOyZ9eMEn3Bpo6nSPuoznU+E7XphLG5R2dcGbOUeu9p0tbCU4Oq1qNXM3WVN0zGWGSVllz0n/iBqqNDAjmaKSfRm4tdmNlCneEG2uYVB7T3ES5J7DQQNiLyLqFQXygf1CA3ULXMTyx6GoMnHT6cuoCOzBlXUX/QRA6ujfiLy9RrurnO5xapHQoSvZXi6gMIObqUVeZyl6htQRK1MaAuJz5WTNkx5CAcf3Wdo1KbVA4QjK2yvJ1Ls9q1DxGpnYrU4LfVF0kJj0nsZ0egzfxGMEm24NSZ45JWzRTxy0i9AGNiWYen7mL6fCALlag/pHhx3tmOSfiBoDtC0DxC0zZ18Uc/Jk+QPYCQ1Y1vzGEXFusSjTsfK9Cs7BRvF4cqBSCtwOoxM7jcgTMI0qcdjfvOeTfM6ElxHdQGzYSEFEDacvp+oZMg1H8ztICMIvxPnup9vVZK/wBRhOPT9KxbuJ9AH1IGXgzwbcSH6ezZFC2almggxqbezKUUnQ+7E5v1IL/D5TVsBsJeTpWzOR1edjkIUXvUvJKkgxRtnEw9K2TN9tm9trud3o0fE5Ki9qubhxBNZ4PYiPx9RpemFHzMZT5Pejd6TSNbHlyE6uIv+BN6jU6AIoHzCmvwRMPmaI+n6L3an/aT9X0rB22JBnWmOARuI3hVaCOeSlZ8rk6UWxoycIvuDXY4qd3r8OjU4G1TiZMTsxOmvzIVp0z0MeTmiN8hDUIxHJH5nnxjVXeMx4ylOV2HmatqgSkmzVxvlyaVOqu8sxnBhDKPvAqz5kqOEXIatjsD4hYyrjTsoHB7kyJK0VX6Nw5wtgkx6OH37RmPpCmKvawuySN4pXusdaWU/vMZJPoOSldFuLpkddRNEcSjp8LeqO4A58zE0BQpYb/MtxMq0oqKEOT2cOSb2J6hWPGwqTabwNqrflfMu6g7VRkGsiy3H+JGRcZEw2iXMgLo4OkKPdffxJ16hcuYLqpdPHYyzNjBV6JoirPE5XTYlfK5sEAn2+D2msEnG2aNu9Deq6hMftUaiVK7SRuoxi1+BVcD8mUtgcYkZgA97j/EhbpaUEUd/cfE3goUZyc7LcJXIpQ6QRuD8SobCt28GctErF9wOTaqEox9QFRSTfaJrYP/AE91GPVbqDQMSmTbmVOylCo3BFmc5yEY9gDQqUkS9Fqve1xuu6Ucd5AmSt41cm3yYnEEyvVZvxG4hvqMlRrIEsSqAEzaLGrubMR1OSzpuNd9GMmSfc1yWCGBfVAH9XmCiFQQw3EdiXgd+THZEDixswjWxMmvawNp4bb7XBa7IOxmrubPEAMckA+Yoje41z7ztQGwEW3+JTEYo1NuI3VQmKNK/JgkEmIYxByZrHaeBIAHiY1GAhbLYkb42wvqTcdwZ0O0S4sy4ScWKUeSC6V0dfgy3EQG4BAnHYPgfWgte4nU6UrkwBrqxc7IyUkcso0NfIAVAsxqKhUEE2DzJk9MEnWfzG9OQBQJomUSPZV8We0R1PqFfb/eVAd+JhCsCKBgBEp9QaCxZuT8TcQcHQUYj/EJkZCSifrcnbqGwgGjd7/MALgUDBHABAveS4M+LLlyLiYEqd5y+r6/M2dhwrbD8Rn0hFcOA9PfmrgA18PpMpewx3Pe4DW252PmUdXkTLlZ0rT/AE/j5iSCV2HztIKFFjVcn4hkMFDbgHvM2JobGGcmlQhpgO9bwALVpvWfiHiyK12tgb81JqDjSeb2jmQY8YVQdS83GA3U+UnUKHiCKVtzt4uJTMVoNxC3D6jRvxEBQWy6QVb+X+YLZw+kA0Rsfx5h4yTiOsADtFth/la8ZuzRgA3p8gLBmAauxPMZkydMRqTHTDwNpNjw1d8j5hhFZgCu9ftADepdcq0uOzzsBtBGNSARjF1uBGDGqgWY61U7DY/PELAnsEgNj0/i5VjCAArz+u0FStatwO8chA3q/EAF5DXBP4BgBjVgDyQRCyKGcaCQTvRi1LKdyK8wAPNkX0ywVTtvtNwgriJCj8VxAZlyppRRQIut4aZPdoNbcxiCdshQ3pVb2MPGq0VNH5Ih5NJGnT7TxR7zRjIHI/EEM1RQ9iqSed95bhx6E3+48yfpsRLW42Xj5ll0LkSfhSQOQ0pnzq4B/HM7qPbuG/1G+Z3cxtHN1QO85A1BFUmz3NVtIhvY5aRSgRUa38nbtJVwYsnVNlJvmrO/5mZMDHHlZGYsRSic3psHVq2QE1dA3fn/AMzQgv6xdeBg1CjsTOEeobFlbSACCO/a5385GPpS2QUFXa+5/wDRPlcjXlY/PEBlmFfXzKm+hmthOicrF8yCiQoQX58TmdJkKOdyCeKlh042AokE8/NQfQLsnzZmxZTicXVA/p/6YL1jyew+3ld5vVKGf1Kobi/MRh02Q132mbWjeEqdFWPNuL7Tq4Ot04tFD/mcFTRleDMAdzxMpw/Dq/sdH1C6FmNC+0UuYJk1F7A7ASLJ1LbgsdJPEWM5VSBRvzJWMuLiux/VZRlykrwZI53M31DdiDZJmqVCnJMxeRKkxH0w9RKe0gkXLOmVnDChRkzdDxxoq6LHWRT/AFE953cuRFCoN2bifOIMq5QmrR4J4luXq8iIgUqXQDV3/vIj0GTG5SVCusbJhcX3JiDn1iqY7QeqdsmYlmLHttKMS48fSBiQdRo1zxxJ4o36irE9Ozqd7ozqdM4ZfdyBsRObryMgyEUo9o+ZuPqGGQqt14kTi2E4ckdJs9HcxidSMfmcvLmDOFWw17zM2c7gAhhyJMYyXRn8SZ2T1422gv16sKXkzg5czArRPH7Q+iR8/UgE0osneaVNrbIeCEVZ1uo6nEuA6d2HM5/8U+QEKQD894efp6NDIQCDVwvp+BFyP66BhXiSoL0uPGEbF9Oz5d2IXxZq5rZ2DEVtLeowYGwh1G/9A8Tl9XeLGdQIPEHFcqJWRNNg/Tswy/U1B+3VM+rYsz9bmyFHOIkDY+JL0ivhdcpFIxpW7bT6dsaZ1GRdzWzIbv8AInTXF6PPyScj5NcXT5FKh9LDyJ3fofTLjwl7tid5N9S6LCvTjOrKuS6Nbb/iT/Suryq4RX+KlOpR2ZxbTPrcaqvfeOuh5nBxdTmyPu1oTpLAcCXfTepbIHxubKNUiDXSG5WzoHcT09PTUR6YZsByAu5AgCF5BakSDqA9VjPxc6OnUlXd94PoLYq5jOHPo2hNRF9O+nBpZizAcmcvrOlLZi6dzZE7JxADYVEHEA33bxTjKqLhNJ2B0HTlMYuXUBzMx0FqT9X1IwYyzSoxUY7Ibc5E/wBQz6RpucotVsTR5Fx2fN6qlruhdyFi2cagKF8zCuTbOzHClR2WZExggg6amqv8Rj1IV1d77TkpmYrQNnvcanVHHdGTTTsbxutHXOpUAVuB5h4c5Oxucnpeuf16cWpnUqha944uSlZjONaZWHsQXyqOTFK3+JzesyNrKg1+s6JTpWYxx8mXZ8qMADRgPgXPisgX2IkvSoGs5CduJ1MSBMQFTONzds0f00jgDo/5rKykm9jAy4aygBtl7czt5sWkX3nIzWmNmPN1Jdrs6cc+bI8+woLW+9QemIXKNX28GH1DWaG4I7xeP71U8Ey10dHh2UHpkLqJFeZuHp0d/UUEVzPKVYIT45lnTEejsNyJi9ujklJxWjn6yM5BqjxYhYOobH1R921cRGXMgJYne6F+YHSP6vU6WO53MEma8U4tncyZSyEkHac05HObIFrTp3I8yzrlyejeK7A48yRiPRGoVqG97V+ZMu9nNBKtCMzNjwnVTNYGnufmZgTEis2HcNx8mK6zKy16JDBqIB7CR9N6uPE+SzfNf+/pNlD69he+joMH9Y+nRDAFSeBXiIcrizu5OpnsgCYrZR7mP37aR2iiocsPuINcxpDbJ36jQy6FIWtwex8zxqq2q4b4lb2nagft87wMihQhVu21nia6I2uyoU6UNvwZD1KCtiNuxjcPUA5QrGweZ7MgY7CoLTIe0So5ofEcr3EumieQ2RLaszWjo4D37y3GZzsL7iVerpT5MxkjRMPPk1NQ/SbjXbeTodRs/pK8YHHYczNl2OxihZ5MJzZCj8meBoXMXYe7k7mIQOXGGFj7v8yZm03WxlYsb+eIjOmpiU3rmMBO+1zw9z1yIB/MbjUhfkx3YM1jQmYxuTU9kAO0ICl22qAHiTXiCPM8d9p4ihtAR5jtBAmEkmoVVAYvJQHkntPdPmPTPdD0zyPEF21NAYbkAH5lwlxZMopnexJiyqGUCjCbEpArajc4/S9S3TvTMfS7fE6uJ0YahksGdkZcjlkqGFfb8wGxm7U1XMbqBSwTQ2ismYYz7gT+JRJoSxqsbmIfp21m2XSexjcTrksUR3FxbAEsxQm+0YHE6v6fmyZGbEAVv9pR0H03LgzKzgfJE62JA4sqUNR+vFiQM+Rf1iA4eQKoOiz8wVyVXII7zxN7nah4hK2u6XbxIKMo/co3M96RbUQCR/iex2KAO55uHT+41wLMYA4dC5QxsKNyauC1sSbB3sz1g2FFfBmoaamHI8wANlDA2AAeIAQAAk2Bx8wiQxO1AbXGBlVR7SfmIA0yBgCeRtXzB9Zgxaiq8EVCsFNlBY8nvCoAa2FgmqgAi2LahYPzGe6rQ89/MIj1Su2kA8XD9uP2nb4qAzSDkA0EcUANjcwq1U1AnaNKkAaqAI2J7TfTUHkqoq+4MBCkVwxWxp+THDXYAHbe43R7dwN/iLQY9dMSG8QAEnWmo/cN/wBIAca6AFQ2xsVtBf8AaKxKxul55JHEYhxVHTUEp2IuNKAZC2NRo7iojIXNDGpHAloUjZCCb/QQGLAtqNV2Fyhca5AVAIP5mlQCB38x+JQBqreJuhpBBQqhR2gM3YcQnatqkPX9bj6PECT7zsq+TOdtt6NEe67NpT01Is/d8CTqSR7QSbmKQGL5CNTcEmbiYqo1EE8b7TaKpGbdsjzdURmbCtgrs3gWf8wMHXouRVzH3E0u3MPPjGMvlYFnIBHcficsF8/1FnCbhdgJQi761nX+GxembF7+J84fuM6PX9SMmFEQVW0gVCz6YAUYLX3bUdv7R5zqMeoAHuAV5nhj9HEaPA3scRGm0UHYdiYmNCmylvNXcxQeYaAb+3aCNhXeSaxWwgd68Q1OxMStkkxvFRM3hI8d5oWaq2ajtBFgDa6uS3RrGNsWE+I30ksBW1EgdoxWUUEUqSKazdy7F0H8jHnDGyOPEzlKlZrSj2Dj+lF8ZOr9ZV0PTDC4U0bOxgnJkRSt1pMzocxydYodiADMbchNOmzp5ulGTKNSAhRtfE4vXYRgeqonmfRZn0AFeJxvrCFyMgB+ZpKkzP8AjTfLZzsbJ6TjSS5qj4gEmqs79pX0+EOwCfcdqjMvRUWCjVvzJ5pHZzSdMnzKceHGPUtSLrwYvBnbDl1qA1A2DOhjT003VSaoA77SfH0z5Hb+WQLiU0yOWmmIbMRrNC27DtBUNqXI5NHuZUfp+QK3tHwY/wDgT6ItrA4EHNA5xIzlX1AQARsDYvaGTqf1FLBSTQHI+JXhw4zjfDtZG5I8QGw4m2xAoefzDkqJ5Js8mJcoDlSQON5Q2QEB8WlCRRB8yVFOMZArGlr2+JTh6VGI2BXTZ/MlPwznXYgZ3x4wpFuDdHtF9b/9wCzD+niM6jEMOTWm4aeQa8e4+Kibp2KUVKOgfp/T48n0jImc0hY0e61zOerno86jBnL4GIDeP1nVXD6XQZcDt7WTWrE8G6/4nMylk+lrgz4vT/rR99z4P6TuTtHnLVh/WOp6cI+DEo1AgliSTfgSDoa1Ek0DEdQ2Nn/lhgtDYm9+8p6PFaG2FizX4hKkiJHW6bL/AA+PG7NeLMCn4IhdD1PpdZTMLdtLfPzIMuUZPpTLQD48mofgxGB2OYHVvp5mfGtoR9yrAiFc5P0nqMj41XJx2M6stO1Za2ei8uJcoGreoc8BFLeilo8AAAAKE2eno1oR6KyDa4Tvp3kXV9WdBCbfJkTyRjpmkIOT0TJ1zn6h6AUkeYH1QgF7JsDvJseU9P1Oo0XbufEPqOpXJ1QYgMKqpi3aO1Y2pWkczXkOogmo0UuI6TtV1Gvjp9TqAp4UR6C0ZQoNjxxE5I2b0QohNdiZV0+D1BcYMIZ1CigJ1emwoi7LBPm6ROTIooX0XR41NuouXsige2qi9JJFcRmkkbzSOtUcMpW7bIuo6gYTRHMkOP1XteDL+o6bXxM6fDobcTCXJumjWMopWj3SdNprVRFy1hPLsJp4nXGKiqRzSk2ybqD7D+Jws6s7Ecg8Cd7Ipax2nPbEMecAic+V07OrBJROX1auAq0RXxE4HOLJenV2ozq9WQRYFgSXrxhRcXpgByLJBhB2jrhK6TQ/Ea6dDYOk1txOj07A9OSaH4nH6Ij0cha9IrvOjhyqiEc3Ik+Lsxyx8ON9QHp9Rp1WOYOA+nmRksi+86rYsWRrZV24JkeR0Tqsanck+JUclqhpvo7y5A+FSewicvpODxY5EZhx6sIF/tIj0GZsr/zKUnvJknLbOeKjbt0PyJhZV2UVIM+Mlzjx0EF7jv8AidD09AKqlkCxfeRYsWbHld2c0xvSeBIum2y4nP6+6xY8QOvcwcPqDG6V7kH5vmWdWjev/wBO0C/j+8BOqxIugqBWxHzN+TcdIXH0lOPKOrZ6K6h37jiR9R7BpJ9t83fadJsp9UEN9w3/ABIepI9Ig3sdprjdvZllTS0S9PvlB7TpsAVGw/TtORiYq48TqYs/qAk34lzW7Ig9CsqagRJR7TUvcEEEyLMNOUxxFIZiajZ4jfULmSFiNo7DvFJDTLsQ7ntxLMXA8yPHv+kqU6VmDNB12fgT12bMAH21+88DYMhggi1An9osbCh35mMSSK3mk0uruYhi3x21p2G82/ztH4l0rvydzAzJpNrKT0Ji1Nm+0wm+JtAd6uYx7QuwMG8FiAN4R2inN7HiAGg1+ZrNt+YDG91P5g6z/wDEYHqmHxc0sCswC6MEBpFim48RnTZmwZVRgNB4Jgnf5mOA66T+k1hPizOcbR3UdfTvaviKc6troE95z/p/UEA4XPuHmV5FL7XYrep2LZyvTDtlJI0mhtFpmyg6C25PiEEoG2qAMW4YnmMB+rIMgJFm9t4GbCuRuACOQZDn6fPmzfynCheLMsw42GMeo4dhyaiAh9OgCOCP0i7JOlO3JvaaMoZGW6vYmuIaldl2BHepBRqoQQx/p7gRq02kkWLoi4GgFSLYEeDPJ9taDfYgWIAE+Ms9XYu7mZMahr+Oxjd2ABVbGxO4mOAwsG/9oASsKAC38m4agpybvz2msLJ1C9tvxCCuld7gBqgjcLsO8IrZZtgK4s7w3T06a2CkC4rGcjuCASP2gAasoQkj9zxCVdYFD3ciLXDkOStvFA3KMOPKx2NLyREM3HiNbtQO5uMKOhpSfmMzYm9PYkVzvxC20gbm9jtAAQtC9hvewgIGyMx0gkdwJr0H0DtvZh4siq1hbXzGhCwzqrq9b7DtDDW66FAPezzJSx9Rlra941SSVCcf4gAyiV3xlgdiLjU6lhj3xNtsa3jMQogObK/M82TSpGxTvQ3EAPYX9fLVEDzLeBF4MYRLrcw2Mzky0heRqBY9hPmcyt1n1H1ct6ENAji59JmGrGw8icXJjZAV1BQx58SYVY5dD9KOdLXztfE91DYumw6qv4AEH1MdkLkazR3+IOQtlRsdqb2G02MrIuo6oZ8S5MR0u70FveIDN0uU5HXbIbB4ob7GVrg6fFlBIpwO3aOytjyYgmgldt2FxDI+o6TDkbXk5s1X9fiQ+iiZQHILPtXgRmbL/D5W9En2iqYd/EiHqOTmYnVfMYUVdbkVE+37+3cCR6y+1bDgeIzqWDIi7l+99oGPG1BqktmsI2aCUS277bxd3xGZENgXAC1JRs006NqhUOjpB87QRKvSXAyl6fbdb+ImaRRmHG5DFdyK/vK8Ob0MQOgGyRZ5/SH9NfGnT5WyMtlhQ77A/wDMX7s2RcTe1QS0hm0N6YODE3UZuaJM+i6bAU6f02NjzOb9NwjH1QPKk0DOn1XWImEhD7mG23EztdsnM22oo5mf2tqY7A3XxMxY1fKMqEgEyfPjyPTu1Ltt8S/qsSomMYQdJHaZNas1bSpFGPqHACubEZmwnOoBFgxWHB6nplrFG/zOpjQKBUqEJT7OTJJQejn4ei/h0LBQX8zydG5Fk1fadIgEVPUDsO00eFNmfzyOU3QBdTH3eCY7plFFeSNpaRcArpsgR/Ek7G8rkqYIQVRES/Sr6geia4j0OoXVQ43BSRCk0QZ01ABMQDVJvSzayChAHE6mRLBO/HaRZmZcYYOaGxuc2SFPZvjm3oT0+Aq7amDBuxjcurp8dqtNJ8OTJ6rGqH+od5SmZmWsoBN7HsZKa97NJJ2edVbDrYXt2keJ71DtHZMoVG9NixPaJVNVnxG3aocVrZ5cvrdScDih6RUXwd7nNz5WydPk6IvrKkekDuf3lHVBkf1CSjpx8yX6j0ox9WRjIRKBFD4nZjl9TjnGpNHIZWViG2IO86vQgZcVBvdVbCJzdCF6bJmHUJkZaJCg9/zE9DkCZaJoHaXkVx0YMv6rpPQxqaLK6fcPMH0/U+mrnxf9XExD/I7Ts5HVvo+RFosiUZx+mL9GFyXqTKKZD4kxeiUiz6f1wZEVlog8D4n0XT50z4w6NYM+L6w/w/UkYgUrY/J8/wB59J9DUL0mscsbhtMqJ1Z6t5gMLkRli2cA0Zt7RRcFiCNxByZvTSyZnyp7LUb6NzMAKPJnM6jIGZh2EpyZlyKGJ5k+YYkxtkLbgTlm+UtHViXHs5j9PkfLvYvibkxZMOUUdRPxOigVnFcVdx2Ppjbs5tSdtuI1Js6HlohTD6q6SLJ5Mvx9FsSBKsHTogsAAmPoLNI4r3I5cmd9IiTpwm/eUKuleN4ZqeLASuKXRk5NhJQEMkVBBFTCwmqaSM3bPExYf3UYYBP4ivSc51YEBb3kSb8Gj2TqBjNQsGQ5RZk/V4WfLa8SjpU0CZwc/kpmklHhY5l2nH60kdRV71OxkbYzjdUC/UbR52iv4/dsmZSb3kWUUxnZGFW2ANfMi6vpfT+0XMYS2d+PIrohGVlQoDSnciNx9QVSiTcWcLgWRPdOVTOpyC1vebakbNKjp4CXUHepQvS4nIyFFLjgkT1UNSmx8R2EDTqu5zpNSOGcr6Pet6JCk8xy5Sdwt3Isw1tYHG1ycZ26Zw17dxGrTJ+PktdlubK6vVVfzJMmXRl1H7RM6nr1cLRE5uTqmyNQPMfByZcYNLZ02yrno3rIP9orN9OR8nqeeAIPQlRuBvOgh1bkfgSG3B6FLXRC/TOh1m7O3FyFujYt7l9gHBneeyw+O0WyatII1L48RxytE3a2cHqulw4mb07Nf5iwrLe1d53G6dbIrsZJk6JlyAtemvE2jlvTJpE5X1MSkkX/AIkfVLRDeNp1D02NAStb7D5kufDrxkFdzOmLOdnK5NynCZOVKsQRuI3EaIlSEuzpYeJQp7/tJMTR4YnjtOdo1H3QmMa2HMEHuYN2ZBQxRqhAam/7RBuhUcooASQCB2ueUWbPEzkwm2GkcwAnyqBFA33lJGptPjmIyJ6ZoceYxAMdjMCnzzMJ8GEDq2P9owFuNqOxgfFQ3/tBB52jAEiidv1hgWLgVtCUkRgGIDw5gFv+ICFZV0Fci8rz+J1+mbXiBUg2JzmI4I24gdD1a9NkbG+4G4nThnemYZY+nWVi3ta9vMDMjO66RxPYeoTqAGU8djKceykgj8ToMSXFgLXZIPmMCuooEkzXZ2FoNxzAx5mLld9h+8QHGclGcqbo9pRjYZE9tEiv0MlyBQ/GkHtLum6ZFwhjlGpv6RvIKN1FTb3tzUYSuxIBI7QQNhftPxPBCpO9nkfMAGId9warcE3PBRdDa+9czCKXkD5aeDB+DseKEQG6bDG7HCg9oWPDdOSQO+3E8rFbA3rehML5PSxpsCxuwbNfiMB2saCzEhSK3kuE5ExsRobWdr2jshY4WxM5LNudtuYjEgDjp2UjS1FvEALceH01VmYHajQjlVkLFWBBFVxEHpteSuMXF6q3jTiON1GvUvG5uIYYOqgT24BgHHR3uu2882kMSQwP42g5slqqjcHcwAEMpezWnv5hlho1DZePzFgIXqhddoaoyjSdxz4jEaMevGCAST2jFNAagQ3exC9QJ/SPneeVQ2bUb/JNwANTYFgiM6dA7XyFmJsdhv2+ZUihVoRN0NII7CLJszXMGq2mEmaJHqvaTdTgGg0OeR5lS/eIj6hqGE6QSe1Sa1ZS7o5D4gHvGdIVST4iQv8ANCsSwI1WPP5lmE2Cuwa/dfY1xDZMdr7gdMj53HRfxJ7JMeMMX9oBNHUeTAdFDBBuCP0vxKCS4esmmzQrxcl6jJSkYtQAobjnzI+SUjVQSC6vpkOLWRpO205THTQKVX943N1LqSAbsUZNpdjwZrjTS2x8E+zClsWNWTNZ6FLDTE29+I3C2IY/egYggf8AmaWVw1oipmN73DbCyEhtj4jGIDnTx2qAz3ueYWx8EuwQzIykdjYlDFHptGjaiLuTUWsxhyFiL54jYopXsPAVTMGa9I7CXdEurMGA9zGh+JGqlQjlQVNgfNS7o+pxBwuS1u6b8yfSmqjo6f0/CMWIs243q+0kIGZiwv29vM62Bi2JxQJ7TlImXFq9TZt9pllVU0Ridt2UaR1pB4qhp8Sk4giqi/j8Tn4OoagQKbvOn0hVz5ImSdviE04/8Hpj00fEcWCkCYVsiprKCRc60qVI4277CG4njtPDiDZJIlknqmG7hTx+IgAqoLNpEM8Regm7kSvwpV6DhyeqpIB2PeD1AX0iCBHY0CA0KuS9S5Vj3uZ5G4xtmkNy0QZHC6lFm+PiHiZFx/cCw3IEzKmvYACB6YRWA2ZpyWjs1RNmytyLs8LKsGMjGpJ3HMSnSNkyqxJsf2liYzjewdx28y21pIJNJUR9Whyn0yy7+Z7Flx4+mdeqXWcdI3yDwZ7qifXJCDSTz4kvX9K2TEMmNia2Nb7czfFPdMwzw+vI5r9Tod9O4cFWB7ybAC2UBeTGt0/tUhrZjWnwYwYDgKgkjIe1cTq0kcb+x2fpOb1MmfDW5xnnyJHixZG1Y2OnLYFEbw/pGQ4usV8q6VY0T+ZbmUt1i503bEVGSu/z/iZ66ITo5XXYcadICGLuMlOx81vOx/8Aw9m1YCC3eq8UBOJl19RaBSXOVmofp/wY7oOo9Hr8YNKNQXba5b6BPZ9hqgnMFG8BnVUkXUZ1qrnLlytaR1Y8fIN841nQNzJOtOUKCxC35moQKa95vXZqAGVRVWJjH7bZ1RjxaSAwgsw3sAbARvVYlZT5IrfgSboc9ud68UJVnptztcd8SpJqRL05OJ1xE2Z11Uvj8Tn9PiDEauTttOrhTTjC+JeNcmZZ5I3GNKVNLAnYzaNERS4yMl9pvJNKkcqpjCl1PHGAIyeu5XBC5MVRAoTUSoyei4bDkenhPXMupZJ5gKiQ+loxzY5kmfIMa6jZPxM5zo1hG9Dsr+wntOV6wOVi0PqOs/lELuTE4kLqGqhOXI+Wzrx4+K2WYMgY2IzP05ye4RfTYSXvtOkqgKBFjx8kzLJPjK0cd+mrYiQZcSoxFbn+0+mZQRxOR1nSks1bXxNHjcDXDnt0xSdQF6Zkb2tjXceY3o+oUnSNzOcFFENyPPeF0mVemzE5W42qNq9m0sacXR08+P3hkbSx7TmdWmR2N+2hvGZetTKxdrXb2gHgyLL1DMlEg/MSi09DxxcVsW9DGK7yckrRIoeY5cb5L0gmudoSdHkyLqKkirm6pdincuhvRZHV/APE6/Qs2XYzndJhD5MYTldj+Z3Ol6U4TcwmuT0jPI1GNPsP0e7HeboXgbfMc5AXeJ4H+ZlOoukcqbYLY0Vi5smq3O0i6gs7FQ1UKqUu+uwDfiQ5s64mNkahJUnJ6NIquwFrGQpXUO3xByqCpbHNOQNiaiVZVJ3nMx9eRpV/tPM6sXImaQPV4Sw1gUw5ElQ0Z1XpwGA2InN6jH6eSx9p3nRF2YtUyjG9fmU42uc9G3lWN6XeZyRUSpmsVPA7AxSNbRq+47cCZNFjsQvc9o4bC4Cjt4h8tUkA18mYxoFu82LY20GB5RtX7zxojTNPtWBdmhJsZNkUqd5hNAG/2lJXX7ZNmU4zpMpAAd4OwHJ3m9p4g+ZSEeA79oQ8wLsCMI22jEZ2hqpAgqLaNINRgKYgDcXIOqQplx5AO8vcAyXrNukHkNLx6kRNXEr6PG7ZDlAVVPadFfa9ke07bTm9BnHoC2rap0VAdQF3HfedhyhPaMdLUsBlLgMWIHejGsvAqie0YELMQvtFbQA+fz4tI18iDg1hyBuD2uWZ219vb+ItMGM5Bzt2MgoNNWzBqA2o8x49RgEVNjw58QFxsMgCqCBxcYfevv1ahADwwY9QsnUO7GxPFeCvtANmpuOwSvccGH92nWDfN1zADwr1NYGkE7bGCGYuaT3Xe4lKqQ7My0o3igT7mUhweNt4ADlDNf24yfuN3cHcZQ4Y1Wx4v5iwuQ2uVhV7bQwDqC9hsd4hleEY2xklNW3F94C2qsA9izvW4+J7pjqVlbbTuAOJjqdZJJrt3gAzZKW2siJdR6mlLvxdTy5CGS11A7C4xFLqxCoaG1kxiNCEDWps+LhpbtZBXyLuLAbGKQqL3I5qPxraXqN3yKgAeUIFGq9z2nqUC9W1eOJjK22sWb2ox+LGbAs3W5g2AXSp7Rk5viUE1PAaRBJszJs0SM73MO08TMMybKNxi3E3qUD4yDNxCmhtvKS+uxN7OK2EDINh8V/eedgEJFGVZsQGSxJsuEDgknicEr5Uzri00J0NkUEm64FdojJtqCr8A1xGHBmKquvSfM96YwE42JO1qZQyLB0BzZxfBMty9Lhx68I2erUxSdSceWx+0LXryPl/qbaa83Wx8W2QdSGR9Q2BFC5Ipp67naW9bkc5/cQSnElVQ65CALribQ62bSukA4IG4qMHTD+G9Vm3PCwelZRnvKNQHY94z3OSuMGjyBKeiEuQGZQtjYadtu8QLJEs9JfSuiSe/jzEldhQN9zBMbhbscNR6dcekEgk1W4mojKr2m9d+ZuTMMoUAUUWtX+qN6vTiyUt6hXuv4kNmkV4dj6X1S5unNmmUCxEOhyPrU3e7EyP6czpm1oLGmjvzOviwonT6mIHcgSJvlo55JY5NohJApVFEd/M6XQ4PTWybuRUrZAw7zrYR7RM8SUmRmlSHATxFzRMBPedqOM3gTJ67noALdmUADeaLhEXBawZHTsZs9U0TNQupQHpF1aEnaWExbAE7zPLHkqLg+LsgKWN+eJmVAtWfxHnGGJ0nfmc/M7MRvdeZxcGuzrh9nooVlTckQtQJ1KeZz1yHWwYX8ie/iWxmhF8b8NHALrVB9tFt+LqHiYpj39tiUKUdFyOu/zGY8H8Qj69kGwqXH7fVEykktnz2bontitbGJTFrzKCpD33PM6vU9KE1Lua73JM+Mfw4BYnMG2sdp1wnemcWTFW0R9X1J9dQMWjSACL5nQ+ndUVNOSA4qz/AGkvT4w2X0sykUdweYX1JOm6PIB0+R2yA+4HiaVekczszIzp9Q9RQFbkkbA/MD6jnx5erV8VUtVQqu//ADH9BlTOGGWhpW1ci6HiT9T1GFsRxpiGosDfj/246pjWkd7B1n8T06Gj7hE5EYMCRUj+k5aw6a3DGdU+5LrecORcZM9LE/qmKxqGYMeFiuuByuPU5I4HaEpKIb4+YGgM93ZiTo2Xdh4MQSivaUOuoFx24mdO4UEMP1ic2U48hBsg+Imr2TtyKelIOQXyJ1FIqfO4szDKbNXOxj6lAg1NvNsUlDTMf5GN3ZZYEEuJz8/1LHjbSdh5kg+o68pXVU1eVLoyjgmzq5s+lTUVh6ktdsJy8nWsyso3va/ELADpDObuZSyS7NvhSjs7HrqOdh5mP1CL3nJz5jkQY8QodzMKZWUabuU8r6RCwp7Z0G60Bq8zD1Sj7m5kYxmvdzAOIlQG8TB5JPTZqsUB+br6AVbNntFZXyMlncXFNjYFaIAHxHMDnvJegIOw5j/t6aKKj0QZWK5AOxnU6DEcoB30zlZGLsLF2aE+k6BRj6VVret5pGClSY/5MuMFQwIFFCaDRhEyTqMjK+xoTSdQVnBFOWiqwZjIGG4kuHPqapXq2lRmpqxSTizm9b0CuNS7GcXquny42t977z6hWDtpMnz9OotSLUxOHqOjF/IcdM+VZjQF7DiF04DZgCmsngXUZ1WH0czJ27QNIxsrBiNgR8wTOyW1aLcpct6OMNqYkuo8/EsXFzvRUeO0l6Zmz9R6+2NBKOryOFcIbBHImcnujKnqIHRb9cxoAc7Tts9ICvefN9C+jLZ/vO8mUZKC77RN1aM/5Efsg2tyLG0EKVJH9MZ6bWDewE9rCgBtjMZRV2znv8OSchw9VWn2Nvc5/wBYKKRjVPfV7fM7OfTbFtlHiczNifKc2Qg6q0j5ErFJJ2b1yRz+jOUsUc8itzGt0yFT6aWwG5v7YzqBix9GTfvIFVyDJ+lLMgHBINsZ0Xf2RNf+RuIAKK3FxXULrVl+bAnlzlMpTsb57GeLdjvLWjKRGhqOGS9ojINORhNQ7y2rM0y1GpalmDYC5BhJZql6f4mEkaplI4hLsLi1N7fvGAX+JAzS1LcBfJnnazM/SSxmudpijSLPJniJvNRAEAACx4iMg9QfMZlagF8RO97d4JjomyWDR5ngSN+ZRkGtdqsSU2DRmiJGKNVn/wBE8WrieGy7d+Zmm2AHBlIQ/EKH5nm5mDat+3Exmo0YCMba5D1rVhA+d5W525kXWP8AyqPcy4f2FPoP6e2OtJQkmdvpioUaMRruSZ8/0dagFvVOpj1KxDDYd7nWcp0XIDg0oPm4rPnON00DXZ3I2qKVNdkhR4sxmNsYDXp1DtUYgfRKi9iL3XvN9FdIo6rPgipYMJGxF+N+JjYySCPa3bfn8yRk4BX2dxufn9YagNVAjUNz5mLqosxBe6IqeWgabniohiSAWHI/WVNjJxkIgIArVdzyKgLatqH3AQ8C2Cysa8nvAD2PE5RXJ200ymIX7DYAIFUN9u0er6sdISC1qSRtEkhQMY2G4EAEayTQWweYZGtRpoeABCOM6bFi+QJiqEvbuNzEAQIxgIFI8niFmLtWjcnsAIYC5AFL7cD5haFQhKJ+Y6Am9IhfcdRrj/Eoxj0wNWxhaBZAIAriDjQm1FWrebMAC1hiSBV+eBG4vatAbwV6e3BIJ/InsinGy6QfcaNCADwg1bn3GUYsYQRHT07k81zKjtIk/CkC57QZ7vPHiZNlpGE7zw3MybXaT2MZj2UkwXcAGjBzvoxycMug+4EneOcqVBGN7AzObsn8RTZFZq2Bu6/SLzZlSnZqBNCJZFYqwY3zOHvZ1KOh7uQu9ftxIcuUk79jK8+J3xAqTsP3gfwxdKIBFb/mUgVI5R1HKCYxmfXpAjup6f0ypXcXNLIcbDYCq1VwZsnZvGVK0RdQmS7ZSCf8SUKzPpU1e06j5Uz49dELjNUT90gyjRlbi77dprF0W/sjemxA5FF7EgEgXUuzYUx5V6XHuG3vvf8A7UV9MW3bUPaSB+sPqmK9Vqu2UCq7QZEU+VGn+YuTHj9qJ++3/wARWMt6GXAEBN6mN9hDwOf4hlQgC9XE96WVcrUNJIN7Sbo0rxkyYyWI7zqYegx5HVsu4rcCK6fpQGvcmdnp+m9vu79pCk5S+pnmyKKpMkx9PVjGKQcQiGX26bvtOiVCDYSLrCyuhWvwZEsaW7OZZOTo8iKCPbUuxEVtOSuUM5Ibky3BltSAd48clGVCyRbRYWAmBrkzMZgdgZo8tMyUNFlzYrGbjZrGVqzNqj0DkzSamciN7AKoBEOYY6CxYWje8DN7VJ8xjMBzJeqzoim6qZzpIuG2BlI6bDXLtxUgyIQodhRPmdTIE9NXf9AZN1OTF/DNr5O4UdphNbpm+PJTSRGgTRYXkb3Nx4MZBZhZinyEomNV4FR2BnFhhzM5a9Op3VjvYFq6jMR0LQa/iSNiyO1qY9AU2o2eTJtIzaTQl8eR7ANm5PmwFXCnfeWnIcbGuTDxoHstUalQPrZP9R+njPiXMhOpFA1eZ831Byq+lyTW1z63qA64aG6+JzB0qHV6gBudMc9O2jn+BSWjj4vZjB1bHvNYa8igUNqsd/mdRukx+gcIoKW1cd5K/QPjcFSSAdpqssWYvBNMr+lYvTDk1OlkdVTepPjygYwCmnyK7weszK/Sk4x7u5nJOPKdnVj0kiXN1aOTjshfMt6VW9HTdhu5nF6XA/UZLBAAO5PadToepohMnINTTJBxj9TW+SLhi0jaKfAXBJEZlzojUDxNxdSpJLbATlSkhJy7IWwGiWBEPpgwa3ar4udF8aZE1qbE5eXAx6igTQ3mv+M0jPnpiuuN5Qo/SjF4UOJ7IsEVLF6QFwTz8yn/AOnpnYBr9vgy1LxFPJGKoTh6fWBSxh6dw1KCJ1On6dcSBQI3SJccPrZwzz29EWDowACwsytcYAoCGBNE3jFIwcmxbYlPIim6ZWHiUmYYOKY1NogbogBYO8WOnRCS113qdEixEsukXVzP41ZosrJj0eIMGAlaHTSrwIN2OISDeCjT0KUm1sMkyXMpyPQG0sI2g6RDJHlpijKtkWPGMRsxjdSvA3jM2PUKEnXpSD7RQmT5RfGJoqe2W9PjI957zeoJ0muYrJlyYUxhQDZow3BfH+Z0ppRoyrdnznW4ny5C3gxf8KzBQTsJ2f4K8tlrXx5la9PjGPSFFTCMZtHa/wCQoqkR9P0uLHjH/txf1PARjBx0urkeZSMITJpP28iM6npk6jEA4O3BlRVqjD5GpJ2fMZA6MEJ+3fadb6Vn12vBEhzJptjZIuhzEL1LJl1rsL3+ZNWjtlU4n1bOEW7smK9Qsg1LfzIOi6z19KsOboy9t1IugNuJhNyvZwuHF0yXMnsc3ZN1IOqzuugYxYK01djLkYKShILfM5ubMqdcireke0jtfmGNbNoiGU48TgkGzYvtJWZ0tn7f0idDImvKSBzwK42kmdV1gEXtR+J0QkOS1ohbU73RrtHBxekWCIx0VFQYg2qjdxSqA4NHf/M2tM53Fi+p3cHyItTUd1K6Qv7RC8zRdGL7Len2Fy7GZz8LS3GZhJGkSpN40sFSKxmZkazp7TNlhA2d4XC3AXeETZ+BIGeuEPauowB7jPZG7dogBY2buDe1/oJ4C9phbc122EEUe2BqebHrBbvMHuP5juBUadEtEZO8LH/qjM2PURpgldPtuWhGlt/iA2+8w7C/7wCYxGP4kXXtuieBKiaOrsJzs7+rmZhwZtjW7M8jpUN6XZuf2nSwK3qkq4q+8h6Tp3eiBxLcbYsWb+YQpnSjnK0ViSx3IjVyInC21RfTY21ArkG97Ri4whfU219pQi86AtDIVA7wMh9hIe6+IQwksQMYvze0JsOkMExgs3NGSMnHvUMOQKuAmNna7Bo7kGWoFAdN1IHfvARHX2+nqX/UGon8yRg4xoFE2L3DDmPLaFA9M0RQEzFiCsT7ifJN1FZsv8y9WSrrbvADzBlxlQBS7r3vzJlZAza72O9A7Sk07EBjZG2/EnyFlNg7gxAeXqMe4VrF1qYbQmWnqv3gvjx5LL0MhIojzDAJZSxII+5Sbv8AEYw8S3voFjxGFi9n/M0Wld73owlexWnaMQOMCiNqrgzBj9N9TafdtfeGhKsQeBxDyaSv22x2qIAlI01dTzAMwAG4kyozHUu1eTKukxsLdmJvgeIm6AfiQY0AA/M8x3hMaEX3mTZokbMM2ZzIKPCEgt4PEPGKBJ7xxWwfRN1xpKJqc11c4V0ew2P2nZzYww3r9ZBkHpkbWLmGZtM1xPRHkUAg5DQHnmKw47e7OkGubMqyKC+4FVE5MyYk4Htv9Zgnejax+rVQJJscygBUXSO/icdOrBdaNnv8TppktNR4PiHFp7FKIrqxSUO85TH08iub0arI8zp561AsTvOX1KVuu6jaaY3s6MS1TB6nL7NK0FO4Ak1Hv33hb+eJmPdwNJbwJ0ItqjsdP0pxdENP/UvVXzObkfI1szUWsNOthy426IZMtbD8b8bTksNeXI6qzLyCe3zB9mWO7bD6Jhj6hSwsHap1cWJnayb8zl48bKgfvewnb6L3Kvmpjk3orK6VoowdMEI2lijaCohg0Jvigoo82cnJ7BMg6sBhtzLiLMkzrRJMx/kdKi8XZzWOl22A37RuHIBTA/mJyAlqI2m4wWJqYf6drSo6K5V02Y3GA3baQhCO8p6dtO13LjO3TOeUaWipBRh3YiGfeb6gA3M6ItLRg4sYZ4HaLGZTwZD1H1jpsLadetrohd6miXpDdHTuYWnL6zruq6VDkGJXxeR2kf8A/UFXrw7/AAYMnlGzsdS9YyQaqczEy5+o0ZG9qe5vxIc31h+qHppjK38yj6d0z5CS32X7t+ZjKLcjdZIxjS7OlrOZwa3P2A9h5k74bYpd2d50SgxtdC9hEKt5Se0xyqv+jxa2Dj6RQQQBKB06jeo9Vmt9hm0MK9FLK2xK4lB4mHCCeIxLO5jCJXxxronm7IMnSWbED0GXv+06VCoBQHkTOWBeFrK/TnFTe+/x4ijjDvXE6RwA7iD/AA+8y+Kd7NFlSOf6KqxHM8uJiDtc6JxbbxTYyDtxFKMo7GslnMb+U255PEV1OMaLTuJdm6dX3YUbkPWowQBSaqNSt0axViujrHgz22liBQihoxNrYkwBjejpO8U2okBvxOjsuEasqOYutm1FXdcwunVMjMPUJsbCYjjJgXCzBVQXZ7xWA+nnoC99jE1+FxbaOp0zEOMJJlOVAGqqJEg6TNfVHMf2lmTNrYN3nPJJf9MpRfIEqVYEkUO8u6VQLkByULO8qw5iPMeNpS2Z5E6OhPVBVgwsQp3Jp9HEzanpk9GI8Z6p65l1EB4kCCxEM8RORbHNRNtFKrMY+JiGjEqcgfRsYObI2KtWxmUslbNuF6OjsVuLc1JcPWKwALCbmyjTdxyyJxtErG06Y1XtqjRU5+By2T4nQXiRhly2wyR4m6bnqhTJ0UZWA4FQL2+IxoPPaJjTAIsbTDkCL7oYi86lkpQpNj7uJNPwpO+zl9SuPNehSvY1ORnRcZKjcXzO51HS5Hyu2KgD81c4mfGyMwY+4HiZxtPZ6OFWtMr+kYC+dH+0KNvmd/ItqB2nzuL6icGJVQUQKlvSfVVzezNYc8VwZM1dtoxyQk3ZTlxL9w5HJM5nUgequIiu5P8AvO06g9NYq5y26YbEmyDdmZL6PYoOyfPkIwsV9vb81IVZ3fUTzzU6eYqDpr21JlxFtlG01hJJGlAYsdt3h5OlNBlG433nS6foyFBYfIiuscYsyhNwdj4EXNt6Me9HL6vEfTIrfmpAooTqFjrK5O/Fzn5kOPIR27Tqg7RzzjRuI0ZdiO2856H3SzE3AEU0OJar0pM8vzyYnVZocCOQ1uZgzRDSdIqZzxzFlrh4xQ1GSMMnSKiidTTWe7uYON/1kjMJ7RY9zfE1t/yYxFrzGAeNKFmEZg32E8bL6REAWIblvHEVlxmyV5HMqoKo+Ism/aOTuZSdEnPMBiAN9hKOpQYl12AJys2c5DtsomsINsmUqR7PnsaV48ydeeILEkxmMGxtOuKo5pOzo9FlYUq/tUry9Gc2YPdfFSHpkyhtSrY7GdFMWbKy6m01v90skoxdOaJW9tiYQxaW2BPneCQUKY2c210PMap9NSrsC34gIrw5GQEOLobGt5Rj9q6iKJ7fMDdWFDkTVLMQQD6Z87GSMLIqswZl3qhA34uozSvF0eYApz2oHcxDMYAAlSAx5iGoAsw1DsI5w33bEjgHvFDGwAttuYABha2LBQdxYEnyY3HU/dYvcdpaxCbKNjzXMwpjy2RYbzcAJW6ZWZt1AVtXEoxYgaYkUNwfExVHqFSLI78CPQqCQbG+0QwArsxBXUrDtzMGpNgpIHkRtHcjffazU8xGse2yZQjBjOQAt9vNRWy5G2JA353EaD7q0Gvx/aCuJDkcgHfmzAB6JuAv5lHAi8GP00APMNj2mUmWkCTc9PTxmZZhM2ZPGSB7kxpHtAgYxbQshoEy0qVifZNnyAd9hJcwLLd1G5RYNCopyVe79pFG5wzfJ2zeOifOw9KtQFDjzOL1WUhipO86PVHZjvt2nFzMWyG5rhibI3E5D7bmdvBlPpKrbE71OFjNMCObnXGPNlCg0Ce44l5I2aKn2Zn6u3+PElLZM1CiQDW3zKk6IscgsWpreHjxjo0LuQzA2B+kFFI1copVHskzY0x5Srkj2cAd6isFpkta8GzzGdVnGdw+nS1bxCKc2Wth+JaB6WyzNkT+HRUO6sdS9rg9PlbDkLFbVqsR2XpycSqqhMSKGLVzfM0YKyh1U6WAok3wZMnXZCkuNBHGVGgiiDqPxLegYjJpHEU7qepCtyV2l3RYtO8wu5KjPJKobLlhTB2hVtO1HnMypN1IuUQHTVczyx5RpFQdM5GQAmvMzAChI/WXno1I9vMlzdJl9VAjlebFczkWOS7R2LJFqrByso3ZgN/MHF1I1nSeNjF5cQXA2V93VqAMViyKw1rQarq4+Hpokmi/JnkuXrgtYx7mJr8SbqerKdPqAF/M5/SZ0XrMTZ7KqdbULm2PG5O2c2aXDSO71Dt0vRsx/wCowsj/AGnzLl2cvtqPuMs6v6j/ABudndimECgg5IuNXpf4wa2OLGaAX09/3nV10cuvTOg6o5MOb+K6jLpUe1Qxo38Tla21/dsfmeclGIuxdR/QdI/V5Cqj7VLG4GbX4O6BWy5dNE3tt2n0zaOjwBKJW/dObjxfwuAZMK3oF1Uh+pdY/V9UmHEzEE7geT/4kpbsa/D6HP1Q1ECifzGdMRkNiReiMIZq5Nby7o00qTXJnMreTZ2ypR0VienhCnWcwIgPkVCL7xkBkUmyLqJr8GqCBuemfiegI2CTCuCwsRMaMG88VBE8o0wpNX2OybJj7ybMgb+kX5nQYWJNlTec+TFW0bY5nMfAAxKDtxEZMKFCWFCdjEoVtx+tSDrRqOkKDM1qrZ1Rnboi/h0rULN9pMcTAlgNIHmdXGAvT+5gCuwAknplgy5Aw1WRfbxNIyd7NYzA6NCcyh20KeTLjkAul2PEnyt/Jx48QYuBR24E8L9JOSQIpbB72x5euY7C/wDzIs2YWAo5lGDSUGrY/wCZnxrYpR+p0elyZHOy+wd5be0k6TKpUKJVOvF/U87L/Y24JM0ChzM7y2ZnjxB1DvPM1RRdb3sEROVFRVjiw0xWTINJ33i/VUHczzOmQgCrkPImaKGzEyhc6hhudojryPVo2R4m9Vpx6R/Ue/iTfUHVMQZDZAomYyba4m+OK5JkObIuEj0toI6x3apKxJNnvPBWJ2u5fBenbxSO99OJeiTOso2E5P0Yg9OPM7Ki5eKFWeXnf2PXvU9CoTJtswAYQYRMySxgwMh2jQIvKoreS1oqL2cjq87YdRxk0Od/M42VizE2STvOp1yswZRxc52LEuTKqF9N8/Eyg7PTg1GJNRJ3jemTXnRSxClqvxK8uHCmJ8aLqyKee8V0qqvVJZJAF7DvU1sXlnUfM2BQHNitj5EmydXrUha3PMm6jL6/UVrIS9ie0Q7AZKUnTdCY/GrGoKt9lZ1sQo3B5nT6TpgBqPAkHSJqcE3U7OAe3cTNvdGOVns1JhLDgCcwEdQLC2RxOplQnEVJ2J/aRjGMTgKBVVUj0iD0cfOAcYY/cSQAO0idjkT3H3DidTrsAGJdNbnejJP4Rl95oqPBnZjkqIyKyHjiUYmoROZNOQjsdxPI01ezFaL8ZuN1b12kuNqEarTCSNEyhdzGM3Cj9YvH7V1GZqoFjMygu9dp5j/5gqfbZMwtZrvFQzRZNxw2GxgqDxDAs/ETA0nSnzDwJQ1HkwVXW/wI+MTBYwEoW0827Adonrc3oYCRzW0cVbJfRzfqfUepl9NTsOfzOe7VtDY2Sx5O8XdnedsY0c8meUWZamK1Bq78mpPjQ8i/2leFdS+5WsfE1MxmDE6miK/Jl+LG6kMFA8nzFYlxIVbIWHwI8ZMJLEMwH4jEWIyZAL0gqO8xsqkElrruJHjOME+46a5qFjVdBrJx2qAHeF3db8Tb25F/MWHJS97HIgmypGkbSShip7yzcHj4mZEGoELuODUEM2jnf9TDGRmIIA0Vz3gAB0WCSbvvtBYgWGJI5FdviGzHci7MHSAoJNEmz8xAZpWr/eZjBKmhwf3njsTuYSmq7wAwqF1Me88d9NVp8gwypZSNphx2ulgDv22gAaDULr4qb6YoEqLE1FAUhb/eDqcmtFDzcAPaCDY7QsSWNxMBsgajfjaPAoSZOkNHjsIE1jZmTFmiPTOZ4zwklHp7k3PGeAuADUFC4vMaxneowkKtRWQhlIly6pELsjyZNKXewgeorgWPaf7w3BBIq/iTZdwv/af2nnvT2daVk3UldDKLJM4eZSHM72dtajQlseZzOp6ZiSSCDN8LSNER4vvB5rt5nd6XPrcsRsq+09h8Th6dLUZ0sGTRid0KjYDffebS7Lq0W9GwrJkO73Z+D4kXXZC+QltrJj3yel0anHYfIASe5JnNfW76TbPdcxdl41TcgV+66sd77CP6HF6vW41F1d7eI3P0aoKUe5N337S/olTBiGdUGpxSL8RomWTWgfq/U+kmPCtC7sV27RnT5ly4EHYczmZlbNnZ8jWxbceJbk6b0cKOTs39MjI76EoJRSfYdq/VpRO3ftO1iQIoAnExAWCBvzO1hbXjB+Jnia5GH8hUkOEIn2xd1tNnWmcdAC9Rhz1UZ6Jf6M8eIrKQoBMZAyAFaleAuzh/VCysQNg29Ezm4lYPdCqIM6n1VUbHqB9w7E7znYumyPjYDZud/E56/D04zUcdk3VZwtqDYk2JW6gHHiQ67stfaM0KXTClMdVs/wDadU/T0wOiKoJIBdj45NTojUdHmZcrySslP00dDiGbNkVm/wBNf8yl+tfp+h9FNT53XWwuxjBESg/icurKQmEbi24FybrOoGbNl9M6cbnb8f8Aohy2YuddEaJqBZtgJ2Pp6t0fRZOqIpsg0Ywf8yf6b0Q6lzky7YMfP/cfAifqPXevlGm1C7AA7AdpQI6vSZjh+mdU7FXyjJTE73uP/Mn+g4MWX6jlyA2E+35+Zzh1WjpXxKGYZQNV9jd3O3//AA7h0oXGxYbxN0jSK2V/Vsra0wqJd0oIxKD4ieqxBnVyNwZViFCYx3Ntm0v6pDlmk7zBxPGbmJ65nxNOwmXECPVMYbTYLcQGDq3hg2LiqtowColsb0eqEBtPCbAQBiMxrjmPfYSHrMuivEU6rZcFbNFjcbzB6SktkAO3EQeqQDYiSL1JfP8AzP8Ap/5nLSu0dXF+nuqFMMgUjHfMVnVyq6tQNd/7RmdGJovQB4BuMdvVcMws1wIm6N0g8a439LDiF5F+56h5UrGpJPHjvEA5EyakXSxNbSrMuRgiMRY3NRN2rIa4tbOX1OHQbG97gxQYawuqhX7GdOmy4zjK8VRHYTlZgfVJ4s8S47R1Qly0zrdPlONVKkG52MZ1KDPmumZiavbip9F01jEt7mpWLUqOH+VCtjp6enp0nECwi3QE7x0FhE1Y02iLNgIB0mIw5PRDgr7uxqdG7NGJfEhN8Gc84btHRGeqZz8+TJmGo7ACRZW/lkagfidLqdarpUCuJzM+HIyk8GYqr2dmJqiNFLuFAnWwdIF6fI7ciF9P6dBg3C+oe5leQBMDYmNlt5cpX/wnJlbdI5v0nMV1L83PpcTXjB8z5fp8PoZSS1zudHn1JUrHNKb/ANMP5EL2i25hmap650tnHQJG89PTCaFyaGF2icrA2JvqgrfH5kfVdRjVW929dpM5KqNIQbZzPqGTQ5IM5YbWx88x+d2yZd7Kr3MWNJyDStd9+8iCpHorSKMXTM4XJkyBFPe6MaenxN07PjcjRdEnmIL+o6gg6NFe8cH4/WIXJpXIrC9Q2J7R02TbbMGoggdxvUDULrvDzYjh02b1AHaDiw68gC8mVpdlcn4dr6UpbFqM66pox9pJ0GNRiX2gECpcykrQqc7qm0cmWVyFEhth32kPW6gpVBZMqd/aVVhqEkzMzBuAR3nPFu7Y4I5mV2bGlNvq/b9YzCE0FSwsg0BF5TpYq1Cx+AfxBKFwuENwbDeAZ2RG9k/WYyca+2iv95Ep3lwyF8DKWBI3BkTKUap0I5pKh2NpRjNmQqTKUbSL7yJIqLK2fgCeuzXYRCvvGKa/SZNGiY0mhXiagrfmKXc1HqN9pL0MYBS/5mjYV5mXv+IeIWbPaSFjUXSvyZ4tS3N538xbm2A7CBJ4CgWM4vX9QcuYgH2rOl1/UDDh0j7jxOET3M6MUfTKcjGPieVSSKq5moXuI/GVq1Vtp1JGDH4dYrcSxCyuyrk5o7rE4+pVRSYmJE8vUZDk1DE2/kShFXqZL9xB+NMJXHpkECv/AMIOPI5Or0WLDvcbqZhqIAsQEBbHbGVArss8cuTFpPqWODSQAzI539vEJMqUyML8HtAD6BQxWwKs3vDG5scRVqHGRmCg7AeY7Hqr3BQfiSUa/sQEXt4i1ezRIvneBjyLktdyFYjeB6KtkLWdze8AGWAzDVtyN4OsqePxtC0rp+R2MwkjtdQAC2q6AA8w028239ojUyXsa+ZQtwAcAKgsB+s9qs6ST8zGLA2q/pEBqt7QAYWw2gaiFLML222mIWfIFCmvJgA1MSnIMhA1DYGNY7TeBAJszGTstIyeuYZ4cyCz09xNmHcxMDAN4a0NzwICsrXRBo0aietzDFgPkxxBmnqhkzFVo1AfIQpPwSZzfpOQ5MJYm2s6v32qW9QQVKnvtzM5XZcUqIf4p26lQGXSeTUo1XiG/wAnzObixsX9x2LWP+6jPZOof1tKn2g0VG9eZnLHbNkx5y6bCbFfPmBhJ6gMG2N3IwWPVa1baySLlq/y8ZyDYDi4pR4qiyPPhXWSN6NGKcoEocjn5hZerBOQKNmicRXVb2R8TaKdbNYspz9TrcDGdioFfMBAcQx5gTqJsV/eTA7yzCGRFyihp7NK6L6RThyHq9S6arknivmNzlT9KQJfsNAkcyZsgwdM2THWrI2gVK+uYJ0WNDS6QDXzttCtGDl90kR9I2Kyc7e3ivMuLjqNTgFkxj20NpxwjOTpFztDMen+n4cYXSx/xJdVs1yp8k0TplVm2JFTr9C+pK8GfNkN62q9r5n0HS6sIBb7XqZJcZJoj+RFcaOh8woCkEQh4nWjzmj0wnaFBIu4nYA2Gi8z6EJq4bIdJA58xOYgLRkNuilVnMdP4zM2hNwDRPmJ+ovi6DpXX3NlyDTqHF+Jf0zJj6V86H2te5nB6h2zdRkGXOhxVq1HcID2A8y8UElbKy5G/qjlY8rY8oZTvc62T6t63SvjUH1XoOx/0+Jxm0hm0m1B2J7z2skVtNXFMweyp+osemL087nvN6fBk6vOuNQSxI37AeZ7o+nfqsoxqNz/AFdh+Z0M+cfTtXTYEBDinc/cfP4k1RCidTrMP8J9PAwcYlFV57k/3nzDIUYEqNTA+0jt2ne6P6ji6nEvTdQrK9GlI2Ydt5wOr6hsnVZHB/q2/F7Sq2VR7qcSY8y4kYswAD32buJ9D9FfTjKAEFBzPnem1ZepsmyTdmfQ9CW6bGxYbk8TDNKtHRhhds6BzMVp9zKemy61I8Tmtn9TgSjo3/m7VOWE2p7OieP6nUUbTZizZ3o4TG4gL8wm3gkgCAzMhYr7OZhNAXzJcvVgMQIWDN6xIkKSbNHBpbKFG9w5oWhPGWQ2eE2CIQ4gIFuJz+txK4tjQXedBuJz+vr0m3o1Iyf1NcX9jgdZmBalNEHtAxZ2tRVm9oOfGVy1zKfp+BMqkaScmrb8TKlxPRdLZ0UYDEyMAch5mdMFxZ9TbiuKh9Epw9SxzICTsO8aG052Oiwdr8TBun2ZN1aRFnyM+W0HfapZjUvio3bckz2PD6eYHajCyZNLgA2BxFy1YpSukgWDoSVI4qczNg9xYc950cr+6r/SSZXFHbeKMnZritEvT3jyjxdfifTdMbwqfifMI5bKFUbXPp8G2ID4nTjX2tmX8zwbc9BAmzc88K4JO0wmJzgthaiR+ImxpBcxeU0vzM6csMfu/eDlJOQDtMZy+ptFbF2SaajJ842oSjIv8yh4gZVAU3zOLdnRFk2MleNoZsmySZii9+DDFkfiNs0sncH1LraV9E1N4iHFtDxHSdo+VbCW40dcEEQrEhGcqADDGcdzOhfyEcTxspZgOZLm6sIDpBM9m6lAvM5WbqtRNWB5hLI3/U1xYb7HdR1+wN0D4nHzZXyOWZv7wmY5HCatr8RGRdDVzKhGnb7OtRUVoNVyDESTSnz3jOjwt1WYjYKosnxJ2ZnVVM62FFwdCuQKpPc3yZd0RL8FdecaP/IRlUrpPgznn2qVIBJ7951OsR2AyEoFH+kzl5DbGjEm2XFJRMZromyR3M6H0rp9eQsw7TnAWQJ9H0OL0sCrpN1uYpulRE3SL8ShVmu1IdRAM8gNEmQdW7nIKIqtwZhN6pHKo8mLzAqxYk7neuTJ+pztg6bVzfHn8zOryErj3IY+IrqWCjVkTUoX9pePHdWaTlxRD1HUpkxl+/b/AHiP4lgjFd9Wx27SVj72A2XtNVzoK9jOxQSRyc22Pb2YlYkksJ7Kw0AqtQDlpVDb1MyvagdoUDYAy0eIYz7biT95o3lcUQpMvRwRYjNfYSPE/wDaORrMylE2jKy3GaEoXYXIkbcSlSeJjJGljgbjwKWv3iMQ1HV2HEdfYd5Awg3J7QCaBJNTSd6Ei+o9QMeL01PuaOKtibo5/WZ/Wzkg+0bCSsd6hMaExd2F7ztiqOWTsbixAi2YToYNCqSW2rbaD0uJClFB+0p/kKgpdPn2zUgUcYIbSx9w7RmPEMHTqDlu+fxCbWun0RqHf28ykOjKVKe75iAlCPjb3ZG9MjYjzNx4wxI1OVjM6h6VyQvxAxBceBgcTVe297RiMydLob25CFM04ExilyCwL38ybH1BbOaB52B22hdR1ORMYYYgB5gB9QVrdN/71A9VGfSWq/G0cxUpWoA+R2isyK4FGwN6reSM1jqF1QHkczKIoAbHvEv1KIayEbbfI/Ih6yRZNg7gQAMCrHxxAs7+O0y2s0rfvxC0l/AHxzAYkOxzaKuxZPiNVMpXdwvihvPIgRrur7EcmMUkubb2+CIAYpI9h3oXq8wg1k1VCb6YY8TEx0WF3Z3iAxiSd+3aU410izzEri1t7hVSk7CTJlIFj2gTeTc98zFmhnE9PczYgMM8J6eiGe47TmfWnK4GABJrip0+8i63GMhZTw3Ma0xVZy/oZrpl33JJO3E6WRNtV7jeoHT4UxAKn2gURKWAKWRUyk7k2arSRz8SBcNEfBH6xfUY1RGyIKUc0O8t9MMxIsfiBmVFxAVt3Myctlo464wS+QuAwP2+YvN1Gzqp9p7SzMoZNKnayTXmcvqF0uRc1hUmaoRe8pxNjTC10XYUPiSnmNTJpBFA35E3Y0wghN7cCz+IYyMaBNgdjBxB8j6U5O1XzOpi6A4dYyYwxYCpDdLZpySKvp3RaenU9QoI1eovejC+ojHlXSV37GM6N3KqoJqqjl6LU2pibHmS5tqoo5bSnybOf0vQvqoLSnuZTn6UjHR91bTp48QRaEHIlgzOeNpX6Hztys4uPEpw7WCp4Ij3yswVBwJX6FCT5sQDWAQfMxcpVs0U1JlvTt7BcfqAnNTqfTFMJmTrNrBP4m0ctRMZYW2dP1F8wDmUHmcpetDP7yQJ5+oGoqORB5ZvpD+CmdX1VIsGc36t1PpdM5Sy1Vt2ij1Sr327yLrXXIr6QdzZBjjkcuxrDxdlj9PkP0fp+nRtLOu58XzPl8yhAy+qG0sVAHf5n1HV9auPoUYbXitT+k+X6Tpn6vqkwr/Udz4HmdyOOXYhRqPYfmGqKH3awPEq+pdIvT5gMakYyPaT3+ZNo0rZIurAjTJo630jrsfR6ly4T7/cX8D8GRfUeqTNmrDqCAVvyfzJnyMyICxIUUJmXIc2Qu3J7CIZ3sL5cX03F1GTF7cSEhidyeAP7zgAF32FkyjN1XUdXpRmOlFACjYUJV9Mw+pmFKKG9mTKXFWVCLk6H9L0R6fFqYXlYbfEqCZsKnJkBYnarnToELQB8QOqUFl0kLv2nE5OWzuhUdIj6VCi1ZOrcDxLMIKZAeCZ4KpJ0CmmqQG3u/zMnt2U3Z01fUBvCv5kWNiR7Tv48wseUFTZ3E61l/TkeMpJrvIur6gqhA5mZsxCHS2/mcnJ1B9cBje8znkctRNsOG9s0u75f14nc6LFoxBiKMDB0uJcYarJ3uPV+18S8ceLtizTU9IcWuYYAP6wpvZynhzCmTxMAAc7Tg/VczltKmgP7zs9TlVFNnepwMzhxkyk7XxMckvEdf8AGhu2BgZnQFVXVwLEr6Hpcqk5tIG/Y8yPAmUENpvVuBOx0nV4jiXGwojtM9N0zpyNpfUBmCufUs+D4Maw9oNbyXqM6rmINFQO/cxnS5jk6em7HYTKcUZNasV1WXMCuiuQNuZNj64+o+NwWpq1fPzKOv8A5XuSiRvuaqchBkbJ9pN7n95cYRcdlRV7R0hmR3IVjqG1HvE9TjYAkE1Nw4yqHqHFfHiMyZAduQd5HT0axdPR76b0+pwzDvO8vE5PQnTtOniJI3muKdyaOX+U25DhNqYOZs6DkMI2im7+IxrKmjURTKvuNyWykB6gU0YRBK2f0iTj1tZugZSfaoExpvs18FFRQJ5iX8d49tJE3SG3mcoX0UpUTZFpLC3E4gx+48y8ptvF+h3BqTLHItZFRMuBgbG48TRjOokCviUhGBJHE9oO57xcbQ+ZJlyG94rUS1WYzqMRIsdpLqZaBoX8SVE2jTWjc7OBpEiOZ8DMlhh3EZ1Wc6QosHvIjvOjHHWzVaQbu2TKWQUfA7QFXJkJ2s8wlUKmvYjipVmxD0lyqdKsoBPe5r0Q2M+mYEZXysAzcAGbnB6fF6LkEtwANj83KOkxMOj9XFVtyO23+853VMz5DYIrbcxPbIgrkwtb+iwZrrgc3IzzKfXU4BiWlAB3I5kpbeNI0so6RVOcaj+B5n0mF/aPNbzg/TU1ZixFgCh+Z9BgWt67THI3ypGGWhuXJowFj2E5mTKrqBzqG3mVdfnXHhII3rb5nJw5FbF6hOrQe/iS48pWZw0rCysFRKq+SRIuodimTSxAYfuY7qCVRFC04EkyUOkYlvNnuTc68cTHLI5hEIkAVXImKQCSRe395rLSBv0m5zHr2/My7FTysVII7eZ4fPeAAibwd4WMW1ngTHFH8wAJD2jlO8nTsY1TIki4srxsL3lCNZrzIFapb0os6v0mMkbJliNSeF/zGKxJs8+PEnC0/O/b4jrAFAzFosJnVELMeJwuoynNmZz+kt+oZ9hiHfmc1jV1OjFGlZlNgtDxq53A/BgLu28sVMZHO1bUJ0JGDK8S9QqgMNu0YOlz5Ws7qN4vD/0wttq/aNw5QFou2oGiZQilcXUe0AqFPPxG/wANloEOvwYplZkBxEkXvZjXs47GI2BzqgArKmVdz1Cj9Ihx1CppGfjyNprY19MAoC186t7g5MmkAFS1HceDAQDIuLGWbPZPFDiTnS50tmJDcz2U5cmSziWhxvGJiyZ10uMWMA894AfSnINNVYHBHeHhFL3Pz5mBBf3/APxM16F5rfiSMRlXC7lvaWIsqeYGEtrDAD0iaUFv/d4dYzlthdDcxWLpMOP3gFUbdrPG9wArF2SGFneu81GGrTABS2YMVqzUXiJLdrI7GAFlAm1q/mYAo7j8xOPJkevbp+IzUoIDntEMalCu/eaTQG/eCrKqgLx2h4RqOrxBjGoukTGNzWNCovkzBstI2enpsRRkwnabMiYHp6e4nohnhJsy27KTW9/pcpk/VfcdIskRPocewMKHUduP7x5S6i+nbV2qtpQAIRVoG2id1CmhJ82N3U+K4+ZQ4AcmBlfSm3ecstM0izk48L41Ku1kngTndXjIc2J23I5HM53WCrBWu8rHNuRuns5JFQ8WM5W0oLY9oDcz2J6fnftO0Tezo9KB0rYszE3qp1Ir5H+06mPqnz5EKgMzGv0nBLsTpLXZ7+Z3ui0dGCL16gANplPyxzqtdlnTocTlCb77cS1YhFCkGUJKgjjkzzMFNTysGnnUETFSm2Mb5cv8JVUEVEW2EGOE9BwTBSaOfk6QExGXpanWqCUB7TB/x/w1jma7OE+DbiRtid8y6TvYHM+kyYFI4kL9Loa64kcZQezpjntHJ60NizkHT7ew4k6GvcxBB7XuJX1eA5upYkkseQJB6Lkte1cjx8TVU1ZcZWqYGXNl67CvT411HGSa7kTp/TOiy9D0uTLkUDJkIUCrIEX9AwJ6/UZ2r2bAfmO+rfUzgTQhU5GHtA/pHmdi6PLl2zh/Usxfq3S7XGdA/TaIGN2xHKFOhSAT8wGDBvcDfzGJndMLYgRpbc7QEK7QlW9/EHtGYULtUH0Bbhxen0ZyDdn9vE7H0zp/Sx47Gk8kjvOYj0VRgKXevM6uHO7Yaog3vY4E4srdHZhh9bOq6qqKuqu4Mk6gYwpayCB5kidYM+YJqOlf7wOq15H0Y9wTVzN3ZtDHT2w+m6wtnXHoGijZ8x2fIv3LwTsIjDiODHRA8STPlL5NKE/iH9nSNVBN2jpY+uKkUoIAo3zMzdUzJpFWTf5M5rMyPoTmp0+gwgIuZ3th2IlU/wBFKEYLk0I67qciAIiAbSDD/wBQZDRAO9zofUs2PI+pbVgK4nMKNjNEHeVFKi8SdbPoMHXpkAVOBtUebJBHE4fQYybyVwaM+jRLxiNJttHNmjGD0AMlLZqORg3EVkweooW6qNxoEUAdporTOWVNDIvIxA25hFq7yHqeo0uB2lSkkKMW2J6xNILnfYzlMr5OnL6QFZtgJ0s2T1s6qN0OwuK6x0xNixkhApqxz+Zz3d0d2O1SFBCnp5G7Cjt2jurwlKyL/UNhPdGrdV1FKP5Ci/ye0LrMnqZPQFUpoVG1q2Pk+dEmPNjJp01PfB7To4XLqgVQq3vU5T4yM9qKv+87HS4gmtrBU7/iT2GVUj2fS2P30QRI/RxYFNCjewj8xZsuqhor9bk/Ut6iGx2mL2ycadG5mC4wpqmEloEk8L2ERkyU9G7qGHJUVNOFI1qtF/SHe51MZsTk9MVU7sKnUw5EbgiVidM5c6KBPTAbmHmdNnKFFtPO1CKOZSSAd5nKaWjSMWecgKfMByzYx2MwE5GvgVCUAmr3Em0yuhIcL9xlOFlYbRbdMrneM6fplw3pveUotEyaGkTK+IyZtNGiLAraZoJ3jeZ4jaLiPkQ9QAdrnN6vG2m0NEbzqdXjJXacx8zqSCtic04tSs7ML0czKz2NdE82J5tIGNidRPIAjc5R8ZBUq4Niu8UjhGBKgkGbJ6OlW9mDETv9ove+BLunRs6KuYgY8V8QWzDLhbVS2DUifqczIces6TyPMFszmm0dZM4X6coxEEG9U4+WydRNk78zp9FmTF04b0zp0gHfk95ISG6klU1Bjx8QvYY40mRsK73BbGQAxPPaN6kqMzBNlvaBqLUCeJaE6Z2+iUenitdtP952MYGnbicToc2y4ttrsj+07WH7ROd/2MsyIPqTNqCJWob7yH0vSwgVZJuhvOl9QTIz42xj+qiPiLfE2qltQAbPm5KlxYk7icTquoAzaQ2phte/EXjVHxtia9ZJYyjruiVMpZSNxWnuZIK6dyeP6W8gzuxtNaOTJd7IOLHaEzalN9zPZVAc/O4rfaeDcfG80MgK2J8Q8ah7vntBMwWLINQAdhIGoDxuYvKukj53junWyKF+fiLzkl6JuthAAF7Rl1FpzDiZSCU2Z0cBCqBOegoynG1TKaNIlurU018oxoWPAi8Z2sybrc2o6B+TMYxtmjdImyOcjs55MVsWnnNCCoN/E60jnk7KsWAkXUpTDkeiBRHe5Pj9TSCpFXUprPjb+Y5A+JaILE6UsgLHccUZ5OmaiT23g4yTjHvdifJqeV2YlVQntZMYFwxuAAeObEx2CgqWAP5iMYyuuhXtR4EZkxOmM+5RQ8XARKrovUqNQYb8So4hkbhtJ8CRLjyDItZCpbsBOtiV1x02QlhtVwAmfAmPEB6TbDv3iPcuNVGIhj5PMtZGyru5AU2Iv0fUbWr0fO28AOhiQ4bvda2HzPM+sUF37jvPELmA1WO/MLERixEjcneu8kYsH19WIjSpXtyZoYoTWpxe0IDUQVJDV5inY6iw2I287QA9lCMwA7cwMW2UVenjzBObUhG9jmexkvstqvkiADshbCuoWuk8AXDd7o6ee9zMyPkXVj5Ha6EFGJF2l1+kQxmNyWVADbToqAqyToMGhS7AWx2o7VKmMzky0gWNmeEybMyz09NmQAyenp6SM8Z6enjuYwPDzFZhqJ+I4ReX7qEUugXYCDYER16YCkXUJ9lO1xdIb7Jsr+4muN4GVrx3X6TfVBcgC+buI6jMAjNtsNr7zjezZIT/AEmuBOf1N23f5jcPVtnznFpUEdwdpvUY/aRctJwlTNF3aOI/3ECANjQ7Q8oIYiLE710RL+w3HR+4m+1Tq9DnfLlxYSo2PM5WJgMiauL3qdTplx9N1hyM4Ojgd2uRNJ9lxen+nffHq0jUdt7EoDhRZO05mT6pi9ug7d47Hk/icYcGkMyvjLRg8br7FzsSPbCWANKou/aEJsY/8CF3cITBxNjSEz08T7Z6ZUYgTAdbBjiIBkNWtlJ0crNgpmcbMe/ec5cBHqkjSK02T+0+g6hNSHbecfrCfRKruQdyJztOEqOzHLkjh4+szdHmzDp9g+x2upLWTLmvd3JvySZ1sC1l1ZgPTokD5+ZP6Q9YZVLJzuu1TqWQwngq2jn5/UORny2XJ3J7mAgtqqyZ0+vC5FJAYVxe5Ml6DA2XqcaDuRue0tStWYONOgWxvpCaKPPEb0uJhlUhQSDwZ2usyYemQ9PhxgvXuyMOSIj6f0fqdUbbRp3/ACZm56N4Yv8A1IZj+nEgl135scxLBi7lCfaTz2E7IxZXzFw3tA0n5kOZW136ZZQaJE57dnVCXhH6Xp+4Ehj2BlfSgom97ibmbHjIZ0upo6rESFQbN5kNuUTR3XQrPjyZz7CTR3hdB04XrCHUbDbxLlBGPSgskSQYMt5GPPbftCMnVCUrTRgwrl6hvT3aV5VfFiUEU9c+Zn07AmNXLtTdtuBD60HX911G4/W0Q53NROLmdzkIYbw8SZdQYo1DvUoOLHlyA3RlvpHE4xepYq6MOWjeeVKkZi6fNoIRdCsN7qN9bJiZV1kjgkzDndCjJksVRUxPU5Fyorp7R/UfmNtVrs5tyezpplBHNwi9C5x06v0l5sdjM6jrSMepX28DvLWR0ZvBb0dDNn8HaTFtzq/M5wzPlTY1U8py5HDu3tGw35kO3tm8cXEqXOg6kM/A7AxHUqM7vkvaxvMXGuRgvbufEpzDHh6dkChjXsYRIvUXrstfNi6PDjX7dqA+Zzi6t1LMzWWWwB5iHzfxSAOB6g2BjOnKdMQavMO54EuUr7FHHwTfow6cdO3PYQ8HVNlJN0v7Tn9TlbLkthPMFxhHDA99N8yVHRo8arfZ1Gyg4yWNCTZcikWvcSTJ1DFRp2HiJQtkzqoJFmJYyXBRVntKN1bes5GPGAx25+JMnW/zi+mkuwo7Sn6l0+U9VktSF21Ht8Tei6Pp82Leww3J7Tp+qWzzfkm3aH9Pnx5RYIBuWdNmSyUYE/mQOMGE104OR18jYSXFkyjO5Y0Wshh3+Jk8altFfPL0+px9Wp2JqEeo32oz5deoyVWg1e3zHYuuy6iFoL4g1KiVOLZ3nd3IC0P1mphOrUf2kvTs38s5DTMLE6eOjIhHlLZpKaS0YuMVCXGAxMZNHE6FBGLkwKqbxNIuYQCPxKokxjUQ+QgXGtxEst9pEm6NI0H0uXWx8VKKiOlxEb1VythtKxp8dkzavRO62Jy+t6IlWfEfdyJ1nHzE5AChEJJNFQm4s+Vdsikeou4OxgnbHuhB7N5lfWYW1M3FHYSfLlfKipWw2mSdnqJ60KOVigTb8zcuH0nZH+4DtAB0ZAeaNyisnV5WytQHc1sJQf8ASoZV/hlVCqqRXH2mb03TlFXMRuG2FT2PA6ZmCIKuiO1R5QPSadwN28GTezNulRzOr6VseTUeG3kyrRNmVdSz48np5DYXbfciIJUhSCP+JWyo8WironCZQjAjURR8T6PpWXi5y+jA6npV9WiQahJkPT5wjHbtMZtp2jPIvktI6+RF1Fzua4iMuTUntXb/ABGY8uvGT4k+Q81YB7TKcvz05ox3TObkDP1N6q0jbbneQ9V7ep1hraq442nQyDQ5LUQxAoTnfUH/AJjNqAQn+mdGGTseVKjkuLYnsTd1AuOY2pG0UROyzjo9ZozBPATQLBqMRRionVwoiMp953jVf0wjLV3vE5CWyEnkmAHk4hgXMGwhDiSy0EI7FvECOxmhIkWihspxoTIWYsSTzGZns6RxEk9o4RoU5GH3GPwAj+nb5Ii8aqNzX7xyvj1U2y/AuamI5Vyaj6Wk32sVN0ZHbUxVQTVc1PL1GLEKxlj/APqJuTq2ehjRg/8AmMB2BSaC2Qv/AG8mXY0OsHVVbkaakuDO3pgei4N3vccjZ3ykafbV0TGIfidxYDjfjao4oxUMW/MSoekQmlq7jV1qOQR8mAEZAXqlJ1ECEwyPmrS9EcxWbo8rZrDV3oGPOPMqAqGv8wALD07qvupvFmMoCl9orxEaHYhymq+wM82JtQ1LRO/PEAKxmCY/Uc7L23O8oXM2hWyIAD2viY4CYC1Cq235k+MvlRELAe3cAb/vJGWAK26Eqa5iMysMZGMe4/O09jxFALJJHfUZg1q9pjABB3PmACRj0409amYncnuY/APc1LpBs77Rqq7KfUC82LhnGCRQHHY1AZN0+f182VNyF7jgyjD05c4xuqqNxDCBSaEqwrpSzydzJk6GkGdlobRfJhObmTFmiPTwnviadohmGYTPGYdzEB65szvNEBnu08BPd5sYj09lQMPzPVvGOLWNK0K6ZPsHIHM3ZvbcwYirlibBmir27SFfpRJmxFCWDGzzQkXUdI/UUL0gAidXIygnVJTTNXG+285J/WVxN4ttbI+j6HH048v5MDqwdJFzo5F07iRdUAF43Mm25bLg7ZwOpHvuTg1cq6v7h87yUjfaehDoMnYSAXdyl85LhkXSQBVdojFsdxdihGK51lVoD5MbHF0W9OuTPkSqbURv4udbFnXUenYgaVB271Ob9GKr1La8lNpoA950+q6YnArKBqNWxP2zJxfaCTTfFjOqyE6WHFRvSdSGIVtmqccdUqtjGW20bE83KSxxZwxHyJk7jLkEsf1o7oNwu0i6XNr448Sxd50QlyOKUXE2ZCgzQk9MmmZJAxhYqczL06tmo/bzvOmZB1d61CgXMsyVWa4m06OF1Ws9VkXGPj8RoJOEB1/Nb7iGzoz5MZADVe0Qnqrk07KgF35md2d72hmEHN/9uwRgN/xKcfQIj25HtF+0TXw4TnXQyhgNq7w+kdunc+uoAybCjFfhhJVsmy+nnz40JomipI5jnxDK4RGX1F5o0Y/EcWsscRR+xIkzYhi6z1rC7+eZOkilJsv6Xp2x4tGuzW1niFoGDGwJDGt9p7AKyh2oqw5k3U+qnUuyKXDLQ8Rp6sz25Uc3rXshjZFyfHebMNCzq5OmvGocBmPIHaN6PosWAFw199xHF6o6flSR7pMhF43+4cHzDwZDiyMzjYwhWTIdO0PJjJWv3MhNp6MXV7Jerz+pZUVF4MeTqKLkhbokyk9MS0PMjhQicAR/rZfNJcYkhwri6taNqpjshbPmYHkcQk6Zywtdo44W9VWUaa7wSb8JlNWRYy6Y2xaaOq7PiBkwt1y2hCY1O4PJl2bpsjvew7fmCOlfHgZFrcTRWn0JyT9OJnzkomFBS47Fj+qF0yhkdTsACbMb1P091XWNze8jXUoYXROxEd2dcOLjUWPwFyWTEuoCaUzPbigE2IHYx30xGTKxbfGRuR8xnWNj6ZWGBwQ43HeBPL78URL1brdAX/iAcjkWW5iNW8owqjKXevAEGkjW0hbWNwdx3lyZMT4jkJLZK324kzKmr7SLFfrHdEqYRkyZjsKGm+YPZE36SvvZUHYdoA0kE732lLuvr6sdriMFsajG2RSCK7Da47K5CkUP7Sa8TcJ9HPqI+3+0fj6fI/TnLp9oNWf9olReRhq57mFkyppodj6048qrlZs+vytXCyYca5gVesOQb9jJM7Niy43QavS78zpYMLZ2cK41IystdrG8p9WeO7jJpCEw4MeXJlNMoohydxIcZTN1OZb+7cH5nV+o9J/FYNONyrpyvYzk9LidOuK5BpZeRCNU3ZMr9LOowFsKZE9jKN6gdJiTNkOohXcGj2/E6BX1EOId12+DI3wZEwoin+ao1D8dxBdEejsuZX6dC7+/E+jadTperWlVjdjmcIImXDl9EjVVsDsdo3oc2vED3GxEf+opM+oBB4mzn9B1BP8ALY8cGX2JadoadmwTxCnquMYljUxPewELIhI2nsCENvIfdFeFYAA2gtDHEWxmzMxTybI1SlzcnyLcykaRJMvT+rjZv2nD6nH6WYre0+rxgekUM+f+q9K2PLde2ZOPFpo7f4+S24s5vx/ePwZTp0XQJANd94B0MbI0gDt3M1gpNpfFyjpq9H0CoEb27D8cxXqlEBAAsWbk+Fn6jECX0Ou1+Z5+lfIw9TIdIHaS2zBRX/pnP6snPeRUIHG8HpunLMCQpHG8q6krjxDHjDAX3iEZsOQWAp5s9toXaN4wXHRV02U4XZDtRqoXVZQ7Iw7TnaychINtdxoJyHSTuPElxHwV8jv9M4GNWHePzYhkSzttI+hpsSg9hLh/0zMq1TOGepaObnCqdKgmuZxuuZS2RAaquRvfednrjoxs4qcLqEPqnJq3uaYP0c9oiZTq4gslC4eQkORd+YDtsPBnYrOZ8UCigneGEpSSO8WDXeOBJUnnzG2yFTFupXbsd4A3MbkyajQ7QAI0xVs0CFMm8CSMIC4erStwFg5Gs1F2V0CT3mKATZE8d9rh4cTPxdCaJGbZVh6dGT7LPi5TjxriWzhx/qYhFKkaQ5P4j/TV92T9zLJH4c2IodsaMOamZHxn3nMQa7CKbpFr2BQPO81sSBSr5FquyxAHi6zGdCs7Hbk7VK9eAglW383JB0nTk36oFcV3j0XpxiZWYsF33NRgbj6pSBQQEbaYfr63IpQF3NSUv0qOCmNNPeyTHjqsWAAoBR8AwAR1GfRi0Am7uxF9P1R1AB3v5O0qHVam/wCkCPJESw6YZA7rp34gBjZqPphnY/BjE6gFCrWfyIC5NL68RQJdaiIp8+Q6tbs1/wClagB2Vy5chZcbBaXiro/HmBhdkJVt9XBPMU/UZAxJ33q742h5R6uJGWrDDiSA8ZjpClif0jkOorW1izJiMWEDWbC+eJRgKsmoKPzEMcBYI+e88VVSHAs8ccTdY7GhwIKFmf7aA8wAfiW3J5FxxNCZjFLfmebc1MpM0SBHmbPTOZBRo5uenjxBJ3oQYHiZ5Z4T0kZ6+9XN7T09GBtTJpM8N94CPRp4ioxd1EuJMgW4i1WiY1uID7AxSXo0TdULT7iD5Ej/AIdxn1azXiV3qYgz3tucUnb0dEdKhevUOONpF1VnjzLXCkmj+YjNj/ln57zFNp7NINJnz31BfepHAkonR63EdLbfic8L3nowdxKkt2MQKRuSNtqHeeKj9Zi7mMta/wB6js0ihuBhidcjE2rA1Let6xyHQkkMbHiu1TnAmxR3+YRBVgjm9J4kspRV2aLyFQo3+J3OoUDGhO5raS9FhGLUXTa/u8zqZgjqtb7TKb00Z5J/ZUI6Jicum9xzOuCAKnMx+xwapuCfMrzZChBJoR4JJJ0c2VOUhxbxMDXJ/U3u4xXBmymmYuLQ2bABhSyDxnN640CANzsDOieJy/qCtqBF3wKmWb+prh/scnMcisAQLPBEzqFyDGAzd6O8Zmxuep0sQq8+7tH9YVyYseLH7UI3auTM14zvcqaSJOmGXA4ZlsMvPxOhjyuMPCs92tiTdAzh8iZCNCDv3jDnVWy5VX2JvdcRSTvRnOSrY/6jmGXIgxknbeonMr420uoK19x5k+TrsWFbA1ZiQQCOI3Vl6npGz5Xr3gtG4vtmCyxTSR1MSsOmRgao2fxJsufInVDStpwf+YPT9embBo0MaFGV4MQCqx7yGt0i6q2wsCnIAx5HmOyYwQAP7QSQMukA/mGvMpUlRm36AmAL+fMZouMQbTTNIwSREpsVoueGMbAxnMICWok8mCaE92niVuu83tLJYJW4QXaeE2FBYl8YIO04ebpw3UsK+4z6BvtP4nHyhtZNAb8mYZtNHT/Hb2KVDjxgkMVUUQO05nUMTlJc7kyo9WReM7jkbd5EN8qkiwDZEUf9O6KcbYGmzLunRXUox01/kyfCFZzqUnY0BL1wHHThwuw9pO0bYSZNkwvi2Y7jwZLkdmFdpbly5Ooatr4iXXQhUEWNwZKdFu2qfYx+oRsBxolMFA23/MYqN/BY2chcQJFdzvJOlbR6jHkCwYb5TkRcH9RO19rlNGDfHopPVA9J6CAc2KkKo2rfYDm41QOlylWIYjuI0n1lbKU22AJk9GipdAt02vIjKQqE0TF9D1WTpA+o7L7WH+J0OmVsunHjHyTIvqvTjputv+jKtN33lQbapnm/yIVK0b02bMcgtQce9NJ+rL/xKtYVxtqMv6d8f03pAmc2XGsA9vicjNny9X1GsgLewHaWo7sz5WqZ0em6q9TMtZdNftCzXqxZcjEBlFn+8j9Nh1QUOCzLYaOJydWgwCg2NfcD5EVGa/tsVmyAOvVLXuJDKJT0eJDmLURhYGvzE4/pxdmR2plWzLcITB0pci9NWvn5hyXSK42JwdS69Y+Fj9vc953sOfUtE2QOZ81mK5SepBND2t2NSnonyY8IcvaBabzzKukZx0fSqQRcOT9KwOJaNipRcpbRqz0ICpgM9dRiC1QGM8TAJg2FGGZpnpvAkjM2Eh65PUxEEXLpL1TBcTMewky6LxupHzqDDRVrsXMRA2T7SFY1tFZP+ofneV9Liy9QzUdgtWB/iTR6tpKx3TMdQQHUo3Ud9hLBbJquh4k+RFwkH1CtLWmuIK5lQBWzWOLrmZyb8M2r2hHV+7JQBJBr8yXN95prA2BMsdPd/wBRtS/afMgyXe28uJoujL0gG95Z0oDJxZu7kw6d3oaSJ0MeBkxhVvaTkkqJcqdFPQvpYoTU6mO9pysQ91kbidHAxsf6Zimmzly72L63ErLbUQTuJweu9hVUFKPA5n0fU6cmOtz+JxfqOADETpbbneXBpTomP9TiGsvUhWOxNmB1YRc2nGbAjCCSWra63k5U8zuTOWUX2YosxwVl44i69oMzWx2vaD2C12a4AbaeEyEBGI0CEBZngIdVJbKSBOw+YkmobmzF2PJlJEyZo3Mr6fVq03VxWEYz91/oJQGwhQAjkjg1LMxqHKBWxB8zUGQ8MF3rYbwRnVxpQMPyamjPkwUgCn5MYBlMwJssR8mZo9fGw0uXHawBKPUJVCQm43IN1ENkfVWyqdtREAMw9K7NQRR35Jjj05GQBsgAPIC8QVzqmJg/VEVtSjmYn1FMW+l324O0AKMCpkesQZgDufMqydBhK2wbi61Tk9L14V69PYmzvKR12UuSOnOVPjtGA04enbIMYsVuSGj16bEpA9NWAH3HecwdQ6szfwg573H/AMZmW7x18AbQEdIJhWhjXGD4gspI9wTxVyI9RlJV/TI7GhDObIWHtonuagAZyLvYYbijpM8XCY1K7+4AgTo5MWo3wO0BcJI0UKYVZEkYlseon1GsXsDwI/ChVNNlr73tBTEre2l1AbyjEugFdNDsYhmpxsQK8Q0AOwABPiTuWGXSNlI5+RK8LamWJ9DRQBpG0CGTtAmLNEYTNAqZ3hRIZhMyqEzUL/tNJA2iAybMG82Az03gTwmHcxiPEXtNngJ74iAw8RuP7Io7xmP7JUOxS6PPxA5WBlyU5HiEL0RWmx1SJyNyBsfMnXC2NmZmu/HaPysVYjbeAX14+bszikltG6tC0JLsK/WZmNJvN+1gBz8T2Q2KP5mVF+nJ6rclR4nJb2kip3MuIMcjcAC9pxepQqSQZ24X4ayejFNb1cMLq34F0SYrpzavq5A2hA7zZihLkrLeo6V8TWDrAA91bRAyH1k1C6oH5lGPqgcXpE0D9xPeGMeJ6XEC1En3UKkN12aJN9nRzsgxsEchUXYAyTD1ehvcdu8FFVQQG9wsVzY8zOr6cYlXIukg9hxMmlJjhFL6s6+DOudQyj5EpfTlQMeBuRPmMHWZMDe0+3uJb/Ht/CkLRSiP3lL69mM8LvR0yqZFLo1qPjiB02Yu7LXE5PSdaQTjc7MK2Mt6bKfUCAcmR1JCljcUzrgwxFCwOIYbtOpHC0E0lzqCCT2lJNyXrSRhO9SZ9Fw/sc5UXq+uNkqFXehzMyj+XeJ9lFe4ROPK2LIWB9xFV5nuuyL0uPQ+Yes4JI7LMFFyVI6MklDbJEUN1HqZCdA3AHxzZh9T9Qfqg+Pp19PAfaCNh8mSumX+HVvsGQUo7uP+IlsBXZst12E6Yqjhnlc3sBa9QBdzfPmdLqPqC/wCdMikGjqvzck+m9Oc3X4lIsBhqm51K/VMivVNka7HG8fG2TZ3Po+PV0yZGFBu06tb7eJP0iDHhXGv2qKvzKkAqc7jTo6edgNbCoxFobzQtbwhUIx3bE5HhxMHJ+Zp4mVc1JNm9p7melIQgoS9x44mVNjSoG7MmTxmQEERtI+owgrW2k8mVxfUC8DSJq0aY5NM+c6nCoLOP6T2mK+HB0xdCGyZBVeBG5TWtcpIRvHec910gG9zvModHppX2E+ctkXIAAVAG06aPopsq7Zfnn9JxQx0kDgmWPrHSoXYbmxfJlNCdN0ZkcK5KE8zAwIJO5imPccfMG/2io3PF6sDzGLifIGzlyT3JiwjMNgTOkun/wCl6QPcu5g3RjM5tFmFnmMGdlGkcTMPT5czAKuxNX2EevTjF1IV7em3rvG6RXJdHQ6FnTEMyrQqt+8zLjHXK2NzparUnsZRky+sEw4UK9qnlUdGW1UQTYJO8x6dp6OSX2TvtnGy+r1uchlb1U2CCgFqb0+Lpnw31WQL7tN3sKlvWMfUHUYFGpRfG8+fZHbKMbk1ft32nTFqezhknF8ZFXpoeoL9NkJVPtLf1fia3UOvVLmxrT8Ntz5EBk6jp8S5t9CNpUHj9ozDiY4imSwch1Bim/6GVxJaTOqWXMofERqH3DvXeT9XkDoroNJCk1e8538eMQxlFYOuxa+ZZmb1ukyZ8YKlvusUR8/iZ/HTsXJrRJh6kPkbHkI0vsaHmdno+mGLG66rCi9+OJ8/0gLa6G442ncDkh9N3kUAjxHk10SpVLY/6R1auXwhrCE6d+17Trqbny2HC3Q9ViylhRbQQJ9NhNqD5lJmkXaHgzTxMmyhgbzKhGek0Myt56bMgBhkfWqxwMFlhk3WUMJ3ky6Lx/2PnXVUYDQLvkzpdHa9PQFBdr8zmuwfPbn2AgGdXG2oMFrSPtqZN0rZ6M+kifqcepSW1SRcQLFWNL2JnaOAMik8Gc36hWIigTvxM4N9MePInoXkRTi8V3HBk3ThDlAbnsY5mbMqoqhR8Sjp/p96S63LulRU5KMdluHp1KgcmGUGJBrFfMbjbHiXSORtUHNlRgFJFHiZOmjjttk2UA3pNHtHdNktKNWOYsre4Ow2k4fRk1Di6kxZbVqjqtQuhJOoxI+H+ZZW7IjEyh1FGxEZm1Yyq/duLjfZnE4nWoqOzIQUOwo7iQ6dZA4lef2O+wckVfYGTLjcm2O07odEzMyY9rHEQfiPzNQ0gxI5miOeR4CMVdpiiMAibGkao2g5DQrvG7AG+BJmNkmJbG9AkzyozHZZhIlHT7H7SZqkYtjEZ0Huxj81GIHyEEaQOIORnyWBhv5MzEMgalxpt5liMyK6ZCLNfIjsfTHL7w+sjtDyvlCWNIIG9bz2PHkdNVsSdyQIAUL0mUgUdIre4v8AhdTEu941NEaqmek5FF8t/wCmD/DtrCgkA703eAB48fTgNSoa7M1/4kmTArElHH4A4nRHTqpJ9qHzMdVABXSSxrZYCEdKiDIqDUQBew3M6GXOmIDTiYAj+mgIhUFi3yaT4oTOowYyNLllJNgltoATt1iEsHVmWyPvnh1JXGMYxK7edVmLfolUjTTg8Ax3ThcTG8WPmwPPxEM8epyNSMqgLxZh/wAWVK6UQ/8A6kwzlyahWJAnhRvFWcZoFzfAHEYjtNlCgjYVt7oxDSBi21SbL6ZosShPeoOPNiNe8aRtbDmSMsChj8fA4nhqQgMWZeAR2/MwMqnsPBvmEjjgEEHvcQzz+8AA3895VhA7RIAJK94zAmlidRo9rky6Gh7bCBe0JvtgiY2ao0TD4mwfmJgeAs32HEH7mhcCp4ChEM2e7z00ShHjxtMnuZ6IDTxMnpggM2Hi7+YE3Fs/5ji9ifRj4byaoVVGGLc0LlNJEp2R9Qo9TVtcTvdDauZvUZNRGm9z2jQoCmhzOCS5Ns6VpIlYhTqMRmykmxxG5hsb3kuQMMZNcSImlE7dUQTfEhyOMl35hdQ1AyPUbnbCC7L5JDmCp9o2reK1HXtNDHfePw4CpTIVJF3+Zp12S9/1BGNzuO06PSHGmEkNWTggx6OuTT7FDKNJobCI6720pC6juT3mUnejWG3QeEPiyMSR7hdeZS/Sp1OF2DAPyo7Tl48pDaeSe86/ROA1dwJlK4srJa2jkv05w2zgEeLkxLCwpO86PUktlKG6v2yNlQITdOGr9JtF2XVoViF5FBbTffxO/wDTijLjdRQugSbJPefNO+8s6XqnxlaY0OB4jnHVmD+/1R9Y+QruKi1yq7kBgW8DtOdj613fSfxOl0+NVWwAL52ijkt0cs8XDsatn8CQfVMlqEvvwJ0gKvsJw+tfV1BZyAqnzHkeqJxVdsnxpkGTLktVVMZJci9I+PmSdB0g+odW+XJr9Be7GyT8/Mdkzt9RzHpOk9uHnJkrkf8AEzqvqGHpek/huj+5fbfj5/PM1hGomOWfOVi/rWZBn/lmio0iu05YJO5JLH55gor58wUWzMalaDD0n1BNjlXE3uI7kSqoyot6BX6brMKmwoI9Q/6SeLjfreNMWVso3Lb2D3g4OpTGuZnBLZ2LDa6A3Br8/wCJFnzP/wDTRjyXqGc7nxUSQUfRfR8xzdIpbkbGdI7CcX6I9dEpJ2ut52EIeYTkro3jF0GDYuaOZqrU2pKix2eXcTCIQnpqlokzibe0wzeNpSEenp6ejAGZNnoAei84JxMB4jRMI2iatUOLpnzfUYibDfddDeT/AFDSnp41q0UA/mdPr8WnOGva+JD1vpPjBK7jYTmi6dHpxk5UyDALzAHudvzKuoyHL1D6xZXZQvA3i8aK5Zl/l1VVyJj4nREylh7+N95q3ZSVPYGRroEURPY8bZG0iYbbJZNk943QyKSpveJ6NAs6DBmUI11QNeZZjD72LBG4koxtmAY3sfHM6AxlCQXst28TGb0Zy/AMYOFSFUDfaTPnK5tTGh8SrqFK4CQDdzlZmN0woiELl2Ea7K8X1JsWYuFsRmLqX6vMWYX8SAY28UPmdroOn/hAjNROQbt4mjiqpCnxjv0embCiF2Asigs+f6zCmQl8QoA3S9p0+vRsub08Y71Qm9djx4MRTRVKK09zFFtbMZYoSW+2cd+tbN0f8K6gaSCp/wDfzPY8+XqOo6fHmfQEarAqof8AAtmcWyqSLBuR5FdBRYkXOlSTOKeKUBnXLi9R/RB0htyYrBnzE+imSlb20x2qHjwv1FqWNj42/WZlwHpMmnKpB/Mrwy2x2BT03VgaldSaOnhhcbl6jN0/VMmP3XVEi9oxekfqsC5EyhtO2huV3ic+rHlRtPux0riQzP8A1jOpy5cmIqynWtEkef8A2p3vo2ds/SqX+4bGcRA2fqDkI9pZb8Dedf6GPSXNiu9OQgH4iiOD2dieMw7iejZsenpk8IhmzN4U8WVBbED8wAW50jfacn6i7uVCi67eZvW9Q7ZSFNnxID1WTFmJyCqGwuc9uTO7HiaXIjZavUCD4nW+mU/T13F2ZzeqyB8hYGz3nU+l46xD55hP+p0ZX9S4sMeIFr3F3IXTJ1GQ6QSvkidXqAow/be0HHkQdPeIb8bjeEo1ps44ZK2ls52D6cMb2W5PBnUVUvQOakJ1OxDEUDZmtlCfzi3HzIjMc+Unsdlw70osXfMk6jESpqwQbAB4jcHXeqdWkhR3MDJlT1GfUKIqvmTKk9AlKOmS9OAlgMxDNdMbozHK6wL3gdRn9FUcJYJ3qHkJJ1KvMKfZoYuU4rUHZh+0ViLYtZ1EgwcjC63uLfJ7DvLSEybqarXZu+IjXpwlj+kZnyl8QU8A3Jcx3VfAnXBaOfIwCSeeZqiYBZjFEtmKCAjUFwVF7QydKkzNs0SFZm/p/eIYzWYk3AIM1ijKTDRSTVby7FrVSAv/ADJsWI1dH9470yWuyv7zUzH48ZcHVQI+Y9cQFAuCfMn9BUUG71d74lC4MbKQrLQ7k7wA96ILgequnlmB4gsuCzWZh/8AjuIz0sQUoMgrk6ZvTjABSe4X4gAeL0MY2ZiefMdlOtAVUal42m6cLbadxvxUw5EXJoGNtfkCAjDlxnCx9MA1upnKbqTj6j2JpHFCzOwGo2+EAHbeollxnqGVhjBG9kQAiXr2ek9Mmj2EpIfNjVsiMpPmCcpTN/LZSD3qPyOpC68t7QAWmoHQ6A77dzG5ArKtaFbwd5uM4lUvrXxRicuZVyHWmgE2PBgARzvoACoPJAnkTIzktkF1YA7RH8lwxUE6jvUYmJMbanQkjvr3qAFCYQ39RZlF7Dj+8Y/TYyigHUdq27eYeMquEFQt8EXNRXNBiQBwAZIzXxtlxaRyO5HAjcKeljrVufMbjFVqsTFxYwb1Ek87wALU2xPInumdjlOonTe09lTTjZlY2BYuEgXSKJHyYn0NFZ4mTwN7ieO3E52bIwntMHmenjxUkZ4bmbMG0KMR4CYxm8bQYwNE2emMdtogMmweJvaIZ6eQ04MyaNt4LsBzQHG0Mm4tmrmaSIRLoptRFVEZc4Unff8AMtyAEUJz+o6UkMbucc4tPR0RafZhYuVarHzJesBD2TdiWYk9LFpJqhsJHmfWzGx8kzNKmaLs43U/cRJwJT1Hua4qqndF6NGrGdOgJXWtqTRo0ZdjA0HTiorZ1Hf/AN2k+n/7YBVJ+fEf0pdUDCgBsQTzJcvwvjo8vVlcu254O3IiM7a8jN5Mu6dArZcj0WPA7/iT5OkyJkDMo03Z+JNovHS0L6fAztdHbidPCwXGwApq3kY6gDEwr3cCU9HoOE5n7AiZTTkE1q2Q5szPk03W8iyEw8zfzGPkxDvc3hEWSaSoFt22lfSoNW/jaSIPdOn0ihCMrEaV4HmVN6Msa/8ARf0eK8oRjx/edsUo+JxtXu22bm4WXqsqY/eTXxzOeM+LIyQc2V9V164zoUgsdqny/wBQ6gnqtJyWpPu0+JX1LkI7nuLBPM5CYsufW6KWCC2Pib4lyfJmOZLGuK9LW69cHrY+kwlMbpp1H7vzcBOnwpgttWbNkW1VOF/MRjTJ1fUKuoashrfid3rHT6T0Ax4gC7jSTW5Pmbu/DlSOJ0/8hcuQ7PWhfgnk/tcd0PSY8j+plJGNFLvXJEnxksup70g7zudBk6P/AOn5WY0QQW7EVx/eS27IvZASelxBidGXM1AXuiX/AGuL+o5sWRUGIiyxZ973oD/aR5XbL1OpyTbb3O430UZ+sciseLGFpa+6V4NFOBRixY8QIPsBH6idTAdA3NzndTjGLIGWgqqABM6fMX27AXYM4JanyPSULgjuhgRtEl3GU2KWuZHj65MYHqsADtLdsi7HYzdS5q0crjxdMarWAZ64KjSoA7TZaIZpngdoLXW00URC90IKYTPTOYwNBBniJ4CuJsa/0DILHaYR79V7ReTJvJ5FJEPXqTZAsgTh5sWcMr5G2PNT6PLqbCdKjf8AefP9ZlfUcZv8TnWpaO7FtUFiRnVjhUk978TMl5aVthjHjgy76TidumYqBqs/meyIdZxABiTuT3McvqaKf2aOf0ip6pZhddvMdkYVYShvx8y3ImHpsRxn2k8EbmBi6eunDMNRbnV2kyfoc03ZPj6kYMVctwB4nsGvN1Id3K+IXS9Jqzsr+49pb6KhgqUCD37yXJeDlJLoHIQFZW383Odj6cnXk02L2l31Lpn2YHYfdBTOvTdMEIsj9zHG0QpfXRGpbL1CYlOxYBqnb6sounDuPbsZyMOIt1IyJakEEidvqlxtiLlqYcGar+rojI/siToMbYzky5dmOwkeXIM+Y+ryeN5Zl6nFqY49RLLX5k3SdMmbqrz1XYSbTpIuOrnIj6j01dFQ3YFn5jc3TKMGJMuzMLsDtNz6v40sFsKdiB2g5ny9WQVQ6V89oXRVXQHSYXxdaBiYEDyNiPmJ+tY9DYzpojsOAPj4lvTqcbq3idIJ02bAVdVPbeXDL4ziy4UncT5zo82TpsJzqGI1Uw7EERTMU6q24ye4X8zo5Pp/pZAq7YshN967zn9TgxYOqoZBkTYhgZr2cbi0yvGrY2IBJQiwBOv9ITJ6b5XO7uTXxIukdciHHsdQ2Pf8TudLj0YUHxIjdhBUx4njPTJbNj00QYQkgadhZ4E5n1PPag42+2X9QNWBhxOF1j6mUb6ByR3kZH/5OjCkvsydOoZmZmcqexq5P1AIyGzZ5i2c2SOBFkxKJ3QyKVtHmNzv/SiSKar24nz12J3PpeTH7Alg1RvzDJ0RkdxZ3MmP1AL4iXQ4kBFDff8AEfqZcfnbmRZMru9WRM8rit+nFBNgPp3NV5Miz9PkzFUxMCvcSnO4xqT3qJ6brAuoZCov7SJlG+zoi3HaHDAEwrjb+ld/zOD9RfTkKq1G9gDOn12bKiFnBC+b7z5/M75XbIV3vmdWKKf2MskmjpYcv8T0yoT7qobyh8hxoo+6hOf0eLTi9TJtW4jeqegXDkdlAkuK5UjRPVsLWwemO1XcBzYi8ecOovczSwN1Hxpik76FlQfceJG5tiZZmNdOfnaRgbzoj0cs3sJRDXmDCUWYMSHJF53v2wy2lZMxs3Jitjk6RjXUxFcml3MzcwsasDYYD9ZsjFl+DGSn/VII7TWws2/q0O9tEr0zkA66/WP/AIRQuo5RLEC3SrRP8Qsf069Oi6Wc2eDEnp8YfkkVvHYcGBl3Zr7b8QAoGDAWKjdq5XmZjyJgyaBqF7EVCx49NMUeh3uZkr1EYICNXJgA9wWXUqtXck1JBmYZSq6figTLfXFaTjJPPEAv7jpxgHnjiAjxvIDrVmNeaikRhn9imiKPmNxs5y2zqq8kAcwc2bEMikNpAO9QAQh0uWCsNVi2EJcAZxjDKCf9RmN7nVlyswvjioxQGWyrWDQ8wGYbxqUJxbbEiILO7Nah/BPEqw4VdvdWocCo0B+RRI/SAiHHqUrjOTHqO9Udox8eQAMMur5C8T2XpVbJ6h2c/MIY8uFfuJWtx4gA/HkGikQsQSSCJVhxsV1sKJ3AAv8AzMXAGzMVCgVyJSlhSCQK7SCgCiliXUnxZue9FCQWUCtrj1A1X4+YAQNk1renmidrgB5QQdgSn+8IOpbk2O08W1Cp7JbBdGx+O8AH4XFld4xpPj1Dki/Ij+d5lNUaRZnzME256ZFmzR5mAbzW4qUIEmaNhMAm7XEM2COZrHtM54gwMmar/wATW2FRdHeSxjBCgJDMcRMO7AgsNojJl9M7x+qwPEpOxNUAxFi4nIm98x57xTb9pDKRFmA9SyN+JNkxKqE18SjMhR7BPwYjNTgixZ2IE5X2zddHM6nEUIJ/q3k5FqG8SzOmkiiSa/aRkdgeZ0xejWLGk/yva1fEv6ZVXp0vu1Hx8yfp8IpdQu5UMZUaKAX48+ZLkui70ezD0UDhfbqveLzdWAtJTauTA63P6uNVQGhsfmRi2bTW52jqzSCTVsOjmyhUsk+Z0GZk6XKnAUUDEdF05Rtb+3uPxPZ8iOCVa2o88SW7dIG+TObma2ia3jnXvEk1OiJjl7thKN5XhJbSigfBMkTYXcp6ckZFKbtf7SZIqFUdLJjOPE2XKSK2ABkPUZzkIAJrwZ1erxpkTVlygX9onGcb2KIB3IMilY4NNNsZ1CPlwsFpggtzxQlfT4k6b6PobGWbMCxX47XKOmTGvQkvQ9Y2SRYoRXq4casPWLUdlK7k1txxVzoxqkebmlymzgZceTBp9RGQsNSnyJgZs5Cu7EjezvU6v1jOMmDGmgfDE7j9O04yMFyKTuAd/mUjI6v0/McPSZ8iV6alQwIu99/7SPrM2Aj/AO3Vsdkhlvar2ifXpMiLsrsDX7/8zej6c9V1ePEP6jvCgYXRoG6nF6g9pcaifFz6TpXyF8nUMSuokj8dpH9Q6bDhy6cbUMagV8wvp/UM7NjYggKe0wyybVI68WGlyY1Qeoy6SSVvaebG+AtS2e4EpY6DpRBrOwAjsaetjzY32cqV1CYxjydM2nk4x0fMZ+pOdid6HtUfM+k6bqH0YEQrbYwd584iherXBmGlwSpJ4A+PmdzGqL1XRqbK6CAR2qdLSWkedybdl+D6hjfM2FrV1G4Ms1bDfmfLdXjzL1efqMTWitTX+al/SfVcRwDXYYdpLf4Ur9O1c0GcnB9WDZhjda1cGdBcynvDkhpWOJueHEX6g8zxygd4nJdj4saWAEE5BUmfLvEvlIBmTzfhrHFY/L1CohLAmpMvVa9RH7TFyrR9TZuQJlhwVFAkSHOT2aKCQ5cy+mVP3HtOVmVfUL0BKXIR96uKyqH9wPHaTzbezSMa6D6LqXDMmMe5+PzG9Qg6Tpw+QM+Z+a7Sboz6XVK77m9qlfVs2Zi9bDiaOSUdhX3/AMIM3UMCCVNgcSh+qH8CSuxPAgerio2tvW08mEMA9UZnySRo6JukysOo9VbDDkE8yjNld8ilCbJhegiOWuoBYaqIuuCIOVsrT2X4mZ8QGUAsORI/qONk6dsmNtxW3xN9YIp9xuYA+fpCwYU3AEuH+nO9MV9Pyn0nyE6nA+0xuXqjlWhtclwJlxawBZI48Q+n9bIv8wBaNbiEjZLdsr6X01ILnfsIeX+cQUQqb5EPG49QIRu3G0ofGuFSeBM1bWjOUvsRZ8WnFQPu8mLQlUJqhMy53zOFVSUB3MI7IAeYmaK0tgB1U+Z71dDkjgzVwl2B7GDmTSTsSOIKiqTYx2GVQDUU3RI39Ir8RChyupW2HiWYchCgMTG7j0xTxqhX8L/CqHxcXZ+J1uh6gZMQHeJULkx6dqI3k2HX0/VaAdr2msZ1s83JDjK0dgmCGB2uYCCu8EYxqsTZt2CGwhBAoTZQhXVsRgI4vvOD1ubThGLTR+RvO11eQeiQKJnCZky9T/Mv8zCT+53fx4JraOc1ki7NQMg224lr41vIV+1TyeTEZQDjWiL8TRM6HBVoIjF/CqdV5PAGwlP00kt+OJzgBxOl9LZASDd3Jyf1ZnFNRo+lw5A+MA8iDkRG3vjxFYUD73+DNfHkxgkkV8TJybjbRyUr0xWZUYjvJn6bCAxCjbn4jmyncVX+0iz9bj9QpWw3euTM4pvo1Wj3XZE9DWqklexE5mca8KqE0td7yxesG+pR6dkAmLyBGYHV/TVDehNoXHsoQciDBoZGc1e228hd7TQ3biV5GA3BtOB/xJMykHTVf7/M3gkZz60HjdVUkCjNQ3sBdxSpS0Y7Ds+8pk7oHqtsaqIgDaP6rcrURKRg+zYabRY5h3QgwR7I17CKJBE0mYACZcURJnksmu0oTG4ehRHzMxKit7iBHMUQJTqRe8sgdgDq4DFTt44lARG72OaqSo6JZ9bGfio/F1OFRZzIT8LGgGBU5A+KqKdlDriC0ym7AmZOrxFv+rX4EH18ZyakfITXKiAFmMs7gl/aOdo5FBykqxdSOD2kOMqos4spB5N8xjZNKq6JRB3Uk3AChjkDEaj8ACCoylyzOQviJ/iOqyKWxYwo8nvM9brSvj/8VgBQobIx2avJEYcQ1UyHfv2kX/3rggPkIPPaY3TZsmLGPTZXU7sW5gBamNV9r0Gv2/IhriC6i1Fidt5M/Rsir7t+99oa9P6bUNTXsTcBD8YwK5p6Y/Mz1Md7897mYenGG20gWb35nmBY+4LXa4Aa79OUOsgE8d5M2XpyGLOS1VKBiGgWq6V4mvhxfcqpdb2IAXrpXGALIPeEQSCVgFioJVQR3E1WBGtWBvaSUaculSOW4oQl3UUKHxEsKIZe3AqOwmwSfPEQBFdwRNS6o7w9JriCQF7wAAltQUWAT/aM1+NxcWo9RtQN3sPgQ8ZFaShB89oPoEOG4sTO88p24m1vMJRo2Ts0bQSbnjzPDmSM0bCenoDm9oXQHr1HaFdbQV2BM9EAJBZpoG1dpqwgIkM0ChM7EzZh3/EoRD9QYJjDN3/vD+ndUudCh+4DiM6nAOowsh57V5nL6YDpeoX3Gyd/zIWnZXao7dRJYi7EoFFbHeAVB3IluJKZH1IY4rH3DeQYsdZGJPPcztZEBUjyJynwNqJG2858i4s2g7RPnxEBiT+ZCMVtOmw1nTW5NGYelsrp54kqRadCunXTQO29x/Uj+WWXZqqF1OXFgVBkFdjXaBrBWwbFbGK2tlruzml/YA4pgfxtEKdOdSPcQe3mdRwLBA/O0h6lVFIm57mbRkmdCdqkV5cxOEgDgUJP6TOuMINR5jHd8JUWrkCyDtUDGci4my/aDx3BglQR0tE3VKMTFAdQHf5kbbmUZTZimHcCvE2iZ5U7MWOw5CmoD+oVECUYUtCwHBG8bJidPrRq6XGBQI433PeQInrZVwYrLOauVdV1CDBjKAFu5i/oqZM/V5Xx7EIQrHgEyYJyZM8nDHRZmyIOpXDucaCgqi9h3iOv6n0yqpZyXSKapT5oSb+FZuoZRkORv6iNh/4Eh67MmTqGGMVjUaV3v9bm6POYHU5CzBQb02CbvUe5k9zbjsHTZeqL+muyi2PiPoOwenwZOpyjHiWyf7T6XpukT6f0ylQDmYfeBuPxF/SOkbD0bZVBRmHO1kfrD63IB06plv1QAQR3v/4mc5a0dGLDctiOq6fGOoCBvvQHUfMDpcL4uqAxkNZ0kwLOZl9U7gaR5A8ynDjUbXddxOeUqO/jUaOh0fpDIPd/MO28LqXx9IQ2o6nYAKBd73JEAw5rQXp4iupBzYVUhyVaxR/eGKaTpnJmg2rRw+qys3V+qSbvmdr6cda4XDAhXNg+CN589lJLkGrG206f0rK6gjSxxVW3YzomtWcNFv1cZVxkYsQCH7yvfxYnKGPIzDGANIP3XtOh1PU+g2psTlWujq2v/acrqCDkcBqBo2OLjitFvYeTIPS0kn1VY+4HmdT6F1GTJqUk0NzOJuCNXP8AmV/S+oy4eofHhUMXBAHmKUFJUOL4s7vUvlGpkJAU0d4Xr104cn/5kS5vUTfejvRu4eTTtv7QL/WcTj4z0IpNF+LKjg+oaoXcV6VsSgYjm/Mmx5Nvcdiu4Bl+DqgvTsxHwI4xXTFJNbQWXSvTo2jkCRnqMSZAuMe9jRJ7Qeo6pvRVHuhvtM6LpVfVlY33G3EHTdjjGo3IZkZcYtxqvvEHICp9M2Dt+sHrMlDQeG7yHBkOLJRb29xCMLVmijo7PSKoItgTLc+D1MI9u04+NwCpvkzqdR1pGEDHsaoXEkl/YyyRlaohbEqsLFdo7p2JU/6YrHryYbOx1d97hpjajp48SJLwpv8ASbqhmRtSAsDDRXOH3LTEy1MOo0wIriN/hgVuUlJroh5Emc0K926WDzUt6fGgPpqvtUWpMb6OkUeRAbFqoUQIuTj2JtSBw4VXOxIsnuY1saFdwLh48YH/ADM0KzWTDlSJvYsqAbXkTQGynSQajfTIBoQ8SkbmKMWDkKTpgo2EWOmLG6l67iEFAHE2+FSM/laE48CqKqDk6PHkuxzKZs1WKNUZ/JLs5Z6D010oNh2kmbEy7VU7xEVkwq43Ezlh9RtD+Q0/scfBnsbdpS49bHqWtSwMvS+kxIFRePN6ZIP6znembTisitFSdSWULVVHJmUcmpzsmUaiVHPMD1gTvxGpTTszjh1s7LZkVdRYVJs3WKE1Kf1nObMCSL9oindcmNqJ9vbxNPkky4/x0ns3qOs3bez2qREZGX1uxNA+YDVRIPEqbIc309UQALi+7fczRRSOrUKSFHKuRdLrbfEmZWJACnfidDBn6TD0yHJjDuSb7n4mdPiXN1OpNSrZqtqlLRDndnPKMBZH5Ev+me1iTVSfPjZMraiTffzG9HkVSUN2SKim7iVx0fQ9OwDhe3Ij8/uXiSYW06TXA5lRa0BBs/iYxklGjz5r7WcrOWVjZCXsJz36QMmTN6ls2xnQ6/Ccl1/6ZyFyZOnGTGyF9YuwdwfMrFtfVmkmq2MfHkTpRj23Wy1SPM3olRrLEbES3DkyZsCrm+1T2EmZfa9YgPBI7eZtF06YNa0TjMupVIAWLyNeQm6+Z70W0Bj3NV3g5FK/mbJK9GDcq2eDlhpva7lOPg3IgSDtLACEG+8JIIuwc5sj8RN1GZ21PXgVFDmCIfYQE83ieEEmNbE9ANueZoANbwgurtD0GqKXNKM2w0wqVF8/mY+IHIERVv8AMwhlOysPzH4MmbTaY1vuxEYjy4unof6hyBKsePpwN0EUitka9CLv8SkDIFsHGKPNXADSOn9M1jsjgVMTI+jUmFh+FG812zlgBlQAjuKiwHdCW6s0vgRgUs+fQobERvwY4Ycj69QXfz2nJx5AwKk5CS12eanQxY9Nq2sAixvACnCpxpTuv4B2i3yYx93UH8CLKjGQWXni4TYMi3owq4P+o8QAB8+PnHlaj5HMS2QvkW1c144Ea2HMV9pVB8mHgxZg9ZMu9bUIATtlyBwWVmUnxKEydSN/RJStgZuTp2L7uWoe34i8OB8jW+R6uhR4gAw4+pZSxJArYHmJLOFvKQtdr3lRC4hXuYn5kj9FlzuXYaF/cmAjwcupBz6d9pNkenF5tRUbCuZbi+nH0qXKSDvZEc/07FlHuAvyIAdBkLAfzBXfaEiiiSbJ4I8RWQrgZFORQHNURvGkg7E/7SRjVArZrHa5hBGSgB5JmK4Gw78Qnevi6qIZqtV3zcHVrsizW1bxeF9RJIIrvGhTd3tfFRgDidFxKUuiIeoOftY/NQdNZCwQbj7iO8YpZb8RAYMiltK/cOxMYrgGostqa/jvMBN1z+ImrGnQ8zBzBRnLUy7djDMxkmjVMwwTz8zSZnaZso92FT08DPCABAVNmCbKQj10IM27/SZUTA9c4f1DE+Lqg642Ktw07d2ZjAEURtJspC/p2b1cC6uZSy0ZzxjbpsmsG8ZPHidJWDoCJpB2qJnp2gGHtkGawDc6REU6BhvM82PktDhKjmYzoINbEwh7fO/Bjs6LjFgWYkN7xW9TkacdM3u9nP6/G+QEltv8zOk/loqMbqHmJzFlBsjmZ06krqJ9qneaf+aL8DyH+bvsDF9Vj1KAnA8CFlJYE+OYxa0DfmJOi4yo5b6ixsbjmNxrm6hCmMFlUbgmqjcmEu355gYmPTOdyAfibKVnQ3a0TLh1I7saCmjt3k7bMF87SvKx0sAfuazUlA91732mqZnNMf1eD+H0rvx3mD2YQh5sE13BH/iZ1AYgNbFK2Ld/M0m8YVVAAIJJO9w8IXZnUorrjZG2a9Vdpd1XWr9O6fF02IAGveR/eZ1gTH9Hwrjotqs79+ZE+RfqGbDiVKy5HvI3n8fpNYqkedmlykS58+TNqVCxxj4/zUHp+mObKqEkahY2u51uu9HF1DYcWP7NqgdM9amxYiXUWCD9slzMydekUY/TyKdROzc0J1eiw6em/hw1BySGA3Iog/4jeix6ulfJYt9iD2H/AKZR0aKKCgM93+Jm5u6OqEUo2T5i6oMauSi+OK8QBjfPnbJo1Xt5qdNehDgnI25NmpSmJca0oAEn45Psv54xWls5Y6F2FEAWOY/F9PRBVy8gCD3lLFFdmbzyZM3SJ2i26c47o1fBl1XPFbEl4o+C+WXp8V9Q6Yet6WHp3GWyW3uxA+nZzhLpZDNsp+Z9B9Txfw3/AN1ixguOWs7fp3nyuQg5C47mwPE6F9lTMH2dbEud8r+rbY+XbgjtdTet6JUxXiCsrbjS3Nd4nF1JchwSDp0ut8iexZsuHKcCWyndfwZDUltDukSemSANNr3HiU/TsRx9cmhdQLDc/wBMPFgdGdkBNijZlXTYU6F2z9QQSopVu/d5jUtkOTZN0oOPqMqDbSdyZaMmNmYDcn5kmJny9XkZcYGtL0jtXeJDsjmjRuZzjbPQ/j/aA/Ohxj2na9t+Ipcruyo2Uql8+J4ZGAobmORAAFO5O9kcSejqfWwiS5XESSD3PeW9T1Q6fFj6bGmo1XMkbIUyAL7sjGySOIrMXGfUTueNpKFw5PZudtf3UGHa+JKLLiuYWkkmybntIVgVa95aVF/4XpgYadUdrD5Fx735M8z3hVsT21cReBCciljxOd77I7Vs6vT4QFO3HEoXCADQomZhA0io8TbHFUefOTsBMWkeYWmHAJuXSRFtiMpqDjYGgdp7MCx2mY13F9pxzb56N1XEao3qH6Y2g4zbmN7zWEUzNsE0oifU99do5hqO8WcfiLKpf+QjXo4EVAOZQaveYq0KMlzYCcgazXia85KNgopspGdS1COU3Jcai+JSq1NINvsmSSDmGbdbTDNCBHUKGxnzOF1DDFkNBix7UTPoWFyDqsWrLx2nLlST5HTgyU6OLlyFaIJIPIMT67g88Sjr8emjvcgMcEmrPQTVWUHO93Y33gPmLX2uKHE1K1b8S+KCxydM7Yw52UnvB1kKUQlVI3F8y7L1HqYcWFQGcbjTIMjBsxZlqzZAjJVtbG9HjOTNuwUKLsiO9cYlbFjYKO79zJadQSp9uxuLLEmzAKXo3Ll1qLG/c3C6VX3dFbUNw3aJClvAqdjpE04kWrI7yJNRRORluBiMYXsBRMpe1FgQsWMLjWxcI0TZ4qYSho4pStkbsNO5r9JxuoK/zMmnn2jadrqClEVcgbDjViN21c3JxS4s0StHDwZ2AYGz2q62h5erZwWB3B89hHdXjxLlZMQA0/cZzsmMljVkeZ3xUZbMZOcVSNXqH1FhtMyMW+ZqoFO25h6AWs7GXpPRH2a2BjxdzH492s8QRfYbTxOjGTJux1SEu2pyfJmCZPSzM8TMszTNXYg1cuKIkwsYJFEXGBcu5F6Z7HTHmUpRPOx5lEiv4VnGsvR8XNx4CuXQW53BHEcOnLMRqcLUzSqe4IzAeTGBRix4lT3ZFK3ttRjvRGmsZ25F94lCrLS410Hce6H/ABXpuqrjDf8A7bRAaem9Q6srWBttG4/T9PSQXA4BB2iznytmVPau17HiOyBz92RaI2jAMY1yJa+wg7wimkAliw7niR4mCuKcEnmgZRmUZE+4i/8AtgA9hqAGmx8mahcY6ZVH67SNcWDQmn1AwNmyd5TqUgBQR5swEHk3UppBJrYHtNx41VgQu67RLADfUL8zwXMVA9Qc38xgGXsNqVUI43gr7F5JB33EHLgC+8G27MTdwABez7nsdoAOYDIVJND9oLqCbDsfG8InSN6E0WVJ9orizADNFqAoWueZ7GaYqotl5uKVgt/zFoX34h43Rbb1Fpj5gB0ExqbBQAHcryLkrvkTqSgAKgdzZMsXVwbG8Jl1rS1Y73wZAyXFkyaQCum+L3Mb7ww3q+88Q7EOOSKG0yyqEOQe1CADKtexN1cFWKOFJJv/ANswUNijfkwsbowfJYonYnaAx6klABxXeA+VhWx0nYwxbqDek/7QCq6lO9r8wA0gvuN+1XCqhwf3ngAVNf2gMx0EbWe/mABkOG/6g0+O8ME1vV/Egbd6G/n4MIY8paizUOAu1xONoE6LSLg/BmY3sU3M8ZySXF7N4uzeYQ3giGNoIbNmE9p65kbEbBJq5t1MIv8A3isZ4fMz8TfmbVD8woAGAOLS28DpScLemzEqeD4htxMAP95K0wrRU2w2i28Rg3WARdibtWZpkHUtTaar5kIbISboWxsfE6XU4CykjmQZ0K6bB52qcMk1LZ1waaD0oBrsamF0BEOiowrk/dZjsas66tgx8zGxMQf6iDuTJUgJ8mI/08nc3F+qcbDbYR+Sy1ncjaRdSWrfmWqbLiVYsqtkYmgD5k/Vbn2jaLxNYrxKFxFyova+Y64s2i+LtkOgkWBYgnCxYLQv8zrpgKIyLRLbE+IC9Ojs6kaQDue5/wDf9pqpFPImR9Rm14MeLSAF/eM6VUxdM5dLZiKsf4jEYr1WTPkXUewPaPbN6vSlQlMR37R8kTJdKiQhMv03MiuGJt9OwIa+B+JB9JyJ0+ds2QfaDpvuajvqXTticZkAAbkDsZJidfSKMO93U2UriedkhUmVhDkZsrtqd2334nX6boQGyellOgggiuZw+n9RiKFKODc+n+mto6YLp93ffmQ6umCxSS5MjGPK2UYqrSeT4nW6XEuHFpHPmBYOXURTShBtJxxSdl5J2kgphmwe82swEZsjD7R+k8jMW3H4jGWzNC0ZLRVmibNAniIyRGVQ6lTwZ8x1X07BgzO3UM4x6ttAux8z6bMdMiy4R1KFWWwdjM3JxdopK0fJZDjTqm9An079t+IZKsDkttS/PE6XU/Sz0rjI+H1MY5E5/U5FcDFixaFvtNlJSJqgVz5H5dht2jwmZsOt9RCn8zBhPoHSKI8zq/Ss6N0xVDqflie0ibraHSMXp3xsOoDr/MSnYbD9JM6o6ZMisgrha3aF1OJmFM59FNwq94fSdOc2IGhvMm6+zLwzd0hfT+kyihvcryLR4u4/H0PpKEXEAAbuMOAswDD9pjJtvR2/IvSHGKAXTRJq/iDkSsmq9RE6DdIwx8Ubgv0e1jcx00CyqzjMhZzS7Rb0HO206j9Oyk6hQqRnEC1Dm/3lxnZ0RlZuJ8mLAXXTRO4i8fUMp3NzcgZMehlqzJxUpJMEj6LoepsBa2nTDUJ850eWtJ8Gd/FkDoJEG06OHPj4ux13MqCDNuas5xbJbQdBB2jbB4nvnxMZQT2XbBorCBmbld9orVp5ML4h2E7MGAUczVc1xMDgiErDmXdiYXiKyCzUJmA4YCYHB5MenoEvTVx787x4sLvzFqQN7nvVVtgbmipEtNmJkLOwIqoztEZLDAg/mNU2JMbWmNr00xbqG3PMYSO8RlzJiJJO3iVKvRRu9HI+rBQDRnGlnX5xmzkqPbJtBC2e8zikuj1MaaikzKIUA8doXpkYw/k8TNJr4lTMjdPjxC7UnU0ZdUCmbIo9i+7TpsfvByIDhGhCXAt2vzGhW6bGGuwTuIT5FGZcxooQVoDgVAh/4QudL6QbFA/2uYhAb3CxNyIBTgbNxAG5lEwbrZX0uD1surT7AZ3Onw6WD/2kH03EVxhqrVyZ2cYCpsJzSdy/4Z5p1oaLI/xE5WZQd9hKA2xiM6ah+kWWqtHJHskzZg3t2BInJ6jrGx5KX7QOZ08uNaLbkgcT5zrVLMQAV3GxjwRUmbyfFaNZ0YkKdIoXe5i8hAYb7AQceNia+f2mviJbc3Q/edipGcm2jMXLN2g6mLb7xzDTjq9qgILF1CzOhi1VmIzPqNDgTXyXsOIqNIUpHp6bM71LSM3o9VxiIB5/E9jBJ4lAQjdrqaJGYCFdQsxzE4kDKe+1wUpnGklQDttKQpzWjDbzGApMy5SdI7bg3NOMY3DZFA/cyrFhTECNNFv7wQUyMVZHonkwATiKKzKy7N9vt5jlK4mFYyP/ANYORF0AqG1A2LjQyEWMTOL54owANcrMa9JgR5IjhSkeo9XvUBSFQZBi+KJhhxkWwlfmAgGDFwATp88VCyFmw6UV6G1mMXIxIVF1D8QM3T5chpcoCnsBABfTrk0DVj9239UfoeiSij4g48LqKZ2Yj9I3K4CaOW5G/EABQvq0uFVQNjNQu2onKpHioLJdAsAWHB3gYcSYTpUWa2JMYD3oCmQUN9oj1cJcagC19xAz58mqsRVtI4uSO2QkMyqy3uLgBVkfA2T3bH8RwTCp2VT/AHkXTJbEhNQB5uWJ6WNQBpLd9rMAFOcByMWxpZ4uaM+NQCuNAR2qUoFOYe0Ahf3gu6Ux9i71dwAvGoEXuCe08o0vrLFr8wgQQTRHxW881bC9j8SBgo50N8MR/eLchhTN93fuf0i61Pkt3Hu7NQ4jMOHHqBG5Hcnf94AZjRy9e4KOx7yoYl0abFD5ngFI2/eFqUGidz8QGCGCuEIOuua5EMBSfFwXYhSQoYjjeYurIgY+xq3FcQAIj2kXQisn2NWQrXeo8XVHc+YtrBNAgQAkwjSGOre+SNj8x2N7Y7X8jvFjLpIVgRXarsRyk6favPdoCMYkjbf+xhq2o6TyPmCuNdydz5mkqh2UCROKktlRdDQIUHGwYbGaZztcdG12eJ3nu3zMqYYhm9/gTDPdqnhvEAQ8zDNgHf8AWNsD3JuebiaNhM+5pAxuB7WjyIwiT3pbaPRtY/E3hK9Mzkq2Cd4nLiVhvKCIDC9opK+xxZMcaYwaiTsDxR7CVPjDLUmcFQRX6Tjyx4vo2i7JqWwxI+Lg9R04y0RQjXxhqPccUYxFsG+OYovwt62jk5OnGHJ7TYMNGKmXZsSVa894K9OL920bkaRn+geoACQLJWqnsLBifYy3+0YMQDUOI8JpFARLJWgbQrDgQlnIBMcGQnSVnqGLHdRYU5CdPtHdoKTRDd7B6rp8WTGQRaHict+m/h3vSHTtYudNSiMyeoSebPaAwR/uY+KqVza6Kjo5mXKqbINrsS76Z1JY6CK+ZFlxYjlYi9u0Z9PsZwqcdyZqqezWdOB9AmME6jvKRsInHxUcJvFHmSZ6DQhmLJ03LEFzPGLXICauMuFpgYJpg3PXEwFZVuexY67Rh3mg1Jrdjs86hlogETi9f9HGVR6B0ENqC9rnb7RbGNoEfMHpcy+qHx6XcgWPtAnsrL0GD0elxlnu2efS6VbsIjqejTIhpd67SJOXbKSi3s+Wxt1HUOdb/dzW1z6HoMGjEAJyTg9LMCtijvO50JLLZmMpcpL8OqWNQhcSsDYAwXU2K7QxNM2VUctgFbntIEMbieqPsVkXU4C4JHM5+HpNWcEmgOZ3CtiIbEFF1fgTCUKdo6MeVpUfO/UCPXBBMmx42dvaOZ1M3SEsSykmDhxMpYtX7Rc6VHWpKiZVOIDkXOv0nU0gDCT5sY9O6k+PIVJHYcyOTe0KVTWzsjOl1fMcGDCwdpw1zKyFgRQlnR9WD7GIrzLjN9SOeeFpWjoIveHE+sO24m+oPM01FaMGmGTfeTdZQUVsb7TxzDVzEZeq1krpscTCUlLRtCDsxeoo7neE3VUKBkr4nVS3Bk3qAISWs3tJSb9N+CYeXqX9QbWD8xaF2JdC1/BgtmC6Rj3Y7G49FPRorNsMg/aaVSNNJVRX0vUOOnKsdV7WYjJ1Jw7hp7BkD4Gdm3B4imxesaAut5NtvYoxjbsrx/UQ9Ajc7Rg6tcX9R38zloPTyg2QIzqTh0n0wWrez3l7B4o3VFvUfUCNk3nPz5zkQsSSPMjZ9uYYYtiCBN+bEri/TSOKMehR3j0xuFV6tb4I2m9PjtrZQR8y9sL40Rlet+BvBy8HKSTon6pFwdOtDXrFavES3SOuRFJHv4uVdSdbqob+VydoPU1m/wD5lFR4j5EQckJ9JmxlWYXj/pPiTZnGNRRNGedmINkk/wConevEDFi/iD7jSiWl6NyktegFrjukx+oXFFieAIIwktQB/NTqfTMa4n35P94pSSIk2tlPSdO64QCdNdp0cQoeQIqtVaftlC0BUwS3ZyZJcjT9tRLH2k0SfEdx3qIysw44rmTOu2RE5fV52xsECm28cyTJkxZACyAEfM6XUDsw3InMOFSWYDk7Ex46o3bQnJiSrU/t3igAHIaNyWmTatIG/wAxHFnk8zpXRk2eK6j8CJykAUO81slCIYljZmqRlJmTQJ6psogwmpg5szW32A3m4hb1UuKIbGIAAdVgHxKunSsZVm1eBFBdvk/2mKDQJsH4PaWSU40Qg6Rv4MNUcMdO3xAwY9gynjtcsSmAPcQABXyKwsWfBjQcbLWTc83PLiJxtpbc73N3DD23RgAbrj0gC9h/aLwYtOQpQCMNQJ5vxG+po9zUFrfzAyZPbjfGNYHgciAh61pr7viEtUCQNPYRQIYAre/c8xhtP6b+YAMKWLuiOKmWSKBJIi2ybgDmeDmgDzADFYoza655uKYq2TWH9p7+Ix0XIWLKAbET/DhFKFdj3gAa5ggLa1KV7RW8m/inyKzsdLXSgGP0v6YDb9t+4iThZnArejweRADEsjSQrMeADt+szIAcm+OiRV7CUJ06XRUg9j2hBPcTQo+IALxGlKXRB3I7xq5d6NWNww7w/SVlI3PioYwqQuzXUAFjI2tmbwAILrjo6xerkVGJhsuC1Wd7ENcC6d21Dz4gBSmbGNwzH4AhFsZBptpzAjh6GfPXnUIeQstKSxFVqB3+djFQyvEC2LUFPu3hqr6qAIXvvJ06gEEJZo7WwBjF6haOptNHsbMAHEsARe/gQ/VKjcG/En/iEPazc09UovZvPmICkspPtajXEHK7aVfG1kHftYkh6haNKw+YkdUzatKgsf0EALx1WNBu43F8wi2qxQ09jfM5ePqNWS2UD4G4jg5Ygpem+AdvxACsENxsDsD3/MbR3AIO/eRfxBVSSpJB2BBgYepcvTmqG1QA6Gkjbbf5gvjpLFEjfeTXkY0W48Q2ZvTYXvXeADwCDYIrxG81cl1mvsYmtx2hq5Q0VNE7UbkThyRUZUPPEweZ4OGXgz1zlarRutnrmgQV53hE0IIDDvPd57t4JmE1BgjxMJdl35gqLNzTzF/oz23MJDoNzFF7wjxGnWxMcdxcA7TMTf0n9J7JsLm12rM0qdAkjiT5ACD5m5MwCkkxS5lyEhasGphJqWjaKoSVa/atDuYORyp9ngcdpUGDGvG08UVxpUbjmYvFXRpy3sRgDZQGYVZ4lGn37VVcTxQBNPcDmDi1KfduYVx7E3ewzhA3E8qiypP4jQbQCBlTUBFOKTtEKT6Yw4FfDpP7yT0xivFZrzKiWGEbix2khLM5BO3YwySTpJDhexLYkxklRZc2b7mT5FKAsxAjs2ZRho7NJCwIpt/mQk/ToViTks6q53hdJkrqAF877RXUkY0sHmD9OcetzvOiMdWaSpRPqMRsCOBkuFtpSpnTE8yQVxWW6jSaES2RSauNiSJE1+rt5nSVKXcycKAwlAb21FFUOTsBoMJjAEGAUy54wSDABnIk+Zip23lR9uKRO2p4putDgNxm946rEVjEbdQQM4/1DBpy6lGx3lfQr7I7qMetOJnTgKlCc3GslHQ53joo7TAN565s6TmPT08DNh2B6YRYmz0AENjBuxJMuIKdhtOgZL1JKrYmWSCaNcctnOzNThEBMg6nKcebR+86etQ5ZgFNcyD+H/ibyEaa/vMYJLbO2LrsTmdfQ9m181AwZX1gAyt26b0jjUe7vQm4ejTF0vr5GGpj7B8TRbTL5pdlHR9WEtcoO3B7RjdQSSw4J7zleuy5KG4vgwH6lwTZ2kuMnpCeNJ2Xtnok3AxZS2dbNCc/JlvZSa+YzpdTZhv9u8PjpWU4qjsdVmUY2UblROEzXx5nR6hiemYLuTvtOeFA+81XbvHj/RY1SMR2VrHMs6rMzemG3rerk3TKGzCxsN5YenF62N3HJpMvVk+IuSdI2P8AaX9MHUkk0O8zBiUEXsI7I6hdC8zGUr6JlLlo5vVZf/uG03XaKCu4J4UcmdDFhU5dZ3r4j8+PCmEn/Uu35mimivkS0jkLjDvVbHidb6emPBrAOpiODt2knRY9eW3H2yzIMeoHV2raNyojLt8TDgTVr2AvceInqMreoiKtrxCR10UWNd7imxnJqpqA4vzJXY4rezXQIacXV7E7RGYOzaVFDbia2d2U4j7r2udToujGi3Fmu8qhyl8auRy06NmQjuw8TodL9OVdJUUO4PmdH08a7AVEvkKbKvu7SZSrTOWWVz6E5OjVQTp/aJfp9ADDmdEq/oCyC3eSZ7I35EylpijJsZ0rAkBmJPzK7G7VIMGQK+8rZv3Maboia2GHDGpL1GUIauNDheRXyZzeqyasyldgOD5j4tx2KNWOfIGpaqc/q8lONN0Dz5jM+cJsBuRv+ZLlyHIwZh+BNoR0DYrJk1Ant3kzvtZjMzUpvjuJG7Fj8ToijOUjxNn4ngJ4DtGASmyKBIoQbreaxswTvtKirJkzALO5/aW4sYC8AeIjFj1HcSvGpWk2+NpokZhFLFad4SobpVu+RDGMk2W/tDFULav2jAzFja3sCvEox4aIPEUF0EOznnfeMbLhTYtd8AG4AP2Qe2gYsKxtwV373FHJjdSayG+BpMbhKNt6TAE72sBGOoelyH21RvzNwsuEaMdBL7dodqMhCoWHIIqLfIWbQuD3Hvq2/WAG4spXMyN9jN7W8GHkcURrIuTZRlZVLMispsEMdoTF2X36CCaLqIANxi/auX9RNIax7SYtcGZBp9Ugf9qTz4HIUtnygfkCAD11gnQyqP8Au8wGyHGpGTKha7oQE6bCwtnZifLGA30xdzRNnue0ANyZyDZ6lKrZdMmXrA+Y68zDarAqpSekrR7VIHZuBB9L08oyBMKqOdoAeTq8YBHrZH7cVcNsgXFa4Xa/JmZ/XsE5sKg+IQRtKq2YMT47wAbgdk03i+7zGLmyA/8AS27EGL1LsrB/G/f8QUZF5NeVUXUAKQSQSwLd9ov1SlqE3HjcQEyqq5CituQATCXN9rMoXbcCAAW7pQxUAR9qcQ9b1/0CSPIjWVVWyFAHYtUX/JB93pkEdmuIAB6uRi2QopHASrjTlzYl/mEFDw17j8iIxJjAYlOnY3tZJjUKsNLpiquFUwALZiGGcGueI71faPep8kHiTVuRiQgg7ew0Z4M1FdFtRukhQD9a6zb33+7aLOZgQP5Sk7D5gqmpvdqQHeq3jFxqrG1o8243P7wAxMbDItnET2BJqOXJk16FKEHcgAj9osIBkJLbk+0hv9prqchAGoe67vYHzADzjIL3VT5o8eIOnqAyuHrzSGZlTOXH8wKe9c/5hY0Y0GyMWHBLN/zEMp/nKoJbb5WeBzOQpYb8moK42BosHPe+88TlxuNIDBj2G4gBRoatm3/M865CbDV8TMRYmyT+Jrs4IA4MANINgF7N8CbYqTeqFyKGatQraeTKFb35LHG54mc4ckXGVFQHeZ+e00MGFggiYSCa7Tn60bGHmDNP/wAzyqTR+ZHpQY9om8iLbd68RiihKWyTRPGeOwmRiBJog/MdYyY4kz2Nir32hF1pg16cT6jlyYsrL+eDxt/4knQ9UwzA6jpatyZ2vqv0tetU5cdDJW18GfP5ul6jFk4rTzQqXJKqCLdn0qEMoO81FAY/O8i6XI7YgDeo+fEcpyrmAP2/HaZXs0LBRF8zaUMD3gmwKEwnegd5VIg96lbd55MikkHYjtAzMqJr4+ZMHOqwN72PxOadxkaRimi1iT22qJdQd72G0L1BW258yXO5Bq6HeJyXY4xZLnxL6uq9/Ehy5lZgVBAXYg8yrLkIs3sBObmyeo18TTGrOyC/TepyjIgA7GIRijBl2Inmup5uBXE6EqVEurPp+gzjNhVwZ0VO0+S+n9U/T5NK8HkTuY/qWMsEb2n8xppaOLJiknouzOQhqcrB62XrdQ+0c3OiWGQXe0JUXAdW1mDVuyIy4qgtVttGAmoKshGrzPFxKJZt3Mglt6ni37xWFBiFAVtp4ttHYqMz5aWpPjFmE/uaGi0Jm7bLWkMXaeZSxG/EDXtvtGBtgLjtdEmsLEk9ZUy6JUeJx+usdRsSPxMsjppm2KPLTOsrWIVzmYOsFBW5upcmUN3msZJkSxuI1FpifM0Xe88JpMOK8Is2ZPT0oQJicyalIjzxFnmJjRxOpxMj+4WD2icQd8vpoaBG/wATr58AyNZPE4/U5h0udlQWxHI7XMOO6O7HO1RM+U42ZU/cRvTdR/L9N9x2vtJLKnuLmlaJPYfvLcU1R0DeoAVgVIsjiTPuZVjzY8KPk0qzkaVU718yZRqJY8D5lRVIiUv08FtSfEp6bQiDKzd6oSTVqelO0bm0h9OPcDbV5+YNWqGmn0MfOxLaCQDsYmje93CxMcbhhRPg8QaKsbNwSSKK+jypiXJY1MwobTo4lLJ7yAF5B5nP6LBeZWfgDVOkoORy73bDiYZGjOfYsshHt54ELQoQtyYXp6aIi2f7hsAf7TLsFvofgUaFYHe4nrAM7lh9o2Ff5grkBBVOBH7EU2ygC6lp0KnF2Zi09PiIZTqK7fMnxbuzMaX/ABKWYPkXah/tNyogTSCPmTKQKVd+keZwVI2A0yNmpRXMobpsjtYE83RZaUtNItJHRFxj6b0OIZMm4q+87q42XGApBEgxKnTYgFG/cmUDMwUAH5NSXPbOPK3N6DGQodLkUeIDZMYZCx34Ak2ZnCk5LB7V4nLzdUXVnUUF5syYwcuhKK7O5m6oY9J5HeSP1SupYEDz5nKPVEgUSx4IPaAj+pWpvt3IHeafE/WCil0dLHk9+q9pQOp1sKJoHe5zddqD9vgCLXqScqqRzF8d9CkdXq+s0lVTc+YLqFw+q454HiQqxOXU2+0ryZRkTQaAm1WY3RERqNknmTZcu+2w7fEtzsuPGCw2Jqv95x82UuxA2HxNIolsHI+s0OJiiYBGKvAmt0Z9movea9AVGAUL7CIc2bMhbZT0gG2nkXf7iJhpjudozDiRiN+JvFUYvZVjxjTqDG/zCONWdSWvTz7oePHiAAG1+ZT6WFVNFZQhSpg7UfyYZfAlKK28d5qZEK0KU8Env+Ixf4cC2ZS1ckwAWc4KWWULuNJ5M3HkwFaGQK3O4htn6TcOwIHeE38K2LWCpA7wEGuXBpoNZrtGYnQC7vyK3MXhbpyAUKX2AjSUskV8QASzK7VjZl33AWMV8ae3Q9eahDJjx0NdGa3UYhW5N/EABfKmivRavxAHUKuPToJvberg5up6fbUrntWmLTqOnDKRhcg3RqAwxnZCF0Xtt7v8wdTPjDn0x+l1GnqsdADCQx7bcTRkVSGRdO3Bbn8wEJxkuwVcgIH+laEqXqMbKUNnyItc2NXJb00vjvc050VgNaWT2WoADlfp0ALYnO1UJLkyYMjV6ZFitzL/AOJxOCmsBuJPk6PpszWjt+/MAFYs/TsoDaB8GUY3xhfYF3O9zy9GmJVfCtg9iL/WMz4n9IlcukHmhADcpVbJ1Gv9IsiYay49QbQo51rRuJxoAhbEXT9eY0O16newf6YwAxZcWJWRn1C7NC5gy4Mh1IrCuAxAh4wMi5ArLV+ONotRrdRq1AeBe0AHnPhqzjewOwE1MoJrU/mlYVFeg2k68qAHcm570DiQNrRvHtO8QBkhGGlr7EHLMYOTQxqp42Y0Z4KGCnV//wAExmQBQSCxPgKeYgFsiDSzqqqPaTqMcgQOBoTf4JE8jDcMGYHYkKJ7Gt7Vk270ogBp3HtK7HsIV86QzHkWAYywKoMK81/zFMQKA1jUfMACVyTZxtYO2wE31a3COTXAqCCwNBX/AFyc/wBoIsEKjHmj7v8AxABOXMclkowo8jb9ISFRTKlkjvGuqqdLCyOQX/8AEV7L2UA//n/4gBRra/bjA/tGJqZCS5bfb4kyCmqy3xrJ/wBo1RpJpdh/+UBlC5CpJIA22PmDkzZDlUrpKVvfmLZtYC6Spu70XG6GbdhfkaK/3iAAJ6upr5O3G34inxtkLc13FStdKjeiDwAO0Fi69gB3oCAE2MehmvE1iqKn/MuUhlBBsGR5FX3eqAUcURQP7TOnI6fGgAASjq34meTHy2i4SrRaRZqGNtoCEMNQ3BhHic3RsCdz+YwbfpAUd4R2FQQM8TMnu88TAASZoEwC4XAiGar6SFPBiuq6VcikhbPaERtfniGj1seJaaemT1tEWPH6RDFeI8LqF1UeUBN8wT7SBVCPjQ+VgBtXMEbkXCOMXY2iw3voA1Ieuxo3OuvC1i67SDpshbMy6WCrwTOmnG+8lzrTHTSmY5erNIPwIURvse4k3UAgbrzK8KAKAWs9zE5mGr7eJhVFJ7OTls2CP3kz9PuNIM6bprJsRfplPdXHczeM6N1Ojm5MTagpqwKkzNpJHzOpmIyMSw2HdROdkS96m8JX2XJXG0AMmk6gd55cj5H2O/mZpUnaUHpwh1KCUq95o6MUpNna+k9QPSY5c96NhqO89l61cuV6yGxwJyulZFLs4BVRdeYrIzvktQQRwB2mbt6GsSTbLMv1BwCqk1+ZuP6llDbsf1MjqkB31EWb8QEBa67bmHFGtR6o73T/AFIsLZbjh1Su16qJ8zhnNeIKi0oFE/MLHmqtztI+yIeCL6PpVYBeQRMfKo7icQZsgwldZ93B8QFY6gSx55j+TRj/APP6dk9SgPNzf4vEKtgBOST/ADAusH8RylFGwEzeSSD4UzodTlRcRbVtN6NmdLYmcbPmBat9tql/R9QBjC3vC98mEsTUTpMwUEkzldawOa9o3rswKaQ1HnnmcdS51F2JHazxKk+RWDHX2Y5GU32F9o/1W9RKc0DdCR9PjJcrdjm49GXHk1NYAk9PRrNRZ2sOcua0mpRqkCdZjTGHYgDi55+t/qQgrNFNJbZxvG29Iv1CCXF8zjP9RfJkOPHd9yIebqPS6f1CffdAXB5H4il/Hfp1HzKv3ECS5usXHuCDv5nAzdXmyuGY/iePUsarmuTG3Jmq/jJdnR6v6pXtRTv3nPOF8i+uxoGLdWWmcXe4s9oD5XYUWNeIJM3UFFaAyOztZNwQT3nuJtywC0E0O5gNQ28zpdNgXHhTPldRe6iSZ9BYsB3iUt0FWhWIaATpseY4Ipwat9XmIsnYQxYFXxBlRXhV0XSjI4d60738fmM/gXKnLp9p4/EcCP4HQqhSQLr/AHh4epK4xZAq6WZuRP27QlCwIahXFy/GwI1HttOM+R9Zo7E3Us6LICAp3YHgyJR9HkhqzoMdWJtqInM6hnQg+eDOkjp7ma2PiSPWViXBrzJWiMTpkWHK2Jg97Ay5MvqYhZ25r8yLJhB1emGIH95TiZPQAJ0kDf8AMuSTNMrVWkU4mUuVUVXNmeyYw+TdqF3Jlsi12A3JuYrvm6jSn2jmZ8d6I4enQzuMOAOpOojYRWDO+RdWpWUd5Rm6djiS6uu/ac/qaxYfTxmsm2wMqKT0c16sDrc6uCWalv7fJjsOcIQx5Ao3OIcjZc2si1AJq+4jMGY43Y5HJOkmh58Gbyw6JjkT0dXrsgzKpDadr/M4oY5S/wDSh894/JmZsGM7EmIw1jHuIs+YQjxRT7rwfjyfwxQugKAd+TIjmAdglhDxCzvqZLN+RfE8casB2BmqSXZm5NvRVgyagCftmt7aKrRHeKx0igG4yzoo9/jmZ1spuxgchNq2IEI5Sd7F1tJyw3rev7ybNm5AO57y1GzJug+s6tszkA/rJ1ExRZjVEvojsxV3j8aTES6EaSEW/wBpm3ei0qE52A9okznbnfxCc2SSYu7fibRRlKRgTaWdNiXuwB7bROkhQQps/Et6dQw+0A1sJpRmPxYsPBIP6Sn0sQXgV8CLGAemFBo+YehsZCoBpO5J8Rgb6GM7k2OL8TVwJjbZlI+RzMCqSwKGjxRgY3pjjf21xfMBFBxYCApVfxU04cYxlQRXNmIdUdgcasx8cRoVEwlmQoaNhtxADw9DGpQOtk3sRzGgKDvkKlhZ3keNOn6jEuZMNfrUoKgsCcAryTABgRdW+QGhsbgs+G61g13JjfTGmtI42oQPRT3NoX9uIATZlwWGOUDvWqe6f0K7kA2AOI44yqe3SRz9s3HqYFdrG2wgAA9FSzaLs/6Y0MjH2YqH/wCMWWyK7IynSdgfEdhDDHZJO2/zAASFdNJxfrtFOHVQWXUo78kSgMpIAU1NfEG1X+gjAWh4KnHuOSdzGEtpC6wAedPMWMaBSFCA3t8zcPvFgqovcDmIBjOSLHbsvM82VUBLMVHiYRpN3sBfEz1EYA2LIuu8AJU6lcjEfxDaQf8ATUqGo76yQPAiEXEuQtrDM3F9o8kBNiLgBPhRdDU9lnJ5/wAx6YERg5c3+ZOmplNMotjv5htjcIBrXfmxADT1DMdN4wvjQf8AmOHVWpByKSD4mjDlB0hOnI//ABO8YcRBAC4RXlTzEMFMrsN8gUVewEyshNvk434G8M48pUacifgJtPLiyAMWdSaoe2AgEcngk/nb/aEhbcEtt83NRHYE6kocDT3/AGjERgBqdC3c6IAKbUSSz7RRyMbonbYb8ytlF6We/gJFshNVlIrxjEAJTlyI27Hf4Jr+8PFnfWQqkjvHBW+31Wo7kUBMGFhksZ3Vb23EAAbM29XVcxDdS6nYmvmVmlPuyOPHuG8F2sa0TWL7MOYASY+pyOQS+67gwz1Luxt9uwqUHKygfyhYmP1AT3BVHz5gAk5X29xJob6o7DnYpRY3fczy5nLkoqEdzZ/3h5MmbVeldPPzAA69lWPgAbCLyZmdSgBB/wBMJspxWNSM3YAzAoZlclGcdybqAG+lqJsHUBWryJqICu6htPmZkJUFwA3Gwi39ZFvEx92+42gMtxtpUdhVxgOoyTGrsqkq2x/aPVxjIHvIPxdTHJjvaNIyHnaAYd3AK3OdmqNmGenuYDNAnidwJ6KarN9t4ugoNj7vxMLX+BABtpp8SWx0EGZTsY0MHFHmKm1QoS4yaE0mFkBFEb1M0WNxvPLlAPu4G1w2AYcy6T2RdCksPXaLz6Qwvkxg2b3bQOoxWNXNTHInwNIvZNjz6g1NZU1Q7TTkVjV78SDMV6ZwyD7tjZ7xqsC4diFv+m+853H1G9IawAtSaEE43dQBweTCJ10Rz4j6YKONolpCeiY9MBjDqPG3mc/PgORjYoXwJ2zkAxe6tNxIxqza7Brse805JbQ4zaOJ/CaT9vPeoeYeiqqpbje/E6nUIMjAAgfiTjGMjFO90ZSyX2aRl+nIcaXvT34M1w+LJZ9pvzL+o6RUJLdpL1WRcmMf6l2m0ZX0W5J9E+akcFWtWFz2NzRW6UneJaU9J05z6veBQ2HmasiL2CLNgHaWekCUTGdVD3kQMajG3p5krneo6tGt8WQXQNDeZs1TdgdQpwe0E8xS53GxN73NB9ZqyMxc8EnvFNiZdQOxXkRUi/KYwdRT6qBmjqWN6V4k1e273viYH08HePgiW0V/xOo+4XHJnUbB6qc0NfEf0+lso1EAAWbPMTggtMdlytlPtNaRd+YpbVgR7r7TcvpaScZN6tgfESWIr940tDssUtiK6/aK7RuUJlADE6uBtN6ALnxkmi6jueB5kmVgT6ms6yeJHHdkL7NlWWjnGJbpN6m5cvpLpazf9pEmbQ+okknmac5KMK3Y8/EOGy6HL1ITIG0Cib+YrPnfqcnFC9gIKafTYsLrt8wXzFkVAAqqbFSlFITq9AspXYmz8GZfapoC6bJNzTlVUUKnuuyTKAHuNVzwGompjOzksZUwOEKAyn1BvW9fEATvolYaTRG/zMHMc+NihyHzUDEAMg1CxGDQaY8pxnIFOkbXBZGrcbHeWvmOMKtAqtFf2mPpzAI6hMt8nvJsav0iRLYXYHmo9cGprUUvgyglUwhWUA1syzOmzKWpzW20hydaH5ZXhRceLj2yJsldZZJ+I3L1KhSvDf5iVwlT6jkUD5kQT7Ykq7Cy4tQ9YsDZ4AqLxhsarlAsHkcfpPM5yFl1CuR4jT6q4UU/deymaC2hmDPkZmBFMRsK4g9SzIyKDxzKtyA4UAkSLqNs4BO5q5C2whTdlqOoUKF38yXqsqi1T7gauUNj/mMovYdoB+nZctVsvJJkRqxRcU7bFY2V8AU38y7oemXEuuiL3ow+l6AIfeb8TovhBxaVFGVTd0YZcy6QJZcuMb7/ABOL1H05n6v1Mj2t2RL9T42N7Adh3iM+RWYoz1qGxkqcr0ZKNHFz48fTpm07hvaO8jClVWjve9y3KyMhU3zZ7b7mZg0MxdlUad9Pk9p1qVLYvjTehwK4jhxMQCBZ/Wc/6icYyfyht58ynJhbSuUkW3P/AGic5kZz3MrHRGWzcQbJtffeUEGwASQPMBU012j8TAY2LduB5jkyYqkLJOqz24hk2BfzFld+8wkoCTFQ2zMuTTYHJiOTNJ1GzNVblrRk9sJFj0XvBRZQi9plJmkUai1+sm6nJqahwJRlfRjJ7nYSBjccF6Kb8AY9t5uNQWpv7zApYynF06OK5P5nQkYNjcIoj45s8yvDj0MxIB/EVixYjpIrUBRHmVqdL/aAvi5QgmRrtK27GYcpV0x6W35N8Q8bL2YA33m5KIIUDSDv8wEZrYNoXSWI2Pibj6cr7ybbue8YoQUBVQ1TGrbBb+YAYLU0ciADyN4vI7M22VNJB3I2jWbF/WoJP/bc8CCDagjgALACfEaXTaKoHFT1FiSudNhuANo5tRFMLHB9s9jZVUgJ8bLUAFeqMiaf4gHSewNwjkGPGQ2Q+7udqhhVLK1Kprio1kDUxpq2FwAjx1jyL/MZtXfxKMLU5As7HmebEgyAl+3BmEBcjnfgDbvADya2chhYva41wPtBH4uDiZVGgseIelFWr27+YAAuNSbDDbeY6ZBRxPRvcNNAOrWzAL2o1tMVlfMfdsR27wAPGrggOov4inx+4jGCrf6lNV/zCyul+m2q/MPG6hK0sR+IALOTMCqB1Y99qJiM+diwV8ZBXvzGZnPqAjp9YJq+4i8q37VwkWe7QAAFnJ0BNXgijNVcuNWZ6+RcP0iVF4hqqvui/Sy6vTtdLcXuRAY/p8GJEAyFQ1XzGkWtHUF8xfpuSQtbdwtwlV0O+Sx4qAi1kUj3ewjjUOIRpa953PZbv+0Ilh9wO8BcnqZBRalviIZ7I7A2oyWPJUQCMtk+o9E7hdyIxjjU+4Nz3MeoUJVHfc0YARBCp9759PktKFxgpXuO/JYwwSx0lNv7RLqVOnSWF3XiADBja9i1D/uME4kBN/d8mCCDspF/G82ryD2gfpzEABC2R/Ku+Qbmg49FH0x4O1zdLA/Yt3vQFmZe/wBygAcbRgA2S9IJU0a4uGKCEaSRyQNoulHGTRZ1H3XGK17B7251cQEeYJ6ZZFB/Aky4spyq7Ag8aSoj8mLI6lVIFHep4YziQFrUdz3gAWnGbNKKgDJiNlmFn5idIIOgqBwdQsV5gegUJGuzyeYAVI+I2bAHa13mjLhCgrQI7VJvRZ9jkSr5EcmKxo18cGIZSciaBVNd0Z4ZT9tDSLPMBFUKRquuTUUQFyhg2mviMAw3UAuijGqXYJs7Ri4eoAJOdfkBNoBwksHXPkCnsNq/tMOPAB/M6hz5vJAB/qlaVrIPeN7Sbp/RKEYjqC/PeHiyNelkImM4XtGkZeMabnhC/aC2285maoFj8z1bUf1nu8wm9oijxq7mAd+89yfxNi7GEo79pvb5M8OKgk1+TxGSC25rsJ5XZG248Tx+Jvb5MVtPQ6VDBpyCxzNPhooCvippcGgxongzVSsiqOd9Q6Zk9yjUh3NjiKRU6oUwOpd+KnYAv2tusX/DKjakH5mc8evqaRyeMhCKr6dxfxKdvTOo2DwIrLk05tJG9T3qBwNJF/4nI7TNXszLjyeiUxKLbueIrDjy4UJy1+QZSdWNbJOnvOf1OTKPagBxkbEmVFctDVliviyg0e1kiKbIimwPd/mI+nY8iYizXbc2e0pyAq1UD22g9OkFbI+qyl02oXsZysuzH5l+cMCxrvI8uPv/AGnTj0aR0JxYmyuEUWTL8SZMFoFBBN0d6PmS40YsoWubFzpYEZnOvZl5+Zc5Uh0k9ixibqcv8xgABxPZgEbTptpZ0/TasjNqAnsnS6d2+4/2EwcvS1kVkThNAtVv9ol10W6Hbg3vKerxrpuvwZzy1WvmaQ2aLqzwxlmBC9/0g5lOonSFBPbiOx42ZQUffnbtFI7KxF7GaJkNJidJU0Y5W/lFT23EflwbeoDVzz4WcWqKBXbvDmmJQomBLEcQS1/E8UayADtzAOx3lEuTRX02UqGVbFjejUJ8DDECVJZ9xvwIno8np51err5qUZuoy6iQAANrG43ktMakJx49eRU3s+J4nyL2ofE3BqGQUASwoXG5MKojb3TUCIGiexR/6QtdjwYHJA/SPxdP6uNmLaQs1fTxK6MQ6uuxHYxJoH+CcwRKCEnbc/MWVIq+4ua0wWdzvKJa2bXt7x2JCEZtBauPAit65lWLJkxoEVzv/SB2ktl1+BjpyVOthqPu/AiQFVARVk0fMfkJHJOkiiBxNCY1AGw33uRyBWhDoyOgcChVw8uVXLb8UQYPUYtJscGKxAjKATXzGnasqvS5EIwo2TsO3iIx9OfW31V5ErxBSmmyQPPaPI1AUBvMnkrSMXKmQdUFVlfexyDJsuTJmf2qT4Al5xjcOdr78CMxYtbgoKVR+8pTpFOVImxdO7LqbDTV52m4seQZScym+xudTFj1qzajt2k/WUyaTak+DxI5y9Mlkt0KbKVQswAvtcTgwP1ecPpAWFiw+njBZy4PntLulzpiU2P1lKVMblxVxWykYEVefcvMbjJIAHERi6hM60o55uUiv6eAahau0ckrWmZWl67QjlCd94KuTdjccTCqmwwsyXJ19Sa/QHGtKAsjvOX1iMilmYCtz/edVf5YNnmS9Vix5w11feRF00zSD8Pms76i6sPfY78bTEyamHY3v8z3V4GTqCqg87TAjYmor7q4nfpxIVqQ7K5yLdkKOa7QMRXTQG/MBsrhWQ8NzFpakntEo6HKVj8xCH3cnf8AEnyEjLSRmRSAWJJNRAO5YnmXFGUnsYX07eIlmLGzPE6j8TwWVRNtngLjsa3MRJTjx1IbGkeRajVFCYBbbdoHUZAiVe5mfbovom6jJryfA2ESSL3mkwAoJ3nTFUYSdj8IB2/aW41CrwgJG1mR4Ma6gdNnwZ08ePFkT7FFdpoQDg0j7mxn8czzZQB7WDeNjHKi4R7cYNiztGjTWrcCAiUZzlCoEsHnaoxTl0enixrY/wBRjkKOSO1XXgxoUqBVQAWg6hFAvGvxVwm9fa8yj/8ASN5QWRtBGTXRUf8AEAE5U6piCMpqua7wcWHKzMW6h277bXKDjJrUdX60IWyJoApv6YALbp2RQxzOQT/qgtjbUF1tvzvG5Sz17QQTuYYxoEBN7GyfEAEooOOjqNHnbaGOm2AOR9vBjQuizQ37Q8e+4BMAJv4ZexyaT2J2gjpfvpiCGsANLTuh2G0mVwC/cBtvmAAJ0yFtB5G5MYelxrRK2R3nseQsTVA/iEWPAaAHgooCvxUxrUWE3mV7KZ6seYtNIUDWrDiy3MAGttksiv8AeYGcg+7TfNniJLYTVuB/+0MYsZxhudW2wJgA7X7d2ESxfj1AfwIIxaW1APprfaaEN0dYgALO+4BdR8CA2Eetj9UvRU7kx5QqCfcy9rM9rdctGgNPY8QGai9PjBVCx28zRlGJaYaQxoQGdnU/ae1kExIK5dKl0Gk39hgI7jD23sB89oCEam5J5/SoDe7LYJ0L9wO+8MNvsRsaoCIYzg7bCeG3yPJntRFUt3Bf1QaH28RAeckn3EKR2i9IUWarsb5mDCbtmI23M96VEMGsVsbraMAiuGhXfa5lBVoU4HnmYAFyKvIbjfiMCoWA2/QwAEBHHAsdisCkDkhdvxzGMuMEGxq7EmAwVRqJ0g9x3iA8+NSoKgC+1RIcXpVib52Eo9RAQrNsRuYOlNFsKLb8b/EYCUyaHK++gLO4lDMDj1Bzd8GKRcdFmuh3MxyhBKMzDwtiAGM7emxDNY33btAV2xJqayrdjyP2nlZE3fIxPFFZi5FUG2bfkaTAQ3VbWoX9qhFtI3BBI5G0SCAR6bG+Su9GOJYkNvRG1j/MQzyZLFKRXckwXJ1MNakgb7cwMDXk0uhLWb9uwhZcYRtlc1XH/mMAMZxjU2TKPctBi3AggdCiDIqK+9bNdxLthTIzHpw18HxH48WNn9VVF1YxgV8cwFZWuQKntXT3IkzO4JIc1qsBe8a+QH7sVAd7E1HV8WyX8NsYAe6bqLbQ5PwSJXzIlXHmYh9iOwbiUoQBp1A18zDJD1GsJHiKPxBO36xh3FRZUg2eJzPRuj3AhCYNzCH/AMxJAzYskEkniEx2rzA5PxBsEjRzNvmZdCpp2/MQzCxqztAotue8JhZhAbQAAFl2H943HlDVqNGLbfaCRLU2iXFMLq+nOVbTnsfEhTG+Jvf27mdPHlApX/ebkwq25AMmePluI45HHTPnuu6xjlC7kg3pH+8n6k5sgxqiNYG/5n0GXpkKsFUAnmTZukIxsS1bfvE3x8NYyQro2ZenQZTRXsJN1fWafsaiDU96bh2OrcigANhOZ6T5X9MEk138DmEIRb5Mp6KV6o51IO5hrjDY7PbianSpiwO+MhnWhRhdK46nFtsw5HYQl1a6LT8AxYWY2Bv8TqdNgD1rJsTemwDSDcsxhBZA7yL5MieQHKmLBjNCh3MgbqMbE2/63KfqH83EUF/NTkfwNZBsWA3Ily4t/wCDxJONtmZ+pXIpTHvvzJVw5M16VsSjP0rG/RoAniW9F0+X01S+BGmkvqbPIkqOXjxkErqKOLswceLSS2Q7g8S/qegyYshaw1m/mF/CMSGGM6h5lOY7gzxHrYiFFV2mdPibHkYHdTMXM+DKUyCgZVjzJk1BDbLMtoUm0v8ADk59SZSdxckfmdfMi5LurA/ac3Lho/E2hJMJS5IXiyBCQy6lPa6htm2K/wBJa6iWSeQb7zYyVrQ0NZ2jtbHEEr23fESFqWqXzYVRaCqKoHkzNm6b7YrHRYI7FVJ3hnpnHg34lY6fFsdBvbtxDzYmKA47ozNz3RSmrOTkXSxB7SwY9HTemRWr3aj3FXPN0Ts9DjyROhh6ZfTUOb0jvE8iSJnJJ2c/pejbqPKjm6l69EMJDUWYd5Xjy4sY0rwPiMXqMTbd/Bmcp36Yyyzb10QfwrZNjsLuNPQIosm5UMw7LtMyZCQQpo/MnkkuyfkmyU4cDoVFXJsvS4sfvGx83Ny5MyOS9V8d5F1HVkoVYWDsPgyoqT6No2t2V4nU7ahf5lCgpRPP54nM6a2ya/AlbOxArdviKUdlyjb0blZso0pvZo32j/TXHiGLWSWNbRXTYnZqC8nmW9T0mNcuJmOmtgO0aToynJJqJPjwt0QZixa+BI8+cPlDA6bUkg8f+3HdTnJ6hlYnbgcSMYgNTu4ND9v/AG50Y8XrOSeV2Q5urfbRab2aMf0/V+t7cpojjxJerZdKaeWG8mR6YbTaWNNE48rUj6noax7Dnzc6aPtuROB0uUFFZTOgMoAvb9558rizomuTsuL0aHeLzZNLgDvEeobBDXZqKUZVyMXfYnaSlJqiKSGNlNsGiXcgsW/zzPZdSqDu195z+oZ7Is6NVj4lxx72NyQfU5UY2RZMmfSWY/rGGjRJuJyZAmwOwPM6oxpGbkA2ksL7ja4pmOuqpR5gPlQgUCSO8Aln5O3iaKJm5G5MjNsvEAKSAIxccdjxd43KiVGxS44S47MeEjFx0L7mQ5F0AmONI0iu8YqUN4KrqezxIcikjAAiWTtOdlyHJkLSrrctAYwedzIXND8zTHH1mc2Yd+IzGjahQH6xarfHMfjxNqANmxtU6UYMpx4nce6ht2EaiZV2Vx+DGdLipN71maylMihE917kxgbqQBA4ZW72Y0eiNixPwFNCCNBVldgD8955qBGPH1BAIvSTcBHsWTHlznQhAoAGtpTiLEH2bH/UYIZSqFRTEXxcPDZDWbIPMADRL3Y34AnsiFSWCgXyfMOlFfPaesMtH+8AAyM4+0A8Cpo9+yof/wAosuRsVJPBMPExqtOkkWARzABooe278GeY+2zsPAEnyZFN7Hx4iR1RtyUa0FNv/eAFt8CrPnwIAGVWGk3fH/mD0OcZsbcWT47R+tQBR/WACXbLkcKG0AnkG5P6RQsgync9zKjlFqd63vaaVxMaYA99xABK41qiS35bab6KMTqAr/8AI7z1Y91IAr4hIMZcVWo8bXADF6bCBvjUHkd55lw4waQA9vaI3LpKEEHT3I5gqPYyg78AkdoAKshjZOnsIDZMyEsmPjj5jaK7ndfIENWY99u1CAAjKcuEalKEwh07A2SSDBOW00miZqu66QWJWvEAGsgC9gDzI1ChsmVTq1vp5jOr6zHhx2x+BR5M904OPCiOQR24gAxGYrYIA7iojqunZlDKVBHO3Me5KNYA2mh1ddm38RgXqigFTVA2JoYDejMysERmotQuvMnActZ5rYFqoyBlerYDaecKR7jzEHVuBkA//WAuIsdXqmj9oA4gA448YNKNxMv1G2ABXkQWQpVvfgnzCCAop3J7keYwPWNQBAbe+OIT5FD1rr8TaCVtW25MUzF8gA47xAaMtXbccmqglgy7ke07X3nmvm6IHeKCK5evcvF33/4jABQzBnxjRR2B4JjGZsmO2UhvF9o1rZdJXt3imHuG5oDvxARMEYv7ciJf/bvPP6wbfO5WtjXEZaMf+musc2J5FxA7gB621AxgAhcf/wA56O242H5jUx5WUOcpAI/aIfKrOFQkWfd8mMGYNa2xBWgPxADfcAxGcjTM9XIWIAJFbgtsf1gYwWB06fG5q5V0yA9UVBY0LLV3iYImzZWTIMfp6tgdaE7Azx6fHkUNqI3/AKv/ADNyO38SWVfabO01VZaLKAQdjADB0qI1hyD+lGNxZSq6UoKSSCJOz5HJF6e53i3JBVtVH5HiAD2yEZKZTqB5MNcrZGGw82YGYa8aOQASKIWHhDIAeaHBEACUshPOnk7XKVCsAwNGrER6ureyIk52VmOIWBWo3aj5iGdBHs0avt8wyJz8unUjs2rIDYbmvxLsbhwDObJCto2hKz2mpphkWLinIG37zLo07MO/5M8BMUdzCqSM0CebYTYJ9zfAgIwChN4szBvNMBnq2szK7ze9TGO4iAE/MZjyUNLcdjA5PwJh3PwI02nobVjjVHVRiSwooTPNvXY+Yt0XK3vGlvIlNpiWgHwJTDu3ec/+EGI+xNyCb/2nXXAKPBPFzdAIAr9pPCuilM4WbBp1AajsLA7z3TdN6Gdl4TTZudDqhoLFVo9q3k6VuctEEASOTqjZO9nRxuF6cHHRsSbpes9ZnRtnViKnsLqMBVztV0OwkIwD+IGTGW9p5u7kKKaafZKjs6eTW/2qbqSnN1GNQpxhQdtUWfqCpnfEbBr9JQ+dNCljuY9xVMpaBx4tbKpFkzrIi41HEi6Eh8heu20ryZLbTVACXBqMeRjktujzlC9CriQ6K5UniCDeTc79pzusTPicMGO53+IKbeyoY7dWUdb0Yzi+5OxEl6Tpm6d3ckE8XKg+Y4RbAiuRJcgyLZVrvfeLl4jVXXFsHNgLm0IVj38yd1rY8jkxq5c4Wim54kjZHRjaUTzKimaJPoRkQqTttBx4yz1KfVsUyx/T4kZgSp5mjm0tg1+nseEen7hqNV+k83TqqDSSSdjUty4F9rLY/E3ChLCz+4mHNi5OuxnT9MPTRTxLzgUIARQEUiFKqzceSSKAlxddnPOTbJ3xUm2xivTbkjY8ShsjahS3MQO52FCYyqT0NSaRHkxhTQ3PeJVW9UMsq6lGxsXI9vmJQ/1K3/mLaN4y+pXjspRqE6UvzF4bYgnczOqzDCP9XmCWjGnypCcoBQqRvORlxnIwUC6O0ty5RnGrESfjxHYulKU1AsR4lxfBHQmorYlOnbHgC0bPJlXS9KzmyKAliKoxKcgqto5CuP2qKFcytXswlmdUjwXDgUWQK+ZD1mRcrDK26Y91s0IrrAhyjh3Y7We0k+o5EzdMMWNuGskcACUm5NJdGaVbZP1rlbyEE4yCaB3J7X8TmP1L5EOpjXjtHnK2fH/MfSo2Nf1RJ6e1JFAfM7IulRhON7J3YmgTcFRZ2h0N6jUBqlG3eU2TCFsv6UFUWz2m9VkyBV0k7kRfT6iCCdh5hkKjAsd+anLX2s6nKirpeodVAZv3jX6pVfmydpzmzjVaeYnLnoksd5SgZNo6DdVexNknf4keXqkWxe532kLZnbYbCYiWZqo/pDl+Dn6l2FJ7RE0WNkkw9O8aqbQugoSEjkx7QkS24j9IEiUi1EWuOzQlAShDxY6Go94dbTNyKFpjs/5jQu9xippXfvNqhZ7SbAUw7CA5GLEWPbeUKvc8zmfUM2p/THA5jirYm6RI7F2LHkxV2b7TWuqhYkLEbTtijmkyjDhv9ZeMBOP2j3LwTA6dP5Zrn4laPR03LIA77g6zwAe8xUfT9rEk+49zCBxsxciv6LEdhxgCsZ8cQAE4tVPV7bCNRQx1FQt9pqMWRiQwIJG45hABkJr/AMQAHFjCCwNzt/ea5CH1DQPeDjyBAUJs3xfmec69iAo49xEAGBlrYi788zRjBeybuKxIVyCxsOK4MofLixjWxAA23jAnyKqZSNXO43gFzYDOGYjseKjszAKxGPXkH2wPVKkezST3qAEj5gwGhwovdruKyMDmx+pmf3bWeP2lgDFTSKSD4g5sGU2TosCxQiAwO2O19UBjtDxNqJ94+CDCXpndFLZDt/27ylVAx+yjXehABOJGOrW6N+RHYU9pujR/tABVswCoCQKJPmNY6ft/pO/4gAD4972r4mqUAUgDxuJ7L/LUuxoc7SMZcXUEEMUIbbeAFZcPsVauQRBYbggmh2maCUsbrX7GDe5TijvYJgAbuQQAdvE8rtW40ycYWDMWdvFA1GnGt6mW/kwA8zj+gai1b9hAyYQ76snUOa8bCvEcqK+mhsZ58SHc8j+0AJuq6TF1WAemiDww2h9OfUwBXNFdq8VGriAXt/tAYfw+U5DehqDCvtPkRgHjJBKu7N+YWtbYNYPx2m0bJoERZQ6rAEAOnpseSeLi8iMKIIAA7iMQ+3gXMyYzkJGqz/psSBnsdMLYjj+0zRjD+oo3I3IPIgYwgC1bdjvDJNfYTpIoAbmMAnXUdWw222nlQqBX7QrLJ9pBPYwae7LqK28xADlDFbIG3mCqsuxOk3tQjBpLFWeyRe4gZAqspOTfiidvyYwF5kukLc7k87RiMNekC9t7MJPTdSAdRHO00KFHA3iAzIxCb6QAdr7/ABJX3fUu5I02PMqy+mwA48ERJxY1IJGw4s1GIlbEzKzMz34JAqAVxBQhYauTXuj8q4VBAVWrfcxavqZWC0B/p7jxGAC4Upvdpc72BW0PGmwA1E9/jiN/iNQtkGlh54g/xJG6hfcKFjiAUCLX3Y7LA8aZZhvNjDanHwdt5LefJi00VI3sGrEDP/EKV4IPFQAewJc7BDdb94Ga8am7KA7bRLY8mZVJKqfxDK5X5cqSKAA2JhQCyrugKVpJ5PaaiLfuOonej5gHA1kjI+/+n/Ew4lRTTuD/AE6v8wAoQZEUh0CqSKJnvXVPkk7VJ/VGMKqp6hYbk9phxi9RBLd+0AsfQyOWzHjhQf8A244hgvFCuxqTglGUMCTzam7/ADAOUFfYOOw5HzFQykHTSbeRZ4+I4O6EOpBTxq4kbbrY/q+BzHYmyMmnUCRsd+8TVgnR0lfUoYcGA694GDULDNf5jqvmcmSNOjojIUP8QuTMqj8TRMyzzGhtMAoVMuzfbtNq9vHMOxG1M73NMzvUGM92+Zk8Z6IEe4FTwoTBxZmcxDPeTN4E9VmeJ5J4gBqZFVqNi/2jCe4kwFksYW6iwa8ylkrsTijOo+y5zcwJS0sqN6vuJ0SbBJ7xS9PiJ2JUnn5kNW7RcZUqZwxlylnVlagKN+Z1XRSPTJNaRTLyI3N0VglNzXeJODKWLsDXFDmErflFJr9OV6WjLqUMVrcv5lnTIcuUBt172IQxtlf3A1+Jb09INl2/EU5/pdpLRZhQIoCjcTMmx7G+8A5CRsNh4kbZvUzgqXAXkHiZN8jJRbY9mGJg7HfivEeWXLjsipzOpLYxYYO5/priHg6msajI6hjzvKVpWi3H0avqZCwQ6SOLETjxOl6zf+0pbMK9o3rxAyZQU0gHVFa6HbDx6HUUBxJsuIDbSPx5jlIVCNhfe4kqDtdkeIchdMk/hUZ707dpbhxIqrYrwYWPRjYIdr+IZKspoAUdrhKbZTk2FRKAjjtcLHjPJAmI5bHR4jQTvfBkJr0htjSVRbJrwTMVgSK/WeZRk0gdu0IY9JmjUm7XRnoFjpNCjcLUAeREZCSxGofgSXGchdmALUdh4iU2mUoWrLOqxjLhKudj4nHbBhXKFTI5N1QOwnVyhsiKp5qZi6bFiSyfdL5X0XCXBA4sICBrqvM5/X5MhJxj+vYG50Xze6gNgOYgm7JQMe0hSSY032yfpen9FFX7vM6IHuG1ScOEohDd71KMLBgWbbfYGG5MmT9KAtrZqgIvJZUDfcbmDkzFF29zDtcDJnpB4hKvCIxdkebCfSyAbtVBpB1Gjp0XHixEsfucyp+odEyO2rbffav/AG5ymyvlYl3bi6A48TbFGXvRq2C+L08YJ9tHcEd/xEZafFyS357Rrk5Qzmy3NV28mA5SwtkAcidUbMpU1ROjaG+0MB2jcNWTdd4JN8bDsITUo1duBKezJOh4zgbDc3+gk+TOz7+Ykud6PM98CCikS5tjDl0ik5PJitybJuEFhBbMekLbMVY5RU8iXxGBRchspRMVLMaF7DvCRNoxFs7TJs0SPIlbw0TU3xDIoACOxoFWRZRlQsaams8DmbVxyroX57xAARbfieIGqjwIfAuKY17e8QAdXmGHCx7zgsxZiTKeuz+pl0g2qyMntOrFGlswyMzc95R0+woqTXMXjx6jV1L8WFkoABhRPzOhIxH9O6hLA2+DG6RsVss+w3ikw7ga6XmiKlWFA4J0g6dlbm4xAkAZABhIA2DMRRjQ5RCyrTeOZ4OVVRkNqTQfx4jV042tXO/btADBlL0p5I3NRhWkoczzhR3r5ExMgYGxRHc94AIbp1ORGJ9xWrqM0XpuifBnsrBMinbc1fiEQW2BHPjtAAdJGQGxxxFs6qAAbF7jVPZnYe1iQnfbtFYz06n1AxZTsBVwAJmGJq1FC293ZEFXvG3q9SCBwbAMBFZspGkDST7iNyPxN9DpgyvobUDs25gBo0ISB1AFxq04oMGF83EOcGM5GZXZm70RC6dEZdYxsLNUDyIAdHE4ONQjDjtNPajW/wB1CIxhNLaU08bE1DbSHKnCuw2rcGAGkIl26n52g+rjyIyjILrxMOgZcdKFhJjRQ2kEWbMYCndwl+mXFb9t5z8qZMHUAq2nV7vgTpZMSP7RquS9SjKDrBYgWN9ogPL1GTE/vYnT37/tKCwykGxRW743kXTD1setd9693mVpjyrgIe2ZeKMAGqmht/zc8u+xPJiwXamXcc7mEGcbcDkmABv7aANjsJ6wTwSfxtEvldWHs1V4PExsmYqdCfu28YBn1Cy6H0qPuAF3PdSVWjvWpSfxcUWzh7ocbb8mBk/inRlZQSTVCAFgoDRsBMFC1JG3eRLk6v01NqRW9DeNrqSA6nkVW0AOppyAAP7iN7QV/aeBxsS2N9bKfcb4/MIPTEm177AwSUV9Sq5LGiBtJGFqx48nsUfJAjddjigfPJk7MV92NXc+JvTZXyK7ZaUg8eP1gA5ddncA/EXlzpjU6hZI2PFnx+YxMmNnKqdTDmonP6YayvB3Lf8AMQE2Lquo6gphOEpkDe4tZ28R+Y5l6rHixpSt7mermvh9RGC5MieodRZTuR4mJ0mRU0v1DsFNqdXu/UxgUMStkqAt7ktVCLzI2xZlC1yIrJ0eHIhVspKtuNyTDxMoUYA2T2qCGYciIDVxKN3a7257TWOFdPG+0x1QXqNX2LUDCQIqilA8CuBGAiseMFhjDA8UIl9NM2ktoPu83LS216D8ASV9YVnCYyOxJgIQGxuCqIwvezvRjA2lNRVrqqC1tF6c2qvUCHyOGmquTL7Q7EX7qjANyGIY42/CiEcruf8A/Gy8ckwVU0BrfZqNNHIwx5kDFrHcjb94MBDszkD0G2/1NQgqcmoViU//ALf+YzqSF6x1IBVlDVFabNaeO47RIbDGVr2RF783U8ztloFEcjfdeJOAC2gZCdJ9zhb/AElno6aOI+67J7mMQrHgcAAAWe9VDHT5FqjQ1b2lykHIQVNgVtQ5mU2pgd9tgYASZEYsAW2PYCp7HhDHYVvRPcSwHGD71Ibvcbi0Va0wO+8VjolHRAizxVVdTV6fQdvtA8n95VVAkj9oopdGu+4rmADFQWdxfiPk+IMoFnftY5lCb+KmWRWi4OgWG0Wx7eY9htJq3vzOWRsmb2qFwKmCeJiKPTDPcz3MQGHiZudp6+8IbCIZh32mLvBJ7Q12G8EB4+ILG9uwhE0L79oKiKwNAgsbNdu8MnSIIG28BgnkzEWzdbQj91d4wLW0EhWBuO5i8mbRQIuNcgAnxJGGolj3jc3HoaimPx58J2Bo/wDcI8AMNqI+JzQt2ANzKUtANJIqUsnLtEuNdFAwrfx4gZemDtzt4nlzlaDi/kR+tCuxEfxwa0K5I5eTB1IykqVKfAkfWdG7OjDY/M74I28VdxGca1LDfbiLg1uJpHI72c8FxjpuR8wHYbb7+JUvTgAsQfNEzT02PVqZf0maxMpzRIW4YgkfMbiXWxFkEizUc2FdItbocRiKEN6aj+PZLnoXoA2HN8zyoVBL8TcuPIxXQQgBuY+plXUCAP7weNApMYlNsNxKEQVvEYmC0O9x4bjiEccbtkuTGqNIgs8wN2JFzDQPz2uatapELvZLkx6CaBJbvCwY2vjaPU+YRNAdpksO7st5NUJyMEJBYi+/iIVy4JRrqZ1oyMh023apD05zYA/trXzXAkvGUmBl6llNZEJJPAMvxkMBp2kSYlBL7MfJ7wD1B3RrAGxqJxT6NXssy9SuJtNivPmC3UBMTtyRxICBkYsUZvk94vL1TemyqhWhXPMtYyXSHn6j/OQHg8x+XOGW1J0nYEzmKmPJiD5G0lTXt7zodNlDYaoIKA3HxNHjj4Tzohzo+Vl9+qrseIjMMqDQgJHkDmdZMaKxfRfckQcuRV+B27ky06Ik7OXgxlwMe672xlL9LiQXYIHO89myINTpdDdiPMnbqdW1mu0rbJuj2TGgTUKX4EmdrsMSfG8PUzdpgxSlrsl7EabNw1SOXHvDGOu0bmJREhYwY+IzHjs/mOCAbkSHMtRFBdI2hItm4ZW+IenSszbKo8FuhHolb1tMxpQ+TG1/SP1kNjMRdTRxoXPKmkTatgIgNxLyT2h1vCqgB2EziDEKc812/wAyLrc/pYTv7m2EtagCb43nB6vN62Yn+kbCVjjyYpOkTk95g5nibMbjQeRO5I5Wx2FVxm2uueJVgcMQjsy7VsIvGqqSWzAWNhCwtjdwwYHIDsCaliKA2AuS4YgGvd8RmPqMCAKrbj4lGFka1Zd6s3xFnOiMyjExVRZocQEL6nq1GEq2PIQedu03CzZGDDG+O99jQrzUNg+bKH9M0yUA03H6xBApSBQuoAN9LLRIKsPnvPafaNPPgzQ+Uj3aRvvvMcozgodeQdh3gAeU/wAoMBwQRc0MasqLriaA+VNLBQpFc2Yn0VBt7cAb2TvADzZEbb0SSN/MT0uPSjN6TAsxBA7RqZayHEuIg9r4lGIaXtmFn7hACIn0zqXcj7jUIdSqgF2YKdx7ZVkCgEqASdpG2vsysAdkIqvxACjVierzMSw4g3jD0HavjtJPVy5AQroCOKEernSNwRy194AVgBsJ9x833MXrXfSLvuGgrkWl9wq+Ad55VCgLWkdjGAxlJINqNIJ53PxNBYCqUH8xLZF0aVNtqFRykkcEVAA1AUVe/mKz4UbEeP1nsjkPpWztv/zBydMmVTbsCNue8AIlV+lyq2LT6TGiPBnSZiy/aVU8mKODD9pVdxe3nzGaPZRO/kQAkDHC+wULe0oJ1gWK72ILKrMNgaG03AhxJ7jyePEABFWBqod57N1K4Sq0SD4Fw3xlsi1tVkiGUGrY0e0AFnOulaT/AMT2XIWqla62qMYewk0T2MBdQUar+YAK6ZmBGLIAHC7UeRHPqGxKxT6cr01qUNqw7TyZWyZfSdl1r5/q+RAC8OvqAPvvyY4UxB2IrzEYjjZdOhR24j9ar2G21yRmhdC0OfiIcqzLqCsB7TQhnOGFb/IERlyC7H28EGADNShlJ13X5G0YoO4OwJ5Bu4u/TBDLsRf4jkNCmqu1QA8dasDp1Vsa8T1sV9rKD45h2KP9jAunHdW3vtcQAUaA/pG1VtUNSrKH1EV+1TGAsgm738UJlDQ1EEjaAC2KZMuo0aG21zDmfakyAcfbz/eLV33pdS8VpqogrmXqNi3pkb6vMYDmzZFyhgpobe5u34mjK7oBsBexWAxzaVIKVVgheP7zyLmyDbMqkj/TcdCCGI5LF6tt4WRdDrkxY1dl21K3HwZiYygFvqPIaxZgtbamxv2o6f8AiAAJmXID7WDHlQQSJts43xZSDtTAf8xWUO1MoByqKDWNoLHP6ZJcCuNJr87d4Aw3y6GFq+rgDbcQmxuWDP7VBsqvf9YtcbK3sIBa/dkNm5XgJyAeqo33u4UAm/SVAFpaJB7/ADG4cwXTub3oGHlQuxW9mO3zJ3B3NgUPtiAsbqgvKEk8VzUT/EKKtDq/NyMFdzk1Y2bcMwsRmPIi4z7gFAoUNz8xjK0yo5axwNr23hqVFUyqAaAHEkUKw1MzUOxNk35lKZU1UEVdQ22EQFBGYrsVH6QSSq2zglewMW3UgbbleCfE05EpdvdxEA1silNWo877QsfsYLRF+TI+pTK6MMGTQT3/ANoXRrnxMfXcZLIog3vE+hp7OgYl+aj+8Tl2Nzkl0bx7Fmp6YDc8TM7NKPGuBPE9pg8zwgBo5mManjtB5iA1BZ3hHc1MHtmM2la7mAGE23wIY2goJrHsOTxEMw7n4E07CeG0z7oCPYwC97xhgommaxpbleCYrISx0jgcxDf6RG3QJgImprmctlrR7GmnfkniOoCeHMx+K8xpUhAN7j+YLIWQgHSexjAs0jaCA5uXqer6arTUncrwf+IS/WE02Re++0rI3rtFZOkw5R70BrcdpopoTVjcXU48yWGF9x4jwDpJ5kI6fFi+xQDGr1DoeAfMtZI+kuL8KQh1AmC6vWlQRA/jLb7ar4jcWVch+4X3AMdxlpE7QoatlBPG5M1kY4xZ3vmE+JjkLlzXgQPW0EgixFx/R3+Arhpb1EnyY1aVaG5PeTHrMeJ6awp4uVYWV7fUKMIqI22boKnXuSe5iuoORRa8/MqbKgQnahIM/WAL2o72e0UkukEdsbiznhyL5Macnt4/eczp+tR306tTXVA7D8mVvmL1p+Tf/EFdbG+xmR97oXMDKUvbeQ5sr62JuhJn6lg1s2xO0LCizLnxruq8bcSXIuLUS/POm5Fm6kpQYgCSZOpc+4nmUsdi5UdpcxxqAukDttxFZG6didVGxe/ecz120DU2mhFP1BP2Df8A1HmWoEuRfnfGuyKAoienzsjFnyLpvYE3I6ZzuSYYxx0kFtnRyfUVIpbPfYSV+oL8Kf1PEFMXmOTD3IktpDSYgIzbHiGuG+0qXF8SjHhFcSHMdEi4KG882Oh8mXFB4/MSV1MZLkNImGPvUJk3C/vKQlAmeXHY+YuRVCRj01DdfaF87mOVfPAg1d2NzFYC1Xc+BNC20ZpofHeGi94mwPAUL8Q8SdzN0cDxGaaFQAw7Q0Whf7QQNTfAjfxwIAeA8wGI1UITGojLkGHGztDYiH6n1Hpr6SndufxOQTGZ8rZsrZGO5iOTOzHDiqOecrDRfAJlOELdEFb7kcQOnUVZv9J0cOkAgLZH+oVNzIA4cTKFtdT7KQY7F9OTE6lfuH+puZQmQe0oFrwRCYA+8kgDc0IwCTLiQ2zqGqquIy5UytkxHKFUjdjsfwICtj6nO4YsV2qjBZsOIsrYWcKTux4HkQAzGVTJYzGiaBZrsQsT4fUJyFy5P6RaPibG7p05YXvt2m9O59VbxAAjuYgGZMnTjIffV8gCz+8aeowNQxFyV4oQj1KWAuME+AJuHNlcllRAK77QAFeuW6VXNb/bKB1iPj1em+5oitxAQ5Ctk402mktZvOgO2yxgB/Gp/RiYsNtxMHVMcgYYGBII3niGJB9RGo71+Yos1Bi+plaxQ5H5iAe3UZK1/wAM1VvvJz1GTVv0prkC49wXS1s3xYNQMmBqoKuo1uVMAFo2rNa9Mijyx4m482XU7HCAvgnb9JvpdSlhceKiPE1cD1TYcYvkAxgGvUIa9qLfBhnPgohqu+fMS+HIGUEKu/b/AJhelmWhrTetzEBuvHrUi+RdL2jkzrZBR9juaifQ6kvXqKSbu+4hLgZSAWFVsO1xgEzjXtjyHexUzJnIe/SbT24hBcoWww25Fdon08hNF9uQ1b/iADTnax/JIJP9RA2nvUyMGIxOtea3iMqemq5MuR8hU0FahvAxF2ALnIoH/dsYAV4siZUDKDZ+IT2yFBeqt/iT4sinJ6eOyaPJ3H5hnAQ3tYHySxgA8AAKAwBEFsoZgANxyYkJbblAfAmNjcHUuUCviAFBZDYLbeII3cgN2iGxZgQfVAA57RbDISbzjT8GxABzgep7Wu+NoHUKGTYhnx7qK8dozDsls24+3biK1k1Z2ujYgB1ywCjQoBr8RZyaUN1Z7wvUR1LalN8r3kmbKntAAaudhtJGNVuQ2Qfnj/EYRjFbqCOQZCzqunYMDDx5SzVW1eN4CLNQavdvxtHqyn2kKf0nPUvmf2ISF3HaOXLSENsfMBlLuFql2+J5nAUDSa4/MWMuoWnA8wWYMCdVOarfYxAM9qY61KKmDI1kLbA962i1yAUUsA70ogt1DBiK1Ko3oi4wNYstsylidgB/mAzZlQkhQoHcTXyujqQV2Hmz+InLlY5AwYiz5EBDThV8ByMwJI81cmbQqVj9MHvqY8fiWP1CNhGLGpo7bgVImx4ks+5dP+nvGA9MWNU1H02yDfUDxBUDf3rZ/U7RYI3LBqPbXdz2vQS4CgcBbgA4amVgFNnzUQ6n0yv2k0o35vaNHrE6SeaNfEUNTOW1UiGlscnvACrLiAZcgQb71Vw8elgj7aQO3eKR2HtD6jxpB8TcwfYq255AO0QHs2QKdR24BBk7FCwJXUTwG2sTxZ7FqTvQa6qey9OrgU5BNKCfHxAA8IVsLE2FPFfHgQTg0Lq7A/cwNmG2MowXQxAoAie9J8hC3db0T2gAOlcZIJFE3zDDhmCqAtE7kc/ETmDq1H3EDtEdQMqlMoJYE7KORAC31vVVhpCkHexzGl1ZVZtSsD24gJftDAA1sR2hMiaAGez+dNmAwv4llJTSG+ZVgxrkRj6gYarBRqqQYUxDIQmRWJ+bEp6Xp1Tqjlx2ob7gODJfQ12XiT592AlEmzffOXJ0bx7A4E9zPHeZxMTQ93mzAJ5jADG3M1R3mAbwr22gB6737CAPcdU1z/SP1miDA0ChMXf3foJ47nT+88YAeO5ocCao7zAN6jAIAZdbxLtr23+DDzHavMWp0/gCJvwaR6hUJFofmCu53jBEB4moHO57zW5C/vPARgEBQuC3NQyQBvF/mAGDcmaaAngJ4m9u8SABh3glQBuIwC2+BMyeIMBAXazxF6DqNcmUV7fxPItAmJDF68qABXP4O8YczAWyqZ4LZuay3tLUmS0jmddiz9QQoKLj7eRG9FiXpTf8QzfkSnItmvEAJtK+R9Bxsfr1t7XXT47yLqvph6hiwznc3pMI47M8VKi1JFfMcci/BOLIl+l5OlOsvZ/7QSJdjvAgOQliIOPLnFe6weLm5NWQk9+I3NMEmIy51UMSbJ3AH95B1GXUSQAp7XGdRhIJAc87fElPTvoO+53Jlw49sUlKtCGdbYkltV/pBRGPvP6XL8PQAY7cWTvGtgoAVKeVdIhY32znHGTuZoxb8S70ZowjckbSfkL4kox1HJj2uNGOzdcxqptxxIcxpClxFtu3eULjjcePSu437wwvaZt2ULTFZuPCUIYShNNKtmMTJ8ooaRyeYK46EYF1bnkwiABtJGK02fgTdNQ0SawpPzABDbmuwmhe5mqLPwIZ32iQxL32Eci0AJ5Utr8QwL3jEeAmnYQgNp5Rqb4gBqLpX8wuJ75/aYTtGIFjZ+JxfqnVa8npKfavPyZ0euzjp8Ba/cft/M+eduSTNsUL2yJyrQDEcRmBdTcXcWo3szodKgqgd52JHM2Ytrk0DHuePgzogOVWwLOxiSCuVCAPzUqS/J032lCPYcT43ZTupN83KKxkFfuB8xaOSWF0ZpZUBZzSjv2uAA5MGLSD6hxb9tpH1WHASAcrElh7ydv2jfXXPeM0bbax2nmx2RpwpkUbc9++0ACGXpBjIRhY8DmL/kqB6gyFF423A/MauEqNSBLsAqwAqaRmGXTpBsWdX+0QHsXpMdeLE5NVpuMXQ6e3B81wYpMeYEn1FVbvYxaNkOVmbKtE7iAFIoMQyUbuidotEYMQmEv3viovGA+UBHbQRd1GP05x5A3q5mB8CMATnZRpOFgSaNdv2icLZBkAXG7EHudo3GAuv2PqY7Eme6bEW3fGxJ40kxAO6cZMaqMgpbNHVsI3KjuRtXewYSel6emjpuqN3BQYz7cgJHZmJF/EAFridGVGeibIMIY84Ue5Qb7ie1F19mH2g7MxPE0qr+52PwASIALzHqEumT4NQTkyKNTZUD71qHP4jGGEA2pF7bXDGLAQlY7ri1s/vAAEfO1upW6raNRcpFuQbNgT2NEfUMa97IjcYrHRqxzUYCc54Yc3Tb9onJkcexQv/wDdxKciI+5BrcC5MmNacDGQ4JAJ3EAMbI2XFTBa70bMncpjRQoVgeSTKmxY2UY/cR3i8/TjIAugUBQqACcSJjoqVXayQTZlmJkZCS3u70YlOnCBqG487iOAD4/5ZGqvEAA/lsWdDZAraMQaV2J38meXGtUqi/xGihYKjb4gIRnV2G2ogDYA1EYg7LoyPRHY943Kb2Be/AG0k6gKosK1/wB4DKw5RtJCgXW7VNHvvUBXY3OYuNHvJkLX3Bmh8Kke06RvyYAdNkQWTkAb5b/xAUo7HU11xZ3lDdMVoLpAA5Kj/mEMJO4bGXuh7ZICkKN7aU72doRVmc6WWh2jThcD7k35tdpvpOq6VyqD2tASIDB9ZMJCCwT2EUNGT3WbMdRC6sj2b2GibjwqzFi5o/8AbQuAhV41UBUs9rPMYrAsNKgEirAnnxuG9uSm7AgfvFrjfGAFyZCS39NQAF2JLY1bY7k+a7CKCsuSwpGnuTHNjOk6mynzuNov0zQGvICNiNXEYA68hPqFboj9ZmXWX1AuVA3A/wDieyK+q/Uer4OTmaiFW9p1g7H+ZRJgBoGYgUhq+bhtiy8kBmvYWTDbBsKDKNr1ZJvpkbAglTzcVgTek5N0C17EGCy52JLohX5FVHnEWevYCTZ3mMqY9W+MbVtvGAl8fUepiYZAr3SjxGMDQxFkUodvnfn5m48IZPUDAHsCOB4nnx4xRL4zfhSYAebFk0kB8e57dzF48b5Mla11qbFmGFbGDpYsCP8ASf8AiM6Uq2UhtZo+4laqAHvSy5FdMhoWOf8AaamF1xMEYflrsTMjtyC5+K2/MBMuS97IOxB2gATNm4dNQbweIOlbLqjil7mG1sxX2AMdrYTEFNpIWqNgtdwAHD1GFvamIq1b2eY7DmOQHWi0DQN8CKyYv5xZCoJFVVwSSMnuyj3bEhfEKAq9RceQacXPcEma/oBCGxlidyDFYziQKTrPfUBW3ioOP03zlQDp/wC7eIB+HSmW1LgqADQHHzLOnOrI1faNv1kSYQrlVVj+BtOjiUKuwq9zM8jpFxQ0yPI3vJlOVtKX3kZ5/E5cj8N4I0f3nuTUy6E8BczLNJ2mcmzNPiZ3r94Abt3nrCguZ477QHOpqHAgB4b7nmFdCz+sxRvvPfc34iAJBtZ5PMz8zedvE8Nz8CMAl43mk0s9F5GttPYcxsS2DySTPMPbVTQJskowCgB+826BJ7T1/vBO5rsIAeAJMPieEwmAGNvMJnvzxMXzBgF8TDt+Zva55fJgB77VgGExsweBBgeO+08fEIChc1V5PmFAeAqYRQvvCEBjqMrpCF6YJAuhGnaCBuTIYxZT2wGWwFjm2WYi2CTyYABo2v8AaCwCi+8eRt4kuU6/aOO/4gMjdQbY/wDohY8GtvgbmGws0BvKsWLSoHc8wTGxfp94t8VCVkf2i2G/94ySf0tuILpwo/WVVS3FhK3MLARooQ0x2a7DmNC7CGqVxzFYGVQswsaHdjC03SiM4FDtGhMED+0Sx1NXYRuQ0m0UoN12jbGja2JngtwiIQ2EQGAdorKbahxxGk6VvuYpRvqPaJgZp0iaOLM07/rPKLJuCGaBtXmGBcECzUZwKjEC20KqX5MxBbEmaxjAwnaCTtfYTx/+JD9U6n0cPpKfe/8AiOCtkt0c3r+pPUZyQfYuwkTczWNDaCos7zujGjnk7H4EDGW4B/NXbfuL4EnRkxhQUJvmhxL1Gw/lsP0mpA5gAANPDAk/ENgdZazQ7AT2Fjo95Wz3AhK3qXjx5AtbXV7QEMwsHIrgbzcupFKaA48MeIgq2Igeq5X42veO9NW2dnFnzAAGZBjVTSOxpd/1iMd/xDuXSgbFeY/L0hS3Drpr7WF/rcXhxK62rkqNtu8QD3GJkBY5CTvQuTZMfpqcuQOCdl32BlChiGRiaXg3uYKYVfEyrkZmJNlj3jAUj/y9WfCVK76u0c2TGuEuCiBu4gZMJxYqvUewLGK9LEMoxkIVb+m4gH4nBdUxnGFAtr2v8TOqy6cQCuFYnZVO5E0Y/SxhcWNTtsTvF6XtqwIGHBAsxgNw5cRx0zIR23jzpWirLQkmK7LJj3PkCUD3+4Yl5rcxAaQu7B0F/M0oWCgOpr5mrRbfFjIHxCCJVhVH6cQAScRdrV9NGj33gtiZP/5ygd7lPpoGJYDfcRTNj9SyoIJ52gAWNBdswJO9zVbTuTXeozSGFCqgOmlvtBriAAK1WQeR32jNVAAOtVEOnqZULNRUEgeY8YsXqatIBrt3jADV7dmBINiS5OoKZci6wCQK35lTekCzKBfec13vLqJrer/xACq8jAMpA/BjcS5SurKFIvhZMmT1DpJoHkrH5C+AqAdW23iAGZMbWQXUDtJjrw36b6mG/uJO0fkNkuwHBreTFVIDm9/mAFGLL6lMWVXYbymilEuD+e856KxGrGAE83R/SUJkHDIb8sbuAjSC4Oi8a3z3MW+O8RWxR3scx5yjIKuwYKqiBhsIDJMOFjuyWp76rjv4RQnto+BccURSFAU7/rMIKUyjbtACteo9ilUWj2MZ6qhC/tQg0SRW8MjQTs34raCyAqxo23I4MkYJznaqJ80ZrPk06iAaPFQyg2IvaaATfIgBMM+q7DN3oLxNxsTvyT8XUYGVFsA0drvmJOdUbUFbSTQ35gIJnVbcqzMSQdq48QBWTIC2PTtwQN54BGQMWFsTsO+5imCrZCoSDsbu4wCzriB8knTQEBEQGi2sEbrW08DbNS+8jseISsGe9VHYhb2PzAADpDjQinsKPb9oa43yP7cSgg/rHYgoSmurvcSpSoHx5qKwoUUzMgVkWzzZ3iPUy9O24QKeRcuZwFutrq5LnypRZ608X4gMlfPmLf0Ek7KAbMXWQvrIBZTQu6H4jrGYexf5f+rz/wARqImwbHoHg7iAhSDPrtKVhuQTd33jHbOzL/MXY9hGgqnu0VVi4IYA+7HqodhQMAFHHnYE6mNn8bwU6fOBTkkke4gjaV+ub9qgfEMu439tgdxCwIsPTMzfzFsVsTU9k6V2aqUjY2TzKsZYuWVgQPuA7xodHO5ph2I4gBz0wNjsLiQkEEG5hLE76A3BB2lWXDjUaiu9b/MiZcbkqiIPJNxgE+RgG15cf4sbQ8Kq9ow70D2/QRBCrp2Tb+kXxCR1TKulSF1jcnvEMdkDHJRJBoWNPf8AMbg6ckggZB+tA/3iAxFscblL3P8AmVYOtGXGV0lWHniIB2FPfrUjmiJUuwiOntl9QkG+KjyaW5hN2zWK0IztZr9InieZtTav2mEzlbtm6VHr7zeB8mCOfgQr7xAeO35nuBvMG5vsOJvJrsIwMZtK33MxRtMJ1MSeO0JRQsxDNOwoczBYHkz13v54niaEYjSaHyYaihFoCTqMO4IDzNpUmJWzuZmR9b0OBPDYEnYRNjSGA7z12YhurwYxvlW/jeJb6jho6QzfNVHTYrLC1Cx+BPCc8/UgWsYjXA3hL9QO9YwP1hxYzoEwTvIx1xO+geBvCHWA/wD8s3+YUwKGNmhDHEnx50O5sRgyodww/WSgGc7TzGhtPLxqgFu8oDe9f3nuTMvv3MKSB7k1DraoK7CzyYXa5SQgGNCvMwCe5NmadhF2MEiz8T3AMIDbeA7Vx+n5gwBPuNeIwcQVWhNY0LMQAZWpfkyY7D5MaSWazBVdTHaSykewY9yxlFbfM8q0PxNJ0rZ5lIlim+6h25mEXCrb88zz7CACzuR4EGrMKuJqjUYgPBe81RW/niHXaerUfiMDFFC+/ab/ALwq2uA7UL7niMBZ3auanqF3NHHyZ6r27RIDwFzfmaOJjGhGAtyWPxMGwubW3yZ4j3AdhEBoHczxsTe88BZ/EACQUN+ZhO1Q+BBUW0YBDZagMb4hmAYxAZHXGhdzQAnzfU5znzNkbvOh9W6myMCnblv+JyGNCp04oUrMskvDCbMdiQOurkiKxrqahK+nGNGtyOZ0owKsNKLYiiOajAcvqAYWAQ/6h3mBceR6AuuB2PzK1xA2xf8ASMQGDGpyHXbsOb4lhTECNQFgXVdpmNaAYm2G20J9RpkG/fzUAFr7SQ2M0BY25hK6EEI//wAw62qzbeTFPoWjk8VenmABdUzHFStQOxuDiR1UY20kAVY7fmboV8Yokre6neeRgNVWoGxNd4AELWyW9p7zyqls2xY8m4BX1fbWkA6TfeTulKVw+nterfiADM1AhTloAigef3mMcf8ALKlRkDVfjeTDGWQD12DAE6dME4WGVNOU7tR9tftAC3/UQ5J+Z7LlXpcVku2+5jExuqjVlyGzdmoWo3pvUvz2MAEI2PScivk0newI1OpwupZSw77rNGNmIByPQ8bVInxZnJZcuQ7/ANPYXABrdbjBNo4+QvMpXMGxalLkD/sicWLMPuz5At0NSiHjx5VVw+bIx/A2gBjdYmpdNnvdQcj6KJQ5L4KrKPSbQCMhI7+0bzVQtjZdRBX7e20AM6ZlYFdLL5JEIi+CSR2grjINGyPNxlgNRG3YxgBqxj7gaHYiefIp2XYgeIbBW9hF7ROVGZiUNHzABT5FCk5L34oSQMhTbUGG62PEpzFnNFioX45gHHnckmwo4JG5gAWP3prJZSRGatAtzqY7AGLTpAKGpzt5jFwlcZpD+p3gIxU6i/eUGrcADiCcCly24N8qxEaobMlnbtU8mMAmgPIFxgEERFGrc3QAi8rFF9R1Ub/aBcIUH5Gx7mMJBSrveICcZlYhTVd7GwhHFvYYEHm4vU2PIW7PtuO/mYuq3vId9htAB2ZFA3uviTZF3ALOV+DLBTJVxOkkHbv3gB0nYAAEKN/PM8CykAsNgbAFxGMB9IYA9txcbnxgjVqYEeDUko96pQ+4gL57w/WX7RvfcSTqXIGOgPcoJFd5SmMKikE2Vs/MAEZHXSAQQewqAnp5abJSgf0/MIjUgyknUQfx4mZsarYA2QbRiBLNbD7fdYo1tDPTPxsRf6kTdVY0IAF8/Pb/AHlaIpyFa2AuAEdKgqgprxJ2pGxhcZ9x5viWuq+8hQCCamFF1K2kWKo+IgPYs/prudRB3JEP+JQZKAJDHsOJrYEX3Abld94jK3odP6mMAEn9BEMd1HUDEpJLX2AG5k4OTJkV8oBN+1fEoXCrBcjks5rcniZlxqQzHkDaMBQtCSVBuyyKL/WNDnbdQB3MBReRlsgfEXmHpOzKSdxYPBgIfm6hASNhQ2NwAVA/mUR2PER1BrIoAH3RyoDiDkm78wAMZFALMDV0IS58TEDcAigCOZFXuUWdye8YnsJI3K2d4AP9cY/BHP5HxC14cuL1GUr/AGI+bkvQN6uRywHNV2lzgUgoVd1AYCZbxhn4HGQb7fPiKyPiBJXTqIFWOTMVmdWLMeTsNhJ8mNR1hxgUpW6Hb8QAcMLNqYFAoPdb/wB4jPgLgD1UG5I2rf8Aea//AE6s0o2F+IsZKYtpWxuPiAD8KB8J9bIWVwGNHmV4OmxhRWJbrkiI+m5PU6f1CqhjyR32E6OPf9JE3SKitjFUKoVRQET1WSgEHJ5lHAnPclnJPmck3SN4LZ4eTM537zG7CaOSf0mJoF/gQWN0Fmj7L8wV+5j81GAfExthp8wl3aKu7J5gAQG9Qj4ueXiYNzEgN7bwWssFB/MJu0zH3MfYB7AUO0TnzrhS2YLfBMLKxVGYcgT5nqs+TqM15GvwOwlqPIkvy/VAPZgX/wDYyPJnzdQ1u5/En4g5cjIlirM1jBLSJbKbAG9CA2dOA1n4kQJyXqJMq6dRY25W/wC81WNembyPwZ6pBUaWtuI1MpZiBjNA0STMynTiLLsRwY3pQt5FKggLq/WV8cSfkYK5rcAbm40ZGv7SRR3HeM6XGmTPlDL9uwrtKSAmYoB7QeIviiHyMQmWwD534hq4Y9qEFlCeqvIG4B7XKMONWIBUbi5LwrwpZDA5HBqb67E1yJr4VXcX+8mDENUwnjo1jKysdQLthGplRzs20hY7j5jBsJHEqy67OxnnPYfrIixDCjyZ5crja4qArE8DqYxa5C2McbmMXZYuhhH7aEWN2HgDablNA1MXsIAGT2ishvbsIZJon4iu9fMkZldv3jMaiyRAT7WPeOAofpBKwbNAi2OpvxDbbHtBUcfi5TEjILGzQhNsDBH2n8xDBrcmMQVvAIoqPJjo0hGHaaoofmYN3AhN9pjECTEsdTX27RmXZa8xYA1CSxo07DfvPDjeeG5F994R4MYGfMX9xqFk2UQP6L8wALyw/Anl4v8ASa2xrsBPf1QAzjiMA0gAfqYCbvvGdhBAwTuahKKBmKLaGRUYgCNIknWdQOnwF+54Epcm5wPquVm6ooT7V4EqC5MmTpETuXYsx3O5irs7wn32mINTbztSOdsdhOkc03Y9pTjxB8epiQg5Nc/iS4nbVoO4+Z0ukVX9pG3iWSex9VhRwFUk12Esw5dbBjiYX3PEgHUP/GtjpdKmhtOoh0la7mUJjhSX7quefI1Ghv2Bm5lBx34i8ROQsG3oXAR5jkDbha5sdpM2R3sFMhF87CUPix5PvQGqi8gBbEKFEwGhTPmoAqVDHZr4ho+Q42ApyOe0Y2BBj/qNWws8ROs4nGNKCsLMQGIOpUk+0A7Am2qLUZKZCwDK3YczcmbIMSlXIJatvzG5E1Y2fUwZeCDAAVOS/dlBbsBc3NjyG9eRRp9wNR+LCjYVyEHUR5mgDIrBwDpJqxABCt1BTWjqyHxDx4upUb9TsRwFBqHhRArgIvN8Q8QVkJKrzVVAAcWErTetl9x3oUJ5ulptsmW788x4xrp4I7bGZuMxGpqHG8AJmwuW39U0dizCMdcgYMWNAb+6FnyFQ2wO3cSEZ2yFQyrTHf5gBYnrk2mT21wTN1NiYNkOonYmI6Zry6dIoHtKeq9uHUOx4/WMQJYHf1KFbiectkCacgC/ibixqHNXubm5HZKRdhpMAsWyZlotnbnihcWcT5X9+Ztj9o2ErRFXHqCizyT3gq51DjfaAEpTTltRVmi3P7RuFArEZMjM2/eN2fVY+07THRWskbggCABBtN6eT5gZUd0BVwDGegl8H95mRQpscgQGJIyY1PpkG9+O8BDk3PqrfegLEdkW1Jsg32MlzLySSaUmAmNKZP8A/bqLc7Cef1NGnVuBZPiC7EY8b9yBH6jpP6QAjbHkyBf5oYEcVFFsofTkfcf3nTVQU3AkGVdXVCyTVVv5gMbjdzitWtvkQsYzGyXQ/FcRmIWpEmzMcae08moAf//Z;rounded=1;" vertex="1" parent="1">
                    <mxGeometry width="853.33" height="650" as="geometry"/>
                </mxCell>
                <mxCell id="10" value="" style="strokeWidth=1;shadow=0;dashed=0;align=center;html=1;shape=mxgraph.mockup.forms.rrect;rSize=0;strokeColor=#000000;fillColor=#FF8000;gradientColor=none;rounded=1;" vertex="1" parent="1">
                    <mxGeometry x="540" y="200" width="200" height="280" as="geometry"/>
                </mxCell>
                <mxCell id="12" value="" style="shape=line;strokeColor=#ddeeff;strokeWidth=2;html=1;resizeWidth=1;fillColor=#000000;rounded=1;" vertex="1" parent="10">
                    <mxGeometry width="180" height="10" relative="1" as="geometry">
                        <mxPoint x="10" y="30" as="offset"/>
                    </mxGeometry>
                </mxCell>
                <mxCell id="13" value="&lt;span style=&quot;color: rgb(0, 0, 0); font-size: 13px;&quot;&gt;Name&lt;/span&gt;" style="strokeWidth=1;shadow=0;dashed=0;align=center;html=1;shape=mxgraph.mockup.forms.anchor;fontSize=12;fontColor=#666666;align=left;resizeWidth=1;spacingLeft=0;strokeColor=#000000;fillColor=#000000;rounded=1;" vertex="1" parent="10">
                    <mxGeometry width="100" height="20" relative="1" as="geometry">
                        <mxPoint x="10" y="40" as="offset"/>
                    </mxGeometry>
                </mxCell>
                <mxCell id="14" value="" style="strokeWidth=1;shadow=0;dashed=0;align=center;html=1;shape=mxgraph.mockup.forms.rrect;rSize=0;strokeColor=#000000;fontColor=#666666;align=left;spacingLeft=5;resizeWidth=1;fillColor=#FFE6CC;rounded=1;" vertex="1" parent="10">
                    <mxGeometry width="150" height="25" relative="1" as="geometry">
                        <mxPoint x="10" y="60" as="offset"/>
                    </mxGeometry>
                </mxCell>
                <mxCell id="15" value="&lt;font color=&quot;#000000&quot; style=&quot;font-size: 13px;&quot;&gt;Passwort&lt;/font&gt;" style="strokeWidth=1;shadow=0;dashed=0;align=center;html=1;shape=mxgraph.mockup.forms.anchor;fontSize=12;fontColor=#666666;align=left;resizeWidth=1;spacingLeft=0;strokeColor=#000000;fillColor=#000000;rounded=1;" vertex="1" parent="10">
                    <mxGeometry width="100" height="20" relative="1" as="geometry">
                        <mxPoint x="10" y="95" as="offset"/>
                    </mxGeometry>
                </mxCell>
                <mxCell id="16" value="" style="strokeWidth=1;shadow=0;dashed=0;align=center;html=1;shape=mxgraph.mockup.forms.rrect;rSize=0;strokeColor=#000000;fontColor=#666666;align=left;spacingLeft=5;resizeWidth=1;fillColor=#FFE6CC;rounded=1;" vertex="1" parent="10">
                    <mxGeometry width="150" height="25" relative="1" as="geometry">
                        <mxPoint x="10" y="115" as="offset"/>
                    </mxGeometry>
                </mxCell>
                <mxCell id="17" value="&lt;font color=&quot;#000000&quot;&gt;Login&lt;/font&gt;" style="strokeWidth=1;shadow=0;dashed=0;align=center;html=1;shape=mxgraph.mockup.forms.rrect;rSize=5;strokeColor=#000000;fontColor=#ffffff;fillColor=#FFE6CC;fontSize=16;fontStyle=1;rounded=1;" vertex="1" parent="10">
                    <mxGeometry y="1" width="80" height="30" relative="1" as="geometry">
                        <mxPoint x="10" y="-130" as="offset"/>
                    </mxGeometry>
                </mxCell>
                <mxCell id="19" value="" style="shape=line;strokeColor=#ddeeff;strokeWidth=2;html=1;resizeWidth=1;fillColor=#000000;rounded=1;" vertex="1" parent="10">
                    <mxGeometry y="1" width="180" height="10" relative="1" as="geometry">
                        <mxPoint x="10" y="-90" as="offset"/>
                    </mxGeometry>
                </mxCell>
                <mxCell id="20" value="&lt;font color=&quot;#000000&quot;&gt;&lt;span style=&quot;font-size: 13px;&quot;&gt;Noch keinen Account?&lt;/span&gt;&lt;/font&gt;" style="strokeWidth=1;shadow=0;dashed=0;align=center;html=1;shape=mxgraph.mockup.forms.anchor;fontSize=12;fontColor=#666666;align=left;spacingLeft=0;resizeWidth=1;strokeColor=#000000;fillColor=#000000;rounded=1;" vertex="1" parent="10">
                    <mxGeometry y="1" width="150" height="20" relative="1" as="geometry">
                        <mxPoint x="10" y="-70" as="offset"/>
                    </mxGeometry>
                </mxCell>
                <mxCell id="21" value="&lt;font color=&quot;#000000&quot;&gt;Registrieren&lt;/font&gt;" style="strokeWidth=1;shadow=0;dashed=0;align=center;html=1;shape=mxgraph.mockup.forms.rrect;rSize=5;strokeColor=#000000;fontColor=#ffffff;fillColor=#FFE6CC;fontSize=16;fontStyle=1;rounded=1;" vertex="1" parent="10">
                    <mxGeometry y="1" width="110" height="30" relative="1" as="geometry">
                        <mxPoint x="10" y="-40" as="offset"/>
                    </mxGeometry>
                </mxCell>
                <mxCell id="64" value="&lt;font color=&quot;#000000&quot; style=&quot;font-size: 18px;&quot;&gt;&lt;span style=&quot;font-size: 18px;&quot;&gt;Login&lt;/span&gt;&lt;/font&gt;" style="strokeWidth=1;shadow=0;dashed=0;align=center;html=1;shape=mxgraph.mockup.forms.anchor;fontSize=18;fontColor=#666666;align=left;resizeWidth=1;spacingLeft=0;strokeColor=#000000;fillColor=#000000;rounded=1;fontStyle=1" vertex="1" parent="10">
                    <mxGeometry x="10" y="10" width="120" height="20" as="geometry"/>
                </mxCell>
                <mxCell id="22" value="" style="strokeWidth=1;shadow=0;dashed=0;align=center;html=1;shape=mxgraph.mockup.forms.rrect;rSize=0;strokeColor=#000000;fillColor=#FF8000;rounded=1;fontSize=13;fontColor=#000000;" vertex="1" parent="1">
                    <mxGeometry x="70" y="200" width="390" height="300" as="geometry"/>
                </mxCell>
                <mxCell id="26" value="" style="strokeWidth=1;shadow=0;dashed=0;align=center;html=1;shape=mxgraph.mockup.forms.rrect;rSize=0;fontSize=17;fontColor=#666666;align=left;spacingLeft=5;fillColor=#FF8000;strokeColor=none;resizeWidth=1;rounded=1;" vertex="1" parent="22">
                    <mxGeometry width="390" height="20" relative="1" as="geometry">
                        <mxPoint y="70" as="offset"/>
                    </mxGeometry>
                </mxCell>
                <mxCell id="62" value="&lt;font color=&quot;#000000&quot; style=&quot;font-size: 18px;&quot;&gt;&lt;span style=&quot;font-size: 18px;&quot;&gt;Registrieren&lt;/span&gt;&lt;/font&gt;" style="strokeWidth=1;shadow=0;dashed=0;align=center;html=1;shape=mxgraph.mockup.forms.anchor;fontSize=18;fontColor=#666666;align=left;resizeWidth=1;spacingLeft=0;strokeColor=#000000;fillColor=#000000;rounded=1;fontStyle=1" vertex="1" parent="22">
                    <mxGeometry x="140" y="10" width="120" height="20" as="geometry"/>
                </mxCell>
                <mxCell id="59" value="&lt;span style=&quot;color: rgb(0, 0, 0); font-size: 13px;&quot;&gt;Name&lt;/span&gt;" style="strokeWidth=1;shadow=0;dashed=0;align=center;html=1;shape=mxgraph.mockup.forms.anchor;fontSize=12;fontColor=#666666;align=left;resizeWidth=1;spacingLeft=0;strokeColor=#000000;fillColor=#000000;rounded=1;" vertex="1" parent="22">
                    <mxGeometry x="25" y="40" width="100" height="20" as="geometry"/>
                </mxCell>
                <mxCell id="60" value="" style="strokeWidth=1;shadow=0;dashed=0;align=center;html=1;shape=mxgraph.mockup.forms.rrect;rSize=0;strokeColor=#000000;fontColor=#666666;align=left;spacingLeft=5;resizeWidth=1;fillColor=#FFE6CC;rounded=1;" vertex="1" parent="22">
                    <mxGeometry x="25" y="60" width="150" height="25" as="geometry"/>
                </mxCell>
                <mxCell id="45" value="&lt;span style=&quot;color: rgb(0, 0, 0); font-size: 13px;&quot;&gt;Nachname&lt;/span&gt;" style="strokeWidth=1;shadow=0;dashed=0;align=center;html=1;shape=mxgraph.mockup.forms.anchor;fontSize=12;fontColor=#666666;align=left;resizeWidth=1;spacingLeft=0;strokeColor=#000000;fillColor=#000000;rounded=1;" vertex="1" parent="22">
                    <mxGeometry x="25" y="90" width="100" height="20" as="geometry"/>
                </mxCell>
                <mxCell id="46" value="" style="strokeWidth=1;shadow=0;dashed=0;align=center;html=1;shape=mxgraph.mockup.forms.rrect;rSize=0;strokeColor=#000000;fontColor=#666666;align=left;spacingLeft=5;resizeWidth=1;fillColor=#FFE6CC;rounded=1;" vertex="1" parent="22">
                    <mxGeometry x="25" y="110" width="150" height="25" as="geometry"/>
                </mxCell>
                <mxCell id="47" value="&lt;span style=&quot;color: rgb(0, 0, 0); font-size: 13px;&quot;&gt;Passwort&lt;/span&gt;" style="strokeWidth=1;shadow=0;dashed=0;align=center;html=1;shape=mxgraph.mockup.forms.anchor;fontSize=12;fontColor=#666666;align=left;resizeWidth=1;spacingLeft=0;strokeColor=#000000;fillColor=#000000;rounded=1;" vertex="1" parent="22">
                    <mxGeometry x="25" y="150" width="100" height="20" as="geometry"/>
                </mxCell>
                <mxCell id="48" value="" style="strokeWidth=1;shadow=0;dashed=0;align=center;html=1;shape=mxgraph.mockup.forms.rrect;rSize=0;strokeColor=#000000;fontColor=#666666;align=left;spacingLeft=5;resizeWidth=1;fillColor=#FFE6CC;rounded=1;" vertex="1" parent="22">
                    <mxGeometry x="25" y="170" width="150" height="25" as="geometry"/>
                </mxCell>
                <mxCell id="49" value="&lt;font color=&quot;#000000&quot; style=&quot;font-size: 13px;&quot;&gt;Passwort bestätigen&lt;/font&gt;" style="strokeWidth=1;shadow=0;dashed=0;align=center;html=1;shape=mxgraph.mockup.forms.anchor;fontSize=12;fontColor=#666666;align=left;resizeWidth=1;spacingLeft=0;strokeColor=#000000;fillColor=#000000;rounded=1;" vertex="1" parent="22">
                    <mxGeometry x="25" y="200" width="100" height="20" as="geometry"/>
                </mxCell>
                <mxCell id="50" value="" style="strokeWidth=1;shadow=0;dashed=0;align=center;html=1;shape=mxgraph.mockup.forms.rrect;rSize=0;strokeColor=#000000;fontColor=#666666;align=left;spacingLeft=5;resizeWidth=1;fillColor=#FFE6CC;rounded=1;" vertex="1" parent="22">
                    <mxGeometry x="25" y="220" width="150" height="25" as="geometry"/>
                </mxCell>
                <mxCell id="58" value="" style="strokeWidth=1;shadow=0;dashed=0;align=center;html=1;shape=mxgraph.mockup.forms.rrect;rSize=0;strokeColor=#000000;fontColor=#666666;align=left;spacingLeft=5;resizeWidth=1;fillColor=#FFE6CC;rounded=1;" vertex="1" parent="22">
                    <mxGeometry x="215" y="220" width="150" height="25" as="geometry"/>
                </mxCell>
                <mxCell id="57" value="&lt;span style=&quot;color: rgb(0, 0, 0); font-size: 13px;&quot;&gt;Hausnummer&lt;/span&gt;" style="strokeWidth=1;shadow=0;dashed=0;align=center;html=1;shape=mxgraph.mockup.forms.anchor;fontSize=12;fontColor=#666666;align=left;resizeWidth=1;spacingLeft=0;strokeColor=#000000;fillColor=#000000;rounded=1;" vertex="1" parent="22">
                    <mxGeometry x="215" y="200" width="100" height="20" as="geometry"/>
                </mxCell>
                <mxCell id="56" value="" style="strokeWidth=1;shadow=0;dashed=0;align=center;html=1;shape=mxgraph.mockup.forms.rrect;rSize=0;strokeColor=#000000;fontColor=#666666;align=left;spacingLeft=5;resizeWidth=1;fillColor=#FFE6CC;rounded=1;" vertex="1" parent="22">
                    <mxGeometry x="215" y="170" width="150" height="25" as="geometry"/>
                </mxCell>
                <mxCell id="55" value="&lt;span style=&quot;color: rgb(0, 0, 0); font-size: 13px;&quot;&gt;Straße&lt;/span&gt;" style="strokeWidth=1;shadow=0;dashed=0;align=center;html=1;shape=mxgraph.mockup.forms.anchor;fontSize=12;fontColor=#666666;align=left;resizeWidth=1;spacingLeft=0;strokeColor=#000000;fillColor=#000000;rounded=1;" vertex="1" parent="22">
                    <mxGeometry x="215" y="150" width="100" height="20" as="geometry"/>
                </mxCell>
                <mxCell id="54" value="" style="strokeWidth=1;shadow=0;dashed=0;align=center;html=1;shape=mxgraph.mockup.forms.rrect;rSize=0;strokeColor=#000000;fontColor=#666666;align=left;spacingLeft=5;resizeWidth=1;fillColor=#FFE6CC;rounded=1;" vertex="1" parent="22">
                    <mxGeometry x="215" y="110" width="150" height="25" as="geometry"/>
                </mxCell>
                <mxCell id="53" value="&lt;span style=&quot;color: rgb(0, 0, 0); font-size: 13px;&quot;&gt;Postleitzahl&lt;/span&gt;" style="strokeWidth=1;shadow=0;dashed=0;align=center;html=1;shape=mxgraph.mockup.forms.anchor;fontSize=12;fontColor=#666666;align=left;resizeWidth=1;spacingLeft=0;strokeColor=#000000;fillColor=#000000;rounded=1;" vertex="1" parent="22">
                    <mxGeometry x="215" y="90" width="100" height="20" as="geometry"/>
                </mxCell>
                <mxCell id="52" value="" style="strokeWidth=1;shadow=0;dashed=0;align=center;html=1;shape=mxgraph.mockup.forms.rrect;rSize=0;strokeColor=#000000;fontColor=#666666;align=left;spacingLeft=5;resizeWidth=1;fillColor=#FFE6CC;rounded=1;" vertex="1" parent="22">
                    <mxGeometry x="215" y="60" width="150" height="25" as="geometry"/>
                </mxCell>
                <mxCell id="51" value="&lt;span style=&quot;color: rgb(0, 0, 0); font-size: 13px;&quot;&gt;Stadt&lt;/span&gt;" style="strokeWidth=1;shadow=0;dashed=0;align=center;html=1;shape=mxgraph.mockup.forms.anchor;fontSize=12;fontColor=#666666;align=left;resizeWidth=1;spacingLeft=0;strokeColor=#000000;fillColor=#000000;rounded=1;" vertex="1" parent="22">
                    <mxGeometry x="215" y="40" width="100" height="20" as="geometry"/>
                </mxCell>
                <mxCell id="63" value="&lt;font color=&quot;#000000&quot;&gt;Registrieren&lt;/font&gt;" style="strokeWidth=1;shadow=0;dashed=0;align=center;html=1;shape=mxgraph.mockup.forms.rrect;rSize=5;strokeColor=#000000;fontColor=#ffffff;fillColor=#FFE6CC;fontSize=16;fontStyle=1;rounded=1;" vertex="1" parent="22">
                    <mxGeometry x="140" y="260" width="110" height="30" as="geometry"/>
                </mxCell>
            </root>
        </mxGraphModel>
    </diagram>
</mxfile>